<svg fill="none" height="96" viewBox="0 0 96 96" width="96" xmlns="http://www.w3.org/2000/svg"><g clip-rule="evenodd" fill="#000" fill-rule="evenodd"><path d="m83.2843 43.3271c-.0011.0384-.0023.0768-.0036.1151-.4626 13.7823-9.6471 26.403-23.0898 31.1595-13.8153 4.8887-29.7479.4421-38.9818-10.595-4.9082-5.8677-7.6735-13.089-8.0163-20.5992-.0222-.4852.0679-.1076.2026-.1076h5.2527 17.5281 21.1172 18.2675c2.5107 0 5.0292.0525 7.5414.0245.463-.0052 3.1338-.3521 3.2747-1.0861.1385-.7242-.6909-1.1147-1.3122-1.1147h-7.2566-17.5281-21.1172-18.2683c-2.9726 0-5.957-.0743-8.9288 0-.0422.0008-.0837 0-.1252 0-.8466 0-1.7691.4459-1.7652 1.3513.0571 15.2137 10.2988 29.155 25.1321 34.178 15.0398 5.0934 32.3777.6142 42.5381-11.3593 5.5049-6.4876 8.4972-14.5228 8.6309-22.8994.0024-.1484.0038-.2969.0044-.4456"/><path d="m57.2325 66.6953c-9.905 3.6273-21.304.1951-27.8758-8.0885-3.757-4.7357-5.7407-10.5893-5.7709-16.6553-.5836.4665-1.1665.9345-1.7501 1.4018h18.0127 28.7397 6.6331c.6682 0 1.6072-.3398 1.7469-1.1013.1374-.7513-.6853-1.1564-1.3022-1.1564h-18.0127-28.7389-6.6339c-.8389 0-1.7555.4625-1.7508 1.4018.0574 11.6687 7.5714 22.3705 18.4457 26.237 11.1274 3.9561 24.0087.5695 31.5685-8.6927 4.1799-5.122 6.3948-11.4547 6.4282-18.0902.007-1.4302-3.0492-.9613-3.057.5459-.0527 10.6688-6.7518 20.5604-16.6825 24.1979z"/><path d="m58.4501 17.5145c-10.9559-3.6542-23.8643-.6004-31.5436 8.1314-4.0922 4.6541-6.3428 10.5036-6.3769 16.6877-.0024.571.8723.8407 1.3061.8407h18.0134 28.7388 6.6331c.6682 0 1.6073-.333 1.747-1.081.1381-.738-.6853-1.1367-1.3023-1.1367h-18.0127-28.7387-6.6339c.4361.2797.8707.5602 1.3061.8407.0567-10.1798 7.1259-19.019 16.6631-22.2513 9.7638-3.3088 21.1208-.3563 27.8882 7.4251 3.7174 4.2755 5.7468 9.7162 5.7779 15.3625.0069 1.4094 3.0647.945 3.0569-.5363-.0621-11.2416-8.023-20.7801-18.5225-24.2828z"/></g></svg>