<svg fill="none" height="96" viewBox="0 0 96 96" width="96" xmlns="http://www.w3.org/2000/svg"><g fill="#161637"><path d="m23.938 63.6676c.0345-5.0643.2326-41.4823.341-46.6059.0296-1.4171-3.0411-1.4141-3.0708 0-.1083 5.1287-.3154 42.8188-.3492 47.8443-.0325 4.7804-.0904 9.5541.5591 14.2971.1905 1.3973 3.186.8008 2.9962-.5841-.6758-4.9435-.5101-9.972-.4763-14.9514z"/><path d="m74.1042 78.9418c.0203-9.4195.4013-18.836.4215-28.2554.0101-4.4363-.1913-8.8711-.2107-13.3074-.0144-3.2047.6229-6.4072-.0455-9.5879-.2917-1.3861-2.7278-.797-2.4386.5819.7038 3.3505-.054 6.9366-.0397 10.3236.0203 4.4706.2116 8.9389.2015 13.4102-.0177 8.9462-.3987 17.8888-.4173 26.835-.0033 1.4109 2.5255 1.4109 2.5288 0z"/><path d="m72.7764 79.8766c1.4001-.2001.8044-3.0606-.5854-2.8618-3.7706.5393-40.8465 2.2486-48.2634.1603-1.3568-.3804-1.9327 2.484-.5855 2.8631 7.2385 2.0381 45.4199.4131 49.4343-.1616z"/><path d="m27.8167 54.4381v.1238c0 1.9175 2.6 1.9175 2.6 0 0-.0416 0-.0822 0-.1238 0-1.9175-2.6-1.9175-2.6 0z"/><path d="m35 44.6408v9.7184c0 .8544 1 .8544 1 0 0-3.2397 0-6.4787 0-9.7184 0-.8544-1-.8544-1 0z"/><path d="m34.6792 54.9371c1.2769.0106 2.5453.1461 3.8137-.0169.8883-.1143.5111-1.017-.3726-.9033-1.1261.1443-2.3046-.0075-3.4411-.0169-.9061-.0075-.9051.9296 0 .9371z"/><path d="m39.9439 46.1776c1.0229.8557 1.0183 2.9413-.3833 3.4186-1.0266.3497-2.2947.1569-3.367.1422-.8856-.0115-.8838 1.2144 0 1.2258 1.6222.0213 3.4081.2321 4.7961-.6816 1.226-.8066 1.1345-2.459.7713-3.6236-.9085-2.9159-5.6113-2.9004-8.2664-2.4158-.8665.1586-.4987 1.3403.365 1.1826 1.7732-.3236 4.6735-.4266 6.0843.7518z"/><path d="m48 45.6334c0-.8445-1-.8445-1 0v8.7332c0 .8445 1 .8445 1 0 0-2.9108 0-5.8224 0-8.7332z"/><path d="m45.5931 45.3289c2.7579.3423 6.1255-.2974 7.0641 3.2639 1.164 4.4191-3.6418 5.3394-6.6499 5.0085-.797-.0874-.7887 1.2371 0 1.3236 3.6974.4068 8.055-.7589 7.992-5.4647-.0696-5.3041-4.7942-5.0076-8.4062-5.4549-.7953-.0989-.7862 1.2265 0 1.3236z"/><path d="m59 54.3931c0-2.9287 0-5.8575 0-8.7862 0-.8092-1-.8092-1 0v8.7862c0 .8092 1 .8092 1 0z"/><path d="m56.8447 45.6836c2.0735-.5135 4.3879-.4145 6.5003-.1954 0-.4381 0-.8763 0-1.3144-.0381 0-.0752 0-.1132 0-.3705 0-.6794.2988-.6794.6572v1.5335c0 .8473 1.3587.8473 1.3587 0 0-.5109 0-1.0226 0-1.5335-.2264.2191-.4529.4381-.6793.6572h.1132c.8949 0 .8515-1.2259 0-1.3144-2.2383-.2322-4.6632-.3023-6.8608.2427-.8487.2103-.4882 1.4774.3605 1.2671z"/><path d="m56.6653 55h3.6694c.8871 0 .8871-1 0-1-1.2228 0-2.4466 0-3.6694 0-.8871 0-.8871 1 0 1z"/><path d="m58.6809 51h3.6382c.9079 0 .9079-1 0-1-1.2131 0-2.4251 0-3.6382 0-.9079 0-.9079 1 0 1z"/><path d="m44.7394 17.6472c3.2094-.213 6.467-.1733 9.6557-.5866 2.609-.3376 5.9222-1.426 8.4779-.2933 1.2986.5754 2.4298-1.363 1.1209-1.9436-4.3578-1.9317-10.4295.1155-15.0167.2978-8.3987.3338-18.0836.9847-26.4771.128-1.4251-.1455-1.4111 2.1065 0 2.2505 6.875.7014 15.3495.6041 22.2393.1472z"/><path d="m62.8793 16.9495c3.1553 3.4813 7.4678 6.1929 9.643 10.4813.6556 1.2935 2.5737.1526 1.9188-1.1378-2.2737-4.4854-6.6951-7.3037-9.9897-10.9383-.972-1.0717-2.5397.5269-1.5721 1.5948z"/><path d="m63.8228 26.9817c.3416-3.649.4058-7.3144.7474-10.9634.1278-1.3637-2.1158-1.3517-2.2421 0-.3416 3.649-.4059 7.3144-.7474 10.9634-.1278 1.3637 2.1158 1.3517 2.2421 0z"/><path d="m62.3758 28.2301c3.2149.8821 6.5224.2673 9.7809.7552 1.4235.2137 2.0352-1.9696.5997-2.1848-3.2398-.4856-6.6044.1156-9.781-.7552-1.4069-.3851-2.0028 1.8004-.5996 2.1848z"/></g></svg>