<svg fill="none" height="96" viewBox="0 0 96 96" width="96" xmlns="http://www.w3.org/2000/svg"><g fill="#161637"><path d="m16.2169 39.2334 1.3532.0219v-.0002zm.4886-12.9969 1.3188.3033.0001-.0005zm10.7676-5.0812.0252-1.3531h-.0003zm7.0216-.1539.0226 1.3532.001-.0001zm6.6456 4.2789-.4143 1.2883.0007.0003zm13.0296.3859-.0365 1.3528h.0001zm24.7775 4.9345 1.3533.0095v-.0002zm-.0081 32.3551-1.3533-.0059v.0002zm-4.8527 11.9256-.0277 1.353h.0004zm-12.1523 0-.0213-1.3532h-.0001zm-30.5133-.1305.0429-1.3526-.0002-.0001zm-14.8371-4.3643 1.3509.0822c.0044-.0735.0029-.1472-.0046-.2205zm60.9997-34.2401c-.0446.7461.5241 1.3871 1.2702 1.4316.746.0446 1.387-.5241 1.4316-1.2702zm-13.7187-4.5751v-1.3533h-.0001zm-29.0826 0 .0212 1.3531h.0002zm-13.6591-.1909.0286-1.3531h-.0003zm-6.2267 3.7256c-.2388.7082.1417 1.476.8499 1.7148s1.476-.1417 1.7148-.8499zm2.6736 4.149c.0327-2.0402-.078-4.4615-.0807-6.5518-.0028-2.1949.1033-4.2867.5349-6.1635l-2.6377-.6067c-.5017 2.1814-.6067 4.5191-.6038 6.7736.003 2.3592.1147 4.4073.081 6.505zm.4543-12.7158c.3167-1.3791.7386-2.2383 1.1921-2.7901.4346-.5288.9589-.8499 1.6399-1.05.7163-.2105 1.6002-.2854 2.7313-.2868 1.1681-.0015 2.3532.0682 3.8605.096l.0498-2.7062c-1.3359-.0246-2.7457-.0979-3.9138-.0964-1.2051.0015-2.3987.0756-3.4909.3965-1.1274.3314-2.1425.9242-2.9678 1.9284-.8065.9813-1.3651 2.2742-1.739 3.9029zm9.4235-4.0309c2.226.0414 5.1489-.1217 7.0694-.1539l-.0453-2.7062c-2.1189.0355-4.7876.1946-6.9737.1539zm7.0704-.1539c1.0043-.0175 1.603.1569 1.9906.3589.3863.2013.6735.4866.9787.8889.1615.213.3049.4263.4896.6924.174.2508.3785.539.6167.8179.4966.5816 1.1549 1.1418 2.1321 1.456l.8286-2.5766c-.373-.12-.6334-.3219-.9023-.6369-.1446-.1693-.2846-.363-.4514-.6034-.1562-.2251-.35-.5124-.557-.7852-.4317-.5691-1.0062-1.1958-1.8842-1.6534-.8768-.4569-1.9451-.6883-3.2887-.6648zm6.2084 4.2144c1.5954.5121 3.9525.5636 6.2671.537 2.4306-.028 4.9173-.1469 7.1396-.0869l.073-2.7057c-2.2829-.0616-4.9609.0599-7.2437.0861-2.3989.0276-4.304-.053-5.4088-.4076zm13.4068.4501c2.2782.0613 5.0008-.0863 7.717-.2136 2.7481-.1287 5.5129-.2385 7.9872-.1218 2.5056.1181 4.5397.464 5.9066 1.1402.6638.3284 1.1144.7079 1.4003 1.1255.2775.4055.4544.9256.4496 1.6422l2.7065.0185c.0083-1.2109-.3023-2.2831-.9226-3.1894-.6119-.8941-1.4695-1.5459-2.4338-2.0229-1.8894-.9346-4.3915-1.2957-6.9791-1.4177-2.6191-.1235-5.5047-.0065-8.2414.1218-2.7685.1297-5.365.2694-7.5175.2115zm23.4607 3.5723c-.0412 5.9032.0346 22.5693-.0082 32.3586l2.7066.0118c.0432-9.8814-.0333-26.4072.0081-32.3515zm-.0082 32.3588c-.0093 2.2329.2394 4.9672-.2059 7.2888-.2165 1.1282-.5699 1.958-1.0564 2.4876-.4375.4763-1.0852.8245-2.2099.8018l-.0545 2.7061c1.8121.0366 3.2373-.5661 4.2577-1.6769.9713-1.0574 1.4608-2.451 1.7212-3.8087.5084-2.6502.2467-5.938.2544-7.7874zm-3.4718 10.5782c-3.5308-.0721-8.3676-.0606-12.2012-.0001l.0427 2.7063c3.8126-.0602 8.6149-.0713 12.1032-.0001zm-12.2013-.0001c-10.2654.1626-20.3231.1913-30.449-.1299l-.0858 2.7052c10.1861.3232 20.2913.2939 30.5777.131zm-30.4492-.13c-1.4275-.0451-3.1346.0409-4.7689.0938-1.6748.0541-3.3118.076-4.7474-.0713-1.4653-.1504-2.5285-.4612-3.1818-.9301-.5436-.39-.8962-.947-.8308-2.0218l-2.7017-.1643c-.1181 1.9426.607 3.4182 1.9545 4.3852 1.2377.8882 2.8789 1.2588 4.4835 1.4234 1.6344.1678 3.4329.1383 5.1112.0841 1.7189-.0556 3.2827-.1352 4.5959-.0937zm-13.5335-3.1499c-.8977-8.7394-.5206-21.071-.3601-30.993l-2.7063-.0438c-.1587 9.8147-.5448 22.3686.3739 31.3134zm62.3552-33.9404c.1147-1.9197-.98-3.2518-2.3685-4.0892-1.3387-.8075-3.0964-1.2657-4.8276-1.5422-3.4836-.5564-7.4602-.4584-9.2244-.4584v2.7066c1.8718 0 5.5802-.0893 8.7975.4246 1.6193.2586 2.9661.65 3.8566 1.1871.8408.5071 1.1001 1.0147 1.0646 1.6101zm-16.4206-6.0898c-9.6838.0008-19.412-.1531-29.1039.0001l.0428 2.7063c9.6673-.1528 19.3162.001 29.0613.0002zm-29.1037.0001c-4.5434.0712-9.0552-.0943-13.6093-.1908l-.0573 2.7061c4.4985.0952 9.0993.2632 13.709.191zm-13.6096-.1908c-1.6145-.0337-3.0008.6917-4.0378 1.6472-1.0338.9524-1.8027 2.2022-2.2172 3.4315l2.5647.8649c.279-.8272.8083-1.6811 1.4864-2.3058.6748-.6218 1.414-.9471 2.1473-.9317z"/><g clip-rule="evenodd" fill-rule="evenodd"><path d="m53.0882 41.5034c1.4318 3.4045-.1719 6.6973-3.7229 7.8135-3.7228 1.2279-7.6748-.5581-8.4766-4.4649-.5728-2.5115.5727-4.2974 2.3482-5.5252.0382-.0373.07-.0745.1018-.1117.0637-.0744.1273-.1488.2419-.2232.63-.3907 1.3746-.6697 2.0619-.893.1718-.1116.8591-.279.9736-.2232 2.6919-.3349 5.2693.8371 6.4721 3.6277zm-8.7884-.8458c-.0416.0135-.0831.027-.1109.027-1.1087.8103-1.8293 1.8366-1.7185 3.4572.3327 2.863 3.049 4.3215 5.7653 3.6733 2.7164-.7023 4.1023-3.0791 2.7718-5.618-1.3304-2.5929-4.2131-2.6469-6.5968-1.5665-.0277 0-.0693.0135-.1109.027z"/><path d="m56.7632 54.8144c2.1164 2.1705 3.0075 5.2313 3.5645 8.1252.4455 2.2817.3898 3.3391-2.1721 3.4504-3.0254.1194-6.0792.0965-9.1209.0738-1.2139-.0091-2.4258-.0181-3.6333-.0181-1.3019 0-2.6092.0211-3.9169.0421-2.9436.0474-5.8892.0949-8.7815-.0978-.8354-.0556-1.0582-.8347-.724-1.3356-.0557-.1113-.0557-.2783 0-.3896 1.2253-5.3426 4.3999-10.0173 9.6909-11.9651 4.5113-1.6696 11.5288-1.5026 15.0933 2.1147zm.4341 8.914c.0749-.1053.0352-.292.0608-.7265.1003-1.9537-1.2533-4.759-2.4565-6.1617-2.6571-3.206-8.673-3.2561-12.2826-1.9035-4.0608 1.4527-6.4171 5.0595-7.4699 9.017 3.3812-.2677 6.8294-.1779 10.2552-.0887 1.7044.0444 3.4033.0887 5.0856.0887h4.1109c.2154 0 .4418.0109.67.0219.4624.0224.9325.0451 1.3353-.0219.442-.0982.6194-.1242.6912-.2253z"/></g></g></svg>