<svg fill="none" height="96" viewBox="0 0 96 96" width="96" xmlns="http://www.w3.org/2000/svg"><path clip-rule="evenodd" d="m70.4769 27.4776c4.7257-.2303 9.6634.152 10.7854 3.9729 1.1098 3.7794.9354 8.4187.7733 12.732v.0003.0002.0003.0002c-.0558 1.4848-.1102 2.931-.1102 4.2902 0 .1968.0006.3957.0012.5963.0112 3.6491.024 7.8309-3.605 9.4554-.2187.1614-.5108.2708-.8562.2708h-6.9884v5.7114c0 .5845.0306 1.2348.0628 1.9208l.0001.0001c.128 2.7226.2825 6.0068-1.3438 7.9635-2.9335 3.5299-11.432 3.0714-17.0495 2.7684h-.0001c-1.3229-.0713-2.486-.1341-3.379-.1341-2.6977 0-5.1413-.1147-7.5928-.2299h-.0001-.0001-.0001-.0001-.0001c-2.3018-.1081-4.6107-.2165-7.1435-.2306-.1743-.001-.3484-.0011-.5221-.0012-2.241-.001-4.4222-.002-6.0146-1.9216-1.5755-1.8994-1.3738-5.6748-1.2196-8.5613.041-.7674.0787-1.4719.0787-2.0617v-5.9316c-.5623.0269-1.1785.0757-1.8258.1269-3.5832.2838-8.1173.6429-9.7156-2.2235-1.6903-3.0312-1.5003-8.8086-1.3575-13.1506.0356-1.0803.0682-2.0717.0682-2.9099 0-.2531-.0025-.5323-.0052-.8324-.027-3.02-.0729-8.1611 2.2139-10.1916 1.4331-1.2723 4.0283-1.1307 6.0931-1.018.5371.0293 1.0383.0567 1.4739.0567h3.0638c-.0003-.0053-.0023-.0093-.0044-.0134-.0022-.0043-.0044-.0086-.0044-.0144 0-4.7753.1643-7.8352 5.3611-8.5961 3.3193-.486 6.928-.3202 10.4543-.1582 1.7325.0796 3.445.1582 5.0936.1582 1.9495 0 3.9424-.0687 5.9487-.1379 4.0534-.1398 8.1616-.2815 12.0772.1379 5.1904.556 5.1898 3.5666 5.1889 8.1438zm-36.602-6.3428c-4.4577.4385-5.0602 2.0518-5.0602 6.5227 0 .1026-.0388.1992-.1038.2885h34.5722c1.0159 0 2.2985-.1012 3.7098-.2125.332-.0262.6711-.0529 1.0155-.0791-.0733-5.1468-2.2348-6.5196-7.0272-6.5196h-13.8377c-1.4379 0-2.9053-.0466-4.3819-.0935-2.9809-.0947-5.9991-.1906-8.8867.0935zm33.6873 49.4779c-.8242 4.403-2.2517 4.3709-5.2566 4.3033h-.0001-.0001-.0001c-.3974-.009-.8224-.0186-1.2773-.0186h-12.1623c-2.5027 0-6.9758-.0832-10.9065-.1689-4.0955-.0893-7.6189-.2426-8.5604-3.4224-1.1538-3.8968-.8188-8.9283-.4743-13.6467.0055-.0178.0149-.0345.0243-.0513.0138-.0246.0276-.0492.0286-.0769.0037-.0932.0085-.2094.0142-.3445v-.001c.0113-.2716.0258-.6192.0402-1.0094.1266-1.7775.2321-3.4875.2321-5.0425 0-.0107-.004-.0188-.008-.0269-.0035-.0072-.007-.0143-.0078-.0232.2071-.0119.4411-.0331.6828-.055h.0001.0002l.0002-.0001c.4682-.0424.965-.0874 1.3499-.0723 3.9512.1551 7.9283.1033 11.898.0516h.0002.0002.0001c1.982-.0258 3.9622-.0516 5.9364-.0516 1.8272 0 3.6742.0452 5.5273.0906h.0001c3.7244.0912 7.4734.183 11.1354-.0906 1.094-.0817 1.6646.0568 1.9123.1169l.0033.0008c-.0793.1008-.1324.2094-.1324.3279 0 1.9884.1196 4.0973.2413 6.2425l.0251.4448.0165.2923c.0006.0229-.0012.0544-.0004.0766.0003.0083.0053.012.0059.0201.2313 4.1426.414 8.3825-.2884 12.1345zm2.8208-13.3127c.6405-.0391 5.0058-.1541 6.8159-.1712 3.0713-1.8658 2.8655-12.41 2.7731-17.1437-.0125-.639-.0229-1.1721-.0229-1.5637 0-1.5597-.5771-5.4296-1.2923-6.855-.0868-.173-.1652-.3355-.2378-.4861-.2079-.4309-.3687-.7644-.5445-.9661-.4307-.4942-.7924-.4445-1.3366-.3696-.4125.0567-.9299.1279-1.6616-.0123-3.4174-.6549-7.3586-.4278-11.1457-.2096-1.8368.1058-3.6374.2096-5.3244.2096h-22.133c-1.6218 0-3.3674-.1005-5.154-.2033-3.7021-.2132-7.5802-.4364-10.8972.2033-4.2068.8113-4.1539 4.7676-4.1008 8.7315.0059.4424.0118.8849.0118 1.3231 0 .5153-.0259 1.2181-.0564 2.0458-.1673 4.5427-.4733 12.8478 2.6013 14.5662.5952.3326 7.7657 0 7.7657-.0848-.5187-.8079-.265-3.6144-.1035-5.4014.0464-.513.0852-.9421.0959-1.2156.0215-.5483.8961-.9403 1.3572-.9403h41.4882c.5277 0 1.0874.107 1.1092.7232.0214.6081.012 2.1523-.0076 3.7098zm-.9548-24.9329h-.0001c-.5852-.0141-1.1739-.0283-1.7502.014-1.4338.1053-2.4285 1.0284-2.4666 2.4431-.0043.162-.0141.3377-.0244.5213v.0001c-.0417.7475-.0907 1.6254.1907 2.2376.6262 1.3622 2.8553 1.2306 4.4648 1.1356.3644-.0215.6971-.0411.9722-.0411.2579 0 .4722-.0733.661-.1718 1.055-.3259 1.7726-1.0463 1.8056-2.2713.0041-.1539.0141-.3253.0247-.5074.0476-.8167.1077-1.8471-.2933-2.457-.5877-.8939-1.6227-.8915-2.575-.8893l-.1401.0002c-.2876 0-.578-.007-.8693-.014zm-1.7428 3.5531c-.0168.3891-.0385.8894.1493 1.0097.2263.1449.8946.0813 1.3895.0342.193-.0184.3597-.0342.4634-.0342h1.3067c.0152.0022.0314.0022.0486 0h-.0486c-.3082-.0452-.2401-.9789-.2076-1.4241.0067-.0923.0119-.1636.0119-.2016 0-.0861.002-.1729.0039-.2598.0039-.1745.0078-.3498-.0039-.5221-.0128-.1893-.0003-.2558-.027-.2966-.0213-.0323-.0672-.0484-.1704-.0968-.2828-.1327-.8283-.0802-1.2839-.0363-.1972.019-.3776.0363-.5125.0363-.032 0-.1125-.0057-.2193-.0133-.2828-.0201-.75-.0532-.9873-.0279.0995.1248.1042.5978.0956.5397.0322.2173.0212.4564.0104.6888-.0052.1136-.0104.2257-.0104.3328 0 .0773-.004.1705-.0084.2712z" fill="#000" fill-rule="evenodd"/></svg>