<svg fill="none" height="96" viewBox="0 0 96 96" width="96" xmlns="http://www.w3.org/2000/svg"><g clip-rule="evenodd" fill="#161637" fill-rule="evenodd"><path d="m50.8876 19.0298c.3866 0 .5155 0 .7732.1288 16.7534-1.4164 35.5687 17.3825 28.9962 34.25-4.2527 10.9446-15.9801 16.2237-27.0631 16.8675-1.5465.0859-3.0929.0572-4.6394.0286-.7732-.0143-1.5465-.0286-2.3197-.0286-.3222 0-.6444-.0322-.9665-.0644-.3222-.0322-.6444-.0643-.9666-.0643l-.1289.1287c-3.4795 3.3478-7.99 5.5367-12.6294 6.6955-1.4176.2575-2.8352-1.2876-1.9331-2.5752 1.4176-1.9314 2.4486-3.9915 3.4795-6.1804-.7682-.2559-1.5416-.4988-2.3135-.7412-4.6671-1.4656-9.2816-2.9147-12.3779-7.1132-4.3816-5.6654-4.5105-13.6485-2.7063-20.344 1.9331-6.953 6.5725-13.6485 13.0161-17.2537 6.5725-3.7341 14.4337-3.8628 21.7794-3.7341zm-3.6949 48.4754c10.3915.134 22.2485-1.7423 28.6433-11.2578 5.0625-7.5051 3.597-15.8144-1.1991-23.0515-2.398-3.3505-5.5954-6.165-9.1925-8.1753-3.5234-1.9807-7.1274-2.664-10.8748-3.3744-1.0701-.2029-2.152-.408-3.247-.6462-.1332.134-.2664.134-.5329.134-6.3947-.134-12.9228-.134-18.9179 2.5464-6.3947 2.8144-11.0576 8.7114-13.3224 15.2784s-2.5313 15.4123 2.5312 20.7732c2.6726 2.7845 6.4393 3.918 10.1242 5.027 1.4585.4389 2.9041.8739 4.2641 1.4059 1.199.4021 1.5987 1.4743 1.0658 2.5464-.3686.8158-1.0545 1.9377-1.7066 3.0043-.5263.8609-1.0306 1.6858-1.3281 2.2844 1.0059-.368 2.4373-1.3334 3.667-2.1627.5618-.3789 1.0815-.7295 1.4993-.9816.5995-.3351 1.1324-.8042 1.6653-1.2732.5329-.4691 1.0658-.9382 1.6653-1.2732 1.4283-.8842 2.5848-.8569 4.1419-.8202.3311.0078.6802.0161 1.0539.0161z"/><path d="m34 43c0-7.1842 5.8158-13 13-13s13 5.8158 13 13c0 1.7789 0 7.1842-4.9941 7.2519-1.4375 0-2.3947-.6151-3.0789-1.5045-6.5671 2.5103-12.0421 1.2541-12.0421-5.7474 0-7.1678 5.928-9.1212 12.3842-6.4316.5467.2053.9572.6842.9572 1.3 0 .3269-.0005.6506-.0011.9703-.0083 4.7469-.015 8.6087 1.8485 8.6087.9586 0 2.2579 0 2.2579-4.4474 0-5.6789-4.5842-10.2632-10.2632-10.2632-5.6789 0-10.2631 4.5843-10.2631 10.2632s4.5842 10.2632 10.2631 10.2632c.9084 0 2.3898-.3987 3.4218-.7149.6643-.2034 1.3884.0985 1.685.7267.3425.7254-.0182 1.5845-.7857 1.8174-1.3098.3973-3.2196.9076-4.3895.9076-7.1842 0-13-5.8158-13-13zm16.6033-4.3216c-4.0945-1.4976-7.6033-.6825-7.6033 4.13 0 4.8681 3.4916 4.8491 8 3.1822-.4071-1.8071-.4031-3.7871-.3979-6.3846.0006-.3007.0012-.6097.0012-.9276z"/></g></svg>