<svg fill="none" height="96" viewBox="0 0 96 96" width="96" xmlns="http://www.w3.org/2000/svg" xmlns:xlink="http://www.w3.org/1999/xlink"><mask id="a" fill="#000" height="27" maskUnits="userSpaceOnUse" width="26" x="58" y="20"><path d="m58 20h26v27h-26z" fill="#fff"/><path clip-rule="evenodd" d="m65.8325 25.2398c3.7346-2.2356 7.8737-1.1411 11.4418.8617 4.0202 2.352 4.4959 7.9876 2.807 11.9-1.8317 4.1685-6.2562 6.3109-10.7996 5.9616-2.1171-.1863-4.2104-1.537-5.8042-2.8411-1.6414-1.3507-2.1885-3.3767-2.4026-5.4027-.4519-4.0055 1.1418-8.3137 4.7576-10.4795zm9.3867 14.1679c.9942-.8774 1.7044-2.0655 2.095-3.345.7634-2.5591.3728-6.0686-2.024-7.5309-2.5743-1.5171-5.5393-2.3214-8.1314-.4204-2.2725 1.6999-3.1247 4.7525-2.7341 7.5126.2308 1.7182.7812 2.9063 2.1838 3.8934 1.3493.9505 2.6276 1.6085 4.2965 1.4623 1.5623-.128 3.1069-.4936 4.3142-1.572z" fill="#000" fill-rule="evenodd"/></mask><path clip-rule="evenodd" d="m61.2226 32.0846c-3.7103-.1169-7.4395-.0876-11.114-.0587-1.6205.0128-3.2303.0254-4.8232.0254-9.5294 0-18.9365.4865-28.3437 1.5812-.4887.1216-.8552.4865-.9774.8514-.3665.1216-.6108.3649-.733.7298-.2443.4865-.3665 1.0947 0 1.4596.2444 6.568.3665 13.136.4887 19.704 0 3.5273.1222 7.0545.2443 10.5818 0 .1321-.0011.2667-.0024.4028-.011 1.2427-.0232 2.6244.8576 3.611.8595.8556 2.3161.8939 3.6113.9278h.0001c.3618.0095.711.0187 1.0311.0452 2.6018.081 5.1494.0542 7.715.0272 1.2895-.0136 2.5836-.0272 3.8913-.0272h.0007c8.063 0 16.0039 0 24.0669-.1216 1.9548 0 3.879-.0304 5.8031-.0608 1.9242-.0304 3.8484-.0608 5.8032-.0608.4689 0 .999.0276 1.5618.057 2.0762.1083 4.5971.2399 6.1349-.9084 1.0996-.9731 1.2217-2.0677 1.3439-3.284.4887-3.6489-.1222-18.8527-.3665-22.5016-.0286-.627-.0371-1.3008-.046-1.9994v-.0003c-.0061-.4836-.0123-.9791-.0255-1.4793-.9028.7337-1.933 1.3068-3.0414 1.7101.1924 2.7976.2262 5.756.2474 7.6123v.0004c.0104.9071.0177 1.551.0391 1.7843.1209 2.5159.1209 5.9119.1209 8.4277 0 .3465.0369.9212.0811 1.6089v.0001c.139 2.1652.3501 5.4512-.2919 6.2695-.709.8786-3.4672.5482-5.4597.3095h-.0002c-.7244-.0868-1.3476-.1614-1.7343-.1614-1.2689 0-2.5378.0299-3.8067.0599-1.2689.0299-2.5378.0599-3.8067.0599-2.719.0599-5.4079.0898-8.0968.1198-2.6888.0299-5.3777.0599-8.0967.1198-2.5378 0-5.0756.0299-7.6134.0599-2.5378.0299-5.0756.0599-7.6134.0599-.8977 0-1.8271.0371-2.7309.0732-2.0227.0808-3.9172.1564-5.0412-.2005-1.0687-.3394-1.1766-1.2847-1.2577-1.995-.011-.0963-.0215-.1882-.0338-.2737-.1209-1.0782-.1209-2.1564-.1209-3.1148-.127-2.8534-.2243-5.8443-.3231-8.8814-.1834-5.6337-.3719-11.4267-.7645-16.7975 5.8007 2.7554 10.9971 6.4692 16.0727 10.4226.6643.5214 1.4554 1.2376 2.3298 2.0291 2.943 2.6643 6.829 6.1823 9.9967 5.9976 3.2825-.0958 7.2591-3.7086 10.2662-6.4406.7571-.6878 1.4527-1.3197 2.0603-1.8257.5862-.4843 1.2009-.9867 1.8344-1.5045 1.6731-1.3676 3.477-2.842 5.2321-4.371-.8396-.4841-1.6241-1.058-2.3147-1.6231-.2085-.1716-.3994-.354-.5741-.546-1.2815 1.2545-2.566 2.4897-3.8731 3.6564-.59.5212-1.2458 1.1454-1.9518 1.8175-3.7904 3.6083-9.0294 8.5956-13.3209 6.4193-2.6575-1.3862-5.2199-3.5925-7.717-5.7425-1.4892-1.2822-2.9552-2.5444-4.4042-3.6008-3.7576-2.7046-7.5152-5.0404-11.6364-7.0074 8.2424-.8606 16.4848-1.1064 24.7273-1.1064 3.8069-.0613 7.6741.1218 11.5565.3057 1.5888.0752 3.1802.1506 4.771.2094-.1102-1.145-.0541-2.3115.1678-3.4426z" fill="#000" fill-rule="evenodd"/><path clip-rule="evenodd" d="m65.8325 25.2398c3.7346-2.2356 7.8737-1.1411 11.4418.8617 4.0202 2.352 4.4959 7.9876 2.807 11.9-1.8317 4.1685-6.2562 6.3109-10.7996 5.9616-2.1171-.1863-4.2104-1.537-5.8042-2.8411-1.6414-1.3507-2.1885-3.3767-2.4026-5.4027-.4519-4.0055 1.1418-8.3137 4.7576-10.4795zm9.3867 14.1679c.9942-.8774 1.7044-2.0655 2.095-3.345.7634-2.5591.3728-6.0686-2.024-7.5309-2.5743-1.5171-5.5393-2.3214-8.1314-.4204-2.2725 1.6999-3.1247 4.7525-2.7341 7.5126.2308 1.7182.7812 2.9063 2.1838 3.8934 1.3493.9505 2.6276 1.6085 4.2965 1.4623 1.5623-.128 3.1069-.4936 4.3142-1.572z" fill="#000" fill-rule="evenodd"/><path d="m77.2743 26.1015 1.515-2.5894-.0232-.0136-.0234-.0131zm-11.4418-.8617-1.5409-2.574-.0007.0004zm14.2488 12.7617 2.7465 1.2068.004-.0089.0038-.0089zm-10.7996 5.9616-.263 2.9885.0165.0014.0165.0013zm-5.8042-2.8411-1.9063 2.3165.0065.0053zm-2.4026-5.4027 2.9834-.3153-.0011-.0105-.0012-.0106zm16.2393.3434 2.8692.8759.0028-.0092.0028-.0091zm-2.095 3.345-1.985-2.2494-.0068.006-.0068.0061zm.071-10.8759 1.5625-2.561-.0196-.0119-.0197-.0117zm-8.1314-.4204-1.7741-2.4192-.0115.0084-.0113.0085zm-2.7341 7.5126 2.9733-.3994-.0014-.0105-.0015-.0105zm2.1838 3.8934 1.7276-2.4526-.0011-.0008zm4.2965 1.4623-.2449-2.99-.0085.0007-.0085.0007zm7.8377-17.4943c-3.8812-2.1785-9.3102-3.8971-14.4511-.8196l3.0817 5.1481c2.3284-1.3939 5.1776-.9234 8.4327.9036zm4.0929 15.7051c1.0729-2.4853 1.4558-5.4775.9319-8.2762-.5294-2.828-2.0446-5.6859-4.9782-7.4022l-3.0299 5.1787c1.0865.6357 1.8193 1.7717 2.1105 3.3276.2968 1.5852.0731 3.367-.5429 4.794zm-13.7839 7.7638c5.5564.4272 11.3352-2.1909 13.7761-7.746l-5.4931-2.4137c-1.2223 2.782-4.2926 4.4488-7.823 4.1773zm-7.474-3.5105c1.679 1.3739 4.3717 3.2377 7.441 3.5078l.526-5.9769c-1.165-.1026-2.6589-.9402-4.1674-2.1745zm-3.4862-7.4093c.2369 2.2417.8998 5.281 3.4797 7.404l3.8125-4.633c-.7027-.5783-1.1341-1.5911-1.3254-3.4015zm6.1994-13.3683c-4.8342 2.8956-6.751 8.48-6.1971 13.3894l5.9622-.6727c-.35-3.1015.9208-6.1336 3.318-7.5695zm10.154 12.5206c-.251.822-.6866 1.509-1.2107 1.9715l3.97 4.4988c1.4643-1.2923 2.449-2.9815 2.9792-4.7185zm-.7172-4.094c.301.1836.6452.5943.8288 1.4341.1852.8465.1307 1.8473-.1171 2.6781l5.7496 1.7153c.5155-1.7282.6475-3.7617.229-5.6753-.42-1.9202-1.4695-3.9955-3.5653-5.2742zm-4.7947-.5622c1.0842-.7952 2.5553-.7571 4.834.5858l3.0464-5.1692c-2.87-1.6913-7.3287-3.2618-11.4287-.255zm-1.5379 4.673c-.283-1.9998.3996-3.8213 1.5607-4.6899l-3.5939-4.8046c-3.3839 2.5313-4.4058 6.8149-3.9076 10.3352zm.9399 1.8604c-.3664-.2579-.5203-.4629-.616-.6406-.112-.2083-.2338-.5501-.321-1.1988l-5.9466.7988c.1437 1.0695.4125 2.1808.9839 3.2429.5879 1.0927 1.4105 1.9752 2.4466 2.7044zm2.3081.9271c-.5967.0523-1.1402-.1045-2.307-.9263l-3.4553 4.9051c1.5319 1.0792 3.545 2.2385 6.286 1.9983zm2.5775-.8207c-.4846.4328-1.2415.7112-2.5605.8193l.4897 5.9799c1.8057-.1478 4.138-.6005 6.068-2.3246z" fill="#f1fbff" mask="url(#a)"/></svg>