<svg height="96" viewBox="0 0 96 96" width="96" xmlns="http://www.w3.org/2000/svg"><g fill="none" fill-rule="evenodd"><path d="m0 0h96v96h-96z"/><g fill="#161637" fill-rule="nonzero" transform="translate(15 17)"><path d="m43.7526059 1.0608845c-12.6935808-3.2368125-26.8805241 1.0789375-35.50884048 10.9553654-9.12610386 10.5403894-10.12167883 26.2264807-2.32300826 37.8458076 7.71570604 11.4533366 21.98561384 16.0180722 35.17698214 12.8642549 15.0165891-3.5687933 25.8849491-16.1010673 26.2168075-31.7041635-.2488938-14.1091827-9.8727851-26.47546633-23.5619409-29.9612644zm-.8465377 58.7113977c-12.1608849 3.6433734-25.5015571-1.6098627-32.94329257-10.8453906-7.53248839-9.4897167-8.44001711-22.7075365-2.17806893-32.9598197 6.6249597-10.84539057 19.874879-16.35281546 32.8525397-12.70944207 13.7036837 3.89756223 22.5067123 15.92916737 22.7789709 29.06225747-.2722586 11.8621459-7.9862527 23.7242919-20.5101491 27.4523949z"/><path d="m38.7658946 15.4530242c0-2.8785712-3.8113985-1.8093876-3.8113985.5757143v8.7179586c0 1.9738775.3255046 4.5571812.3255046 6.6133035 0 .5757143-9.3227904 10.0824098-13.3736295 14.1946544-2.616167 2.6318366 1.4156992 3.2075509 3.1035488 1.4804081 2.1098121-2.2206121 4.3040166-4.3589793 6.4138286-6.5795914 2.0254196-2.0561223 5.063549-4.1122447 6.5826136-6.5795914 1.3502797-2.2206122.7595324-6.0038772.7595324-8.471224 0-3.2897957 0-6.5795914 0-9.9516321zm-6.4138287 17.682652c-.0843924.2467347-.1687849.3289796 0 0z"/></g></g></svg>