<svg fill="none" height="96" viewBox="0 0 96 96" width="96" xmlns="http://www.w3.org/2000/svg"><path clip-rule="evenodd" d="m73.6326 64.155.0001.0002c1.8278 3.5438 3.6549 7.0861 5.2322 10.6561.3985.9949-.0996 2.1887-1.2952 2.1887h-24.7085c-.1993 0-.3986 0-.5978-.0995l-.2905-.0045h-.0003-.0002c-6.2764-.098-12.4592-.1945-18.7386-.1945-2.1531 0-4.8322-.0829-7.3661-.1613-2.2733-.0704-4.4296-.1371-5.9844-.1371-1.5941 0-3.786-2.1887-2.4908-2.6861 5.2804-14.4252 13.3506-28.552 21.0222-41.8829l.1992-.199v-3.4819c-1.8436-.1674-3.6167-.6866-5.3786-1.2026-.3329-.0975-.6653-.1948-.9978-.2897-.9963-.2984-1.2952-1.8902-.2989-2.3876.4783-.2587.9605-.5134 1.4427-.768 1.9289-1.0188 3.8577-2.0375 5.5315-3.3109.7971-.5969 1.893.2985 1.893 1.0944.0996 3.6809.0996 7.2623.0996 10.9432 2.8893 6.367 5.0812 12.933 7.1735 19.5985 3.0885-5.3722 6.3764-10.7444 9.6642-16.017.2989-.5969 1.0959-.8954 1.6937-.4974 1.2435.8764 2.0036 2.7179 2.6747 4.3437.243.5888.4744 1.1492.7128 1.6253 2.0922 4.3772 4.0847 8.8539 6.0773 13.3306l.0002.0003c1.4586 3.1949 3.095 6.3676 4.7308 9.539zm-36.4135-40.0807c-.3985.2239-.7971.4477-1.1956.6964.2888.1081.5906.2032.8961.2994.5376.1693 1.0864.3422 1.5947.596 0-.398-.0249-.771-.0498-1.1441s-.0498-.7461-.0498-1.1441c-.3986.2487-.7971.4726-1.1956.6964zm-16.2191 49.4257c5.0812-13.1319 11.5258-25.2634 18.5-37.5 3.6634 8.7932 6.1863 17.5926 8.7589 26.5653 1.0656 3.7167 2.1398 7.4632 3.3071 11.2512-6.5943-.1317-13.8341-.1841-20.6339-.2334-3.4738-.0251-6.8328-.0495-9.9321-.0831zm29.7468-12.6165c1.3063 4.3773 2.6125 8.7547 4.0074 13.132 6.5756 0 14.0479 0 20.524.0995-1.1956-2.7359-2.6403-5.4966-4.0849-8.2573-1.4447-2.7606-2.8893-5.5213-4.0849-8.2572-1.9926-4.5762-3.9852-9.053-5.9778-13.5298-.3488-.7462-.6975-1.5172-1.0462-2.2883-.3487-.7709-.6974-1.5419-1.0461-2.288-.0996-.199-.1993-.3979-.3985-.6964-3.1882 4.9742-6.3764 10.0479-9.465 15.1216-.0996.199-.1992.2985-.3985.398.6642 2.1886 1.3173 4.3773 1.9705 6.5659z" fill="#161637" fill-rule="evenodd"/></svg>