<svg fill="none" height="96" viewBox="0 0 96 96" width="96" xmlns="http://www.w3.org/2000/svg"><g fill="#000"><path d="m38.0001 58.5c-5.1287-2.7563-10.9077-5.8725-16.0365-8.4509 4.1726-4.2678 8.9725-9.159 12.5365-14.0491.9562-1.2448-1.0182-2.4885-1.9744-1.2437-4.0856 5.2458-8.5189 10.2248-13.4738 14.5815-.7824.7113-.5216 2.1339.3477 2.5784 5.8242 3.2008 11.6483 6.7573 17.8202 9.1579 1.8255.6224 2.4319-1.685.7803-2.5741z"/><path d="m53.6878 27.9917c-1.8677 6.8471-3.9133 13.6064-6.4037 20.2779-1.4281 3.9154-2.5975 7.8284-4.2839 11.7304-1.1493 2.6592-2.9468 5.2813-3.6317 8.0207-.3557 1.5801.7423 2.2083 1.6317.9793 3.8244-5.4425 6.2765-13.2674 8.5-19.5 2.4903-6.9349 4.1323-13.8896 6-21 .4447-1.6679-1.3677-2.264-1.8124-.5083z"/><path d="m76.653 49.2207c-5.1084-5.075-10.4811-9.9781-16.2061-14.537-1.4973-1.2042-3.4441.526-1.9468 1.8163 5.1084 4.1289 11.008 8.8551 15.5 13.5-4.8443 2.5805-10.5081 6.4034-15 9.5-1.5854 1.1182-.9313 2.2793.9183 1.5051 5.6369-2.4945 11.0096-6.0212 16.2943-9.2039 1.0569-.6021 1.233-1.8063.4403-2.5805z"/></g></svg>