<svg width="14" height="7" xmlns="http://www.w3.org/2000/svg" xmlns:xlink="http://www.w3.org/1999/xlink"><defs><path id="a" d="M0 0h13.656v6.846H0z"/></defs><g fill="none" fill-rule="evenodd"><mask id="b" fill="#fff"><use xlink:href="#a"/></mask><path d="M13.451.187A.585.585 0 0 0 13.04 0a.575.575 0 0 0-.4.186L6.868 5.457 1.026.19A.573.573 0 0 0 .615 0H.61a.573.573 0 0 0-.402.166.468.468 0 0 0-.205.35.64.64 0 0 0 .185.496L6.455 6.68a.5.5 0 0 0 .378.167c.14 0 .292-.05.44-.155l6.166-5.673a.59.59 0 0 0 .217-.482.433.433 0 0 0-.204-.349" fill="#000" mask="url(#b)"/></g></svg>