<svg height="144" viewBox="0 0 136 144" width="136" xmlns="http://www.w3.org/2000/svg"><path d="m68.9493553 146.147059c.1691528.28297.1833013.659005.2691354.991965-.2776245-.071371-.5555634-.142742-.8335022-.214428-1.6009782-.413449-3.203214-.82124-4.8007336-1.24758-.1842446-.049049-.340821-.202481-.5250655-.316612 1.9377117-1.456978 4.7774672-1.073712 5.8901659.786655zm22.5361886-.193425c-2.0169432.276052-3.7427423.512489-5.5248209.756471.7190567-2.096803 2.0807685-2.303056 5.5248209-.756471zm-14.9603109-9.506453c2.0732227-.053764 4.3102533 2.086428 4.3508123 4.162795.0267248 1.372716-1.7025328 2.924647-3.3220612 2.98124-1.5849432.055337-3.8845415-2.50365-3.8842271-4.3222.0003145-1.740577 1.0466725-2.774359 2.855476-2.821835zm-23.1751965-1.162878c1.6915284.198078 4.4498515 2.459004 4.3813101 3.591196-.1097293 1.812891-2.6894673 4.690376-4.1181485 4.593223-1.8996681-.129223-3.5814498-1.980157-3.4512839-3.799022.1660088-2.320978 1.786166-4.550148 3.1881223-4.385397zm51.2493485 2.767881c.864 1.550673.440489 2.454917-1.278079 3.1309-.693589.272908-1.227773.926567-1.894952 1.298515-.733519.408419-1.9028118 1.181869-2.2373446.932227-.8451353-.630393-1.3475633-1.733659-1.938655-2.677834-.1172751-.187074-.0169781-.509974-.017607-.770306.0216944-1.842445.8750044-2.965519 2.5828821-3.39972 1.6805245-.427913 4.1439305.337677 4.7837555 1.486218zm-40.0596367-10.084433c2.5297467.141799 4.8340611 2.007511 4.8098515 3.894288-.0229519 1.77862-2.9274759 4.04552-5.0368559 3.93076-1.6861834-.091808-3.4692052-2.239232-3.4028646-4.098655.0858341-2.399581 1.4947074-3.846183 3.629869-3.726393zm25.4182638-.616528c.4747598.22952 1.057048.354655 1.4022707.709939.7577293.780681 1.8729432 1.620472 1.9839301 2.539494.2361223 1.960663-2.8221484 5.16765-4.537572 5.189974-1.2085939.01572-3.1123494-1.996821-3.0749345-3.251005.0993537-3.368908 1.452262-4.996611 4.2263057-5.188402zm22.3390529 1.229759c2.10435.007258 4.297048 2.203101 4.247057 4.253057-.032699 1.352594-1.866026 2.910184-3.422044 2.908299-1.528663-.001888-3.913467-2.759583-3.840838-4.44105.071057-1.628332 1.288769-2.726568 3.015825-2.720306zm-68.7234023-1.221301c3.1736594.093694 4.2483144 1.002655 4.0150219 3.893659-.2219738 2.75235-1.1928734 4.081363-3.0563843 3.932018-2.5115109-.024524-4.7161572-1.83993-4.7061304-3.874166.009781-1.882061 2.0204361-4.002445 3.7474928-3.951511zm9.9197764-8.349516c1.2475808.829415 2.4957904 1.670463 3.6440175 2.627843.3524542.293659.6146725.996681.5404716 1.450375-.3467947 2.111267-1.5604192 3.65345-3.5176244 4.514306-.3313887.145886-.8828647-.157205-1.3158079-.303092-1.7163668-.578201-2.8020262-2.074166-2.6778341-3.836751-.1515458-1.867913.7027075-3.352559 2.4869869-4.298934.2471267-.130795.6665503-.269136.8397904-.153747zm22.5359372-.142208c2.1298166.033642 4.9742882 2.271301 5.4427598 4.280699.2178864.935685-.7174847 3.239371-1.6009782 3.744314-1.1564017.661205-2.1565415.468786-3.3057118-.329502-1.3560524-.942288-2.5904279-1.874201-3.2327685-3.441537-.8048909-1.964122.6599476-4.286673 2.6966987-4.253974zm27.8449467 1.243148c.835389.621904 1.792454 1.482445 1.384978 2.932821-.330445 1.177467.131109 2.722166-1.699074 3.044436-1.238463.218201-2.417817.763074-3.7373975.077974-1.1947598-.620332-2.934393-.590777-2.4967336-2.777817-.4027598-1.893379.995738-2.680663 2.4024105-3.439021 1.4057296-.758358 2.9290476-.743581 4.1458166.161607zm-72.3187179-1.231455c1.9829869-.012825 4.530655 1.864206 4.5259454 3.334704-.0069236 2.148995-2.1401987 3.890515-4.7526354 3.879562-1.949345-.008541-2.9947598-1.477152-3.0425502-4.27572-.0251528-1.470497 1.5956332-2.92779 3.2692402-2.938546zm94.1438669-.074638c.480734.285485 1.313922.523808 1.359511.867144.067913.507459-.346166 1.145398-.69296 1.628646-.930027 1.296944-1.919162 2.552385-2.916786 3.798393-.272594.340193-.658376.589835-.99228.880664-.325729-.395528-.781624-.74138-.955179-1.195074-.748611-1.962236.677555-4.979633 2.686323-5.706865.392384-.142113.880035-.020436 1.323668-.020436zm-58.0633778-6.710054c.6228471.624419 1.5968908 1.457292 1.5274061 2.099947-.1587773 1.47773-.5505328 3.068647-2.0898865 3.921957-.2719651.150917-.5184629.347109-.7809956.515319-.7740786.495511-1.5607336 1.312978-2.5108821.526008-1.0328384-.855825-2.507738-1.488733-2.4863581-3.383685.4646987-1.123389.7486114-2.375057 1.4333974-3.342498 1.2343755-1.744664 3.4126113-1.836157 4.9073188-.337048zm21.4404366-.466459c2.5508123-.026097 4.4375896 1.672978 4.4530488 4.010305.0115801 1.795284-1.8887169 3.784559-3.6475291 3.818515-2.1499389.040874-4.8038777-2.029205-4.7831266-3.731738.0289257-2.409641 1.6440524-4.073187 3.9776069-4.097082zm23.4041822-.617441c2.45303.00346 4.625921 2.203704 4.587563 4.64573-.023267 1.479302-1.920734 3.167372-3.583651 3.187179-2.127301.026097-4.227878-2.21848-4.184175-4.470917.034586-1.787423 1.525835-3.363877 3.180263-3.361992zm-92.0509944-.542263c1.380262.359372 2.7768734.814638 4.0096769 1.507284.5250655.294917.6530305 1.297887.9611528 1.9789-.2254323 2.23483-1.3981834 4.069729-3.1139214 4.634725-1.872.616873-4.2873013-.100297-5.5216768-1.639651-.7514411-.936629-.7571005-3.015825-.0119476-4.318113.7964017-1.391581 2.4605764-2.479441 3.6767161-2.163145zm23.2593013.535646c2.1087511.005675 3.9251005 1.68274 3.9458516 3.642147.0185502 1.795912-1.0900612 2.960803-2.8259214 2.967453-2.4602621.009699-4.2970481-1.488152-4.3460961-3.543453-.0396157-1.68304 1.4208209-3.071476 3.2261659-3.066147zm56.3365731-7.240763c2.908926-.044018 4.332891.859912 4.864873 2.905152.446463 1.716367-1.328384 4.191721-3.094428 4.317171-2.7451176.194305-5.1767683-2.774673-4.4724888-5.43773.4187947-1.584 1.5223755-1.970724 2.7020438-1.784593zm-92.29315299-1.228497c2.0848559.034271 4.75388649 2.079826 5.38019219 4.123494.2747947.897642-.5590219 3.202585-1.4572926 3.792734-1.1758952.772506-2.18892579.540157-3.4251878-.227948-1.50728384-.936-2.43856768-2.095546-3.0871965-3.696838-.78854149-1.946201.4860786-4.025712 2.58948471-3.991442zm116.04739899-.001836c2.18138.006616 4.982463 2.197428 5.429869 4.247698.222917 1.023721-.647371 3.219878-1.564821 3.755005-1.227458.716227-2.226969.373834-3.426445-.412192-1.462323-.958323-2.623127-2.016-3.215476-3.644332-.669695-1.841502.833502-3.95214 2.776873-3.946179zm-43.1702566 1.912509c1.343476.950463.4596681 2.06379.1091004 3.195039-.5470742 1.76793-2.0886288 2.349904-3.4321048 3.14662-.846393.502428-3.2412576-1.152943-3.5676157-2.349904-.4911092-1.801572.2889432-4.182917 1.8119476-5.182428.5932926-.38924 1.3441048-.539214 2.0232314-.797973 1.7550393-.308437 2.135476 1.338445 3.0554411 1.988646zm-27.3221764-1.885237c1.6028646.110987 4.5488908 2.590428 4.4347598 3.732053-.1820437 1.816663-2.7378865 4.571842-4.1172053 4.438218-1.7710742-.171668-3.5559825-2.179493-3.4402794-3.870079.1493449-2.17572 1.7603842-4.394515 3.1227249-4.300192zm-20.9967092.591721c3.1739738.217886 3.9269869.706166 4.3225153 3.347214.0924366.61593-.003773 1.445974-.3606289 1.910043-1.1171004 1.452262-2.7759301 2.069765-4.5378864 1.903127-1.620786-.152803-2.7312839-1.343476-3.2638952-2.811773-.8328734-2.293939 1.0441572-4.34138 3.8398952-4.348611zm81.5654042-8.5019111c1.477729.823441 2.871197 3.6116332 2.628786 5.2588297-.279825 1.8974674-1.047301 2.5690484-3.275843 2.6121224-.219144-.055651-.744838-.116332-1.209851-.317869-1.855336-.803319-3.210446-4.1420438-2.473153-6.0096421.830358-2.1037205 2.35179-2.6460786 4.330061-1.543441zm-44.5119719 4.290917c.0402445 1.6883841-2.0248035 3.5515811-3.9197555 3.5713891-1.9094148.020122-3.8710218-1.870428-3.9012052-3.7603498-.0380437-2.347703 1.1862707-3.4075808 3.9901834-3.4553712 2.1876681-.1568908 3.7729258 1.2214848 3.8307773 3.6443319zm19.7702253-3.6430113c2.1688035.0440174 4.4171529 1.8040873 4.3709345 3.4217292-.0591092 2.0968032-2.1634585 3.7980782-4.6891179 3.7914952-1.9399126-.005364-3.1607685-1.759775-3.0846812-4.4338358.0418166-1.4689258 1.6886987-2.8146026 3.4028646-2.7793886zm-63.932007 2.9543266c.0449607 1.7072489-1.9119301 3.5761048-3.8235458 3.6437028-1.8899214.066655-3.9364192-1.810061-3.9948996-3.6641395-.0732576-2.3184629 1.2246288-3.4940436 3.9156681-3.5459214 2.0461834-.2446113 3.838952 1.1387948 3.9027773 3.5663581zm22.2510498.5202865c.0374149 1.6836683-1.740262 3.0148823-4.1140611 3.0815373-1.6456245.046218-3.4585153-1.851878-3.5028472-3.6672841-.0619388-2.5432663 1.3387598-4.0722445 3.780786-4.1269519 2.5118254-.0565939 3.7644367 1.4824454 3.8361223 4.7126987zm90.0053138-4.0417782c-.094009.6762969-.165695 1.3569956-.286743 2.0288908-.248069 1.3764891-.504628 2.7517206-.793257 4.1197207-.170725.810236-.597066 1.080943-1.263302.412821-.888209-.891354-1.772017-1.7955984-1.534952-3.2340264-.119476-.0748297-.238951-.1496594-.358427-.2244891.575056-.8441921 1.005799-1.8716856 1.771388-2.4734672.609642-.4797904 1.628332-.4392315 2.465293-.6294498zm-35.505936-8.3355249c1.149485.2364367 2.633503 1.7610131 2.862708 2.9180437.404332 2.0436681-2.853275 5.3943406-4.58662 5.3097642-1.3337295-.0653974-3.0045068-2.2684716-2.9334501-3.8691354.1361398-3.0809083 1.8518778-4.9356157 4.6573621-4.3586725zm-48.6429166-.167455c1.5424978.1380262 4.45331 2.3907773 4.4536245 3.4468821.0006287 1.8339563-2.6498516 4.8067074-4.1926638 4.7023231-1.5723669-.1065851-3.5078778-1.9216768-3.4626027-3.2475458.0899214-2.6297293 1.6635459-5.0387424 3.201642-4.9016594zm-21.7543442-.0045275c2.9928734.2685065 4.2630918 1.9427423 4.5218516 4.6381834.1248209 1.2982009-2.0647336 3.1224105-3.5911965 3.1708297-1.9958778.0635109-4.1775721-2.1813799-4.1791455-4.2995633-.0015707-2.0876856 1.3796346-3.6770306 3.2484904-3.5094498zm92.7512808-.0236751c2.624384.0468471 5.028052 1.945572 4.9331 3.8971179-.082376 1.698131-2.88786 3.9332751-4.923354 3.9229355-1.669519-.0085251-3.597484-2.2914595-3.516052-4.163774.106585-2.4621484 1.289712-3.6958952 3.506306-3.6562794zm-116.0675218.0012262c2.5948297.0512489 5.0481747 2.0062532 4.9252402 3.924786-.1084716 1.6962445-2.9312489 3.9081223-4.96705679 3.8927161-1.71668123-.0132052-3.53586027-2.2178515-3.45694324-4.1895196.09872489-2.4712664 1.2570131-3.6723144 3.49875983-3.6279825zm73.6032105 2.9222882c.1103581.2782533.163179.5788297.2427249.869345.1031266 2.1650305-1.816035 2.7161921-2.9938166 3.812227-.1506026.1399127-.5841747.0326987-.8677729-.0361572-2.3222359-.5659388-3.6993538-2.1436506-4.4470219-4.3149694-.3188122-.9262533 1.3975546-2.9265328 2.658655-3.2060437 2.0430393-.4527511 4.62938.9174498 5.4072315 2.8755983zm-13.2717695-8.2757869c1.4041573 1.0375546.3766638 2.0059388-.05062 3.1054323-.4272839 1.0985502-1.0840874 1.8185502-2.0452402 2.3785153-.8652577.5043144-1.6022358 1.4704978-2.7863057.7058515-1.7990568-1.1608035-2.2876506-2.093345-1.8584803-3.9414498.217572-.9378864.5234934-1.9024978 1.0171179-2.7171353.6341659-1.0466725 1.483703-1.3318428 2.8831441-1.3035459 1.5252052-.5102882 1.9175895 1.09069 2.8403842 1.7723319zm70.9405308-.4529712c-.290515 1.8924367-.441432 3.8191441-.920908 5.6612751-.138969.5341834-1.19759 1.157345-1.838358 1.161769-1.193502.007838-2.718393-2.0631838-2.524087-3.2683192.17827-1.1067249.421938-2.2571529.922794-3.2428297.577258-1.1369083 1.5469-1.9653799 3.072734-1.6220437 1.152629-.3329607 1.452262.2386376 1.287825 1.3101485zm-93.5884609-.4358044c2.0402096 1.944 1.8707424 4.1870044-.444262 5.8342009-.4235109.3015197-.8196681.6904454-1.2922271.8614847-.6784978.2452402-1.6481397.6869869-2.0810829.4068472-1.0265503-.6637205-2.2999127-1.3403319-2.2681572-3.5478079.2612751-.6866725.5445589-2.0455546 1.2460087-3.1359301 1.1422533-1.7751616 3.3201747-1.866655 4.8397205-.4187948zm66.2119549-1.1819947c2.703301.3323318 3.995842 2.7771877 2.990043 5.1519301-.539214 1.273048-1.425222 1.9430568-2.430393 2.6338166-1.591545 1.0932052-4.312768.0270393-4.457083-1.9006114-.131423-1.7584978.162236-3.5886812 1.656629-4.8224279.618131-.5102882 1.486533-.7174847 2.240804-1.0627074zm-22.4805068-.0503686c.0672838.1179039.1351965.2358079.2031091.3537118 1.606952-.438917 2.040524 1.0872314 2.9479127 1.78931 1.3783755 1.0674236.2741659 2.0326638-.1153887 3.1261835-.4656419 1.3063755-1.4381135 1.9424279-2.4624628 2.6275283-1.5431267 1.0318952-4.5551791-.3527685-4.4221834-2.2106201.1024978-1.4315109.667179-2.9312489 1.4044716-4.1769432.432-.7297467 1.6047511-1.0205764 2.4445415-1.5091703zm-68.2039022.0448349c2.670917.3326463 4.0364017 2.8834586 2.9504279 5.1569607-.5747423 1.2035634-1.3849782 1.973869-2.4344803 2.6558254-1.596262 1.0369257-4.4712315-.184559-4.5105328-2.0946026-.0336419-1.6481398.2354935-3.3950044 1.6396507-4.5482621.6599476-.542358 1.5623056-.7891703 2.3549345-1.1699214zm103.07869-7.156234c3.254463.0553362 4.094253.8353886 4.103406 3.8125415.007511 2.3885764-1.213345 4.0461484-2.974358 4.0386282-2.42945-.0104012-4.754515-1.8484448-4.828087-3.8169688-.066655-1.7779913 2.028262-4.0624979 3.699039-4.0342009zm-46.255504-.4419039c.9095895.0339563 3.0620437 2.2068471 3.0412926 3.0702183-.0490481 2.065048-2.8787424 5.213869-4.6413275 5.1645065-1.475214-.0415021-2.9922446-2.0115982-2.9290481-3.8034235.1078428-3.0560699 1.624559-4.539773 4.529083-4.4313013zm-65.7027983 3.7097607c-.0100611 2.2848209-1.34662 4.0263406-3.06707419 3.9961572-2.45554586-.0427599-4.73565066-1.912559-4.7441597-3.8898865-.00721148-1.768559 1.95219463-3.9464804 3.5802121-3.979179 3.09191269-.0631965 4.24359829.9910218 4.23102179 3.8729083zm88.3783653-3.8895067c1.913188-.0115728 4.03986 1.6610909 4.077589 3.2070473.050935 2.0694497-1.937397 4.6476157-3.594969 4.662393-2.0408385.017607-4.2285067-2.2709869-4.1844892-4.3775371.0364716-1.7352315 1.8877205-3.4808385 3.7018692-3.4919032zm-47.655857-.4975885c1.6085241.1163318 4.529083 2.4615196 4.457083 3.5798777-.1119301 1.7437205-2.6325589 4.6293799-4.0118777 4.5925939-1.6531703-.0437031-3.6697991-2.0713363-3.5729607-3.5921398.1609781-2.5272314 1.6365065-4.6878602 3.1277554-4.5803318zm-17.6123004 2.3345607c.5574498.4316855.8558253 1.1982183 1.0551616 1.4925065.0257816 1.763214-1.2227424 3.2557205-2.7139913 3.7150742-1.6924716.5212926-3.9656594-.2553013-4.9953537-1.7063056-1.4079301-1.9848734-.4675284-4.0609258 1.9713537-4.5624105 1.7603843-.3622009 3.3214323.0066026 4.6828297 1.0611354zm102.0384944-9.1091005c1.254498.6338515 1.619214 1.4491179 1.559476 2.6897817-.019494.4150218-.075773.870917.060996 1.2438078.588576 1.6066376-.470359 2.291738-1.583372 2.9378516-1.166463.6769257-2.320663.4524366-3.094428-.5404716-.825642-1.0595634-1.392838-2.3209782-2.072908-3.4940437l.368489-.2137991c.076402-2.8322097 2.208734-3.9122097 4.761747-2.6231267zm-72.0962411-.9941345c1.2774498.0314411 3.6688559 1.9204192 3.6764637 2.9048384.0156585 1.977642-2.9624375 5.3292577-4.7071013 5.2981311-1.3463057-.0242097-3.0658166-1.9867599-3.0120524-3.4377642.1172751-3.1654848 1.5264629-4.8262009 4.04269-4.7652053zm49.8109201.8800035c2.110324 1.9175895 1.927337 4.3388646-.451179 5.9533625-.387668.2631615-.747353.6332227-1.176209.7545851-.742009.2093974-1.76007.6206463-2.246463.305607-.974358-.6313362-2.22131-1.2815371-2.436681-2.874655.39993-1.2026201.595808-2.532262 1.244436-3.580821 1.189415-1.9223057 3.400664-2.0713362 5.066096-.5580786zm-26.2875769-.510634c2.0829694.020751 3.766952 1.1403668 4.2322795 2.8124017.3455371 1.2425502-.3694323 2.9922445-1.6343057 3.9342183-1.097607.8177817-2.2417467.6285066-3.3745677.0817468-1.3271266-.6407686-2.22131-1.6113537-2.5288035-3.1211529-.505572-2.4822707.5804018-3.7348821 3.3053974-3.7072139zm-68.179441-.2215022c1.4742707.7388646 3.5805065 1.0551615 3.6220087 3.5827074-.0135197 1.134393-2.0785677 3.4283319-3.5981135 3.8172576-1.2670743.3238428-2.7036158-.5671965-3.5820786-2.22131-.9124193-1.7185677-.6895022-3.8678777.5106026-4.9180087.0393013-.0345852.0798602-.0892926.1235633-.0930655.9878777-.0864629 2.1666026-.5470743 2.9240175-.1675808zm23.3772052-.3849014c2.0974323-.0003144 3.8122271 1.1196158 4.2851004 2.7985677.6615197 2.3502184-1.8025152 4.9626551-4.1543056 4.3344629-1.3334149-.3559126-2.4571179-1.0818864-3.069904-2.4253624-1.2328035-2.704559.0097468-4.7067249 2.9391092-4.7076682zm-31.8270812-4.5688873c-.0465328 2.1206987-1.9160175 4.5073887-3.55409609 4.5372577-1.79119651.0323842-4.19643668-2.0766813-4.22630568-3.7062708-.03835808-2.1078078 1.63650655-4.0275982 3.59937118-4.1244367 1.91633189-.0949519 4.21561569 1.7163669 4.18103059 3.2934498zm112.7161569-3.2931668c1.959092.0509345 4.033572 1.7751616 3.978865 3.3069694-.077345 2.1710044-1.890865 4.4891529-3.538061 4.5227948-1.987703.040559-4.262149-2.1596856-4.263722-4.1244367-.001571-1.9078428 1.904386-3.7550043 3.822918-3.7053275zm-20.413729 3.3088559c.651773 2.1326463-1.351022 4.6655371-3.563528 4.5073887-1.7899392-.1279651-3.4864982-1.5729957-3.9037209-3.3242621-.5794585-2.4335371.4939389-3.835179 2.9799829-3.8908296 2.286393-.0509345 3.951196.9536069 4.487266 2.707703zm-51.4729257-3.8500192c1.6500262.1465153 4.4643144 2.4269345 4.4055196 3.5695022-.0921223 1.7930829-2.6907249 4.7347074-4.105572 4.6473013-1.9207337-.1185328-3.5959127-2.0354935-3.4563145-3.9549694.1603494-2.2046463 1.7751616-4.3841398 3.1563669-4.2618341zm-20.7423197-.0677555c1.88269-.0433886 4.0285415 1.6349345 4.0860786 3.1956682.0767162 2.0804541-1.8848908 4.6259214-3.5732751 4.6369808-1.9304803.0125213-4.1794585-2.1314437-4.2093275-4.0131905-.0314411-1.9716681 1.7125939-3.7738689 3.696524-3.8194585zm44.0260507.616332c2.0603318-.0143931 4.303965 2.2220086 4.267179 4.2540436-.0238952 1.3400174-1.6704629 2.7951092-3.2475458 2.8705677-1.6211005.0776594-3.9304455-2.3854323-3.9593712-4.2228472-.0279826-1.7732751 1.1016943-2.8884891 2.939738-2.9017641zm-54.5190289-7.9577538c.3728909.2675633.7530131.533869 1.1601747.7420087 2.3307249 1.1916158 2.6375895 3.9568559.5370131 5.535511-.70931.5332401-1.613869.8070917-2.4706375 1.2195982-.7460961-.2870568-1.4148472-.4285415-1.9543756-.7731354-1.986131-1.2670742-2.9155284-4.0744454-1.9666375-5.7386201.8875807-1.5569607 3.2217642-2.042096 4.6944628-.9853624zm95.0219216 3.8082969c.066969 1.761642-1.95752 3.4937293-3.942079 3.498139-1.976698.0043938-3.878882-1.8217023-3.890201-3.7342612-.013519-2.2995983 1.293485-3.4321048 4.021939-3.484297 2.34393-.049048 3.722306 1.4060437 3.810341 3.7204192zm-47.7636368-.4353641c-.0286114 2.4505152-1.1884717 3.9480524-3.04538 3.931703-2.4709519-.0213799-4.772751-1.8899214-4.7570305-3.8615895.0135196-1.7352315 2.0339214-3.9502533 3.6210655-3.9697467 3.181834-.0396158 4.2159301.9249956 4.181345 3.8996332zm19.247958-3.3022533c2.3609083.0336419 4.26938 1.5761397 4.2979913 3.4729781.0273537 1.8455896-1.7324017 3.7694673-3.4390218 3.7591335-2.3442446-.0141902-4.3341485-2.0135265-4.3640175-4.3844959-.0260961-2.0801397.9633537-2.8837729 3.505048-2.8476157zm47.7500538.1848733c.536699 2.0537293.914935 4.1489607 1.426795 6.5488559-.333904.1480874-.746096.5112315-1.060192.4401747-2.096489-.4735022-2.889747-2.2049607-3.602201-3.9644017-.540471-1.3349869.289887-2.3282096 1.015546-3.2469171.708996-.8973275 1.963179-.7608733 2.220052.2222882zm-91.4310389-.3307912c.1424279.0644541.2813974.1364541.425083.1971353 2.335441.988821 3.092227 1.8273538 2.8504454 3.1613974-.353083 1.9502882-2.0182009 3.2563494-4.2891878 3.3651354-1.3019738.0622533-2.6080349-.9102183-3.2500611-2.6507948-.4650131-1.2601572-.4863931-2.5803668.5244366-3.6672838.9441747-1.0155459 2.1464804-1.1255895 3.7392839-.4055895zm56.2158079-8.094435c2.298969.1685241 4.653589 1.8264105 4.512419 3.1768035-.256873 2.451773-2.099633 3.9738341-4.595738 3.7958778-2.0288907-.1449433-3.8229169-1.8688559-3.7015544-3.5566114.1465153-2.0420961 1.8276681-3.559441 3.7848734-3.4160699zm23.207958-.2227912c2.106236-.0257817 4.274411 2.0952314 4.263136 4.1712838-.007905 1.4267948-1.624918 2.8988646-3.269913 2.9768384-1.495022.0707424-3.910952-2.5423231-3.937363-4.2590043-.026725-1.7412053 1.120245-2.8667948 2.94414-2.8891179zm-71.0503231-1.1739144c1.6626026.0996681 4.5438602 2.5008209 4.4353886 3.6958952-.1600349 1.7603842-2.6882096 4.5888209-4.0508646 4.5319126-1.7635284-.0745153-3.6386725-2.0864279-3.5179389-3.775441.166952-2.3351267 1.7169957-4.5375721 3.1334149-4.4523668zm24.5942253.5524494c2.0420961-.0015708 3.3456419 1.4623244 3.2969083 3.7021846-.0471616 2.1703756-1.5739389 3.5732751-3.749345 3.4453101-2.7300262-.1606638-3.7880174-1.169607-3.7537467-3.580821.0251528-1.757869 2.1559127-3.5654148 4.2061834-3.5666737zm-46.5374672.0400257c.2071965-.0025153.4150218.0276681.6222183.0424454 1.7364891-.0798603 3.1180087.7750218 4.2149869 1.9408559.3974148.4225677.3213275 1.4252227.2386376 2.1373624-.1811005 1.5601048-1.2406638 2.7721572-2.639476 2.9054673-1.1230743.1072139-2.4514585-.5854323-3.4742358-1.252297-.6957904-.4536943-1.1708647-1.4198777-1.4827599-2.2546375-.8457642-2.2653275.0776594-3.4902708 2.5206289-3.5191965zm36.1856908-6.5811459c1.0032838 1.043214 1.4497467 2.621869 2.2162795 4.1310393-.5615372.9636681-.8435634 2.0254323-1.5305503 2.4979913-1.1532576.7929432-2.5649607.7825677-3.8339214-.0103756-1.3145502-.8212401-2.5806812-3.7364541-2.1848384-5.2188995.2958603-1.1064105.7835109-2.4583756 1.9905328-2.518428 1.1205589-.055965 2.6045764.3518254 3.3424978 1.1186725zm46.7817332-1.1918043c1.112698.2725938 1.82358.8856943 2.067248 2.0461834.133625.6369956.401817 1.2450655.595494 1.8701135.494882 1.5968908-1.102638 3.4343057-3.259808 3.7408559-.255301.0364716-.51972.0050306-.656489.0050306-1.978271.259703-2.634131-1.2315459-3.419214-2.3888909-.660262-.9731004-.309066-3.5006463.593293-4.2674934 1.147912-.9753013 2.534777-1.3843494 4.079476-1.0057991zm-25.1806957-.1277765c2.6636856.2839127 3.4714062.4033887 4.0401747 2.1587424 1.0215197 3.1519651-.2093974 4.2102707-3.5468646 4.999441-2.0477555.4841922-4.3256594-1.4437729-4.5165066-3.5468646-.1804716-1.993048 1.6144979-3.6047161 4.0231965-3.6113188zm-69.7416209-.6176908c2.3332402.029869 5.1736244 2.1914411 5.1723672 3.9361048-.0009436 1.3944105-3.0488388 3.886428-4.7630048 3.8949475-1.9383406.0094019-3.5581834-2.1694628-3.6084891-4.8542139-.0282969-1.5223755 1.5569607-2.9979039 3.1991267-2.9768384zm25.4436681.6118742c.5624804.1726114 1.5698515.3197555 2.4105852.7743931 1.6481397.8913537 1.9006113 2.1587423.9448035 3.7873886-.6989345 1.1906725-2.5630743 2.1489956-3.7955634 1.9814148-1.8569083-.2531004-3.2506899-1.2293449-3.8729083-2.9551441-.6511441-1.8053449 1.3183232-3.5317729 4.313083-3.5880524zm57.0928245-8.3512139c1.099493.6002096 2.548926 3.3277205 2.522515 4.5718428-.055965 2.6665152-2.574707 4.0656419-4.8812225 2.7111615-1.4195633-.8335022-2.8017118-3.9436506-2.2549519-5.4707423.8605415-2.4039826 2.0213449-3.2264804 4.6136594-1.812262zm-67.7279791.4919266c1.0237205 1.0296943 1.5101136 2.5942009 1.9201048 3.3377817-.0581659 3.3097991-2.114096 4.644786-4.4696594 3.6481048-1.7358602-.7347773-3.2406288-4.0599826-2.6382183-5.8291703.8753188-2.5709345 3.1635982-3.1922096 5.1877729-1.1567162zm46.6145922.9211913c.2537292.2546725.4876506.6715808.4873365 1.0139738-.0018868 2.1156681-2.9060964 5.352524-4.675913 5.2795808-1.4569781-.0600524-2.9686637-2.1357904-2.8988646-3.9807511.0883494-2.3388996 1.7317729-4.3162271 3.3538166-4.4162096 1.7915109-.1103581 2.6963843 1.0614497 3.7336245 2.1034061zm-27.4898201-2.1046952c1.7006463.1905327 4.4825502 2.4772401 4.4020611 3.619179-.1329956 1.8855197-2.670917 4.6435284-4.1854323 4.5479476-1.847476-.1166463-3.5091354-1.9452576-3.3830568-3.7219913.1644367-2.3168908 1.7899389-4.5988821 3.166428-4.4451353zm11.9979039-7.2888364c1.9943057.0132835 4.0486638 1.6828032 3.9989869 3.2501394-.072 2.2681572-1.9839301 4.6479302-3.6845764 4.5853625-1.9779563-.0729433-4.1517904-2.3404716-4.120035-4.2979913.0304979-1.8905502 1.8163494-3.5506375 3.8056245-3.5375106zm24.8458795.3586634c.1417991.0647686.2685065.1628647.4112489.2244891 2.5372926 1.0957206 3.1551092 1.780821 2.9230742 3.2478603-.3024629 1.9119301-1.9990218 3.2343406-5.1327511 3.4066375-1.0617642-.013834-1.6877554-1.5333799-2.3719126-2.8105152-.6674935-1.2460088-.4269695-2.5794236.5668821-3.6169782 1.0381834-1.0840873 2.3090305-1.0451004 3.6034585-.4514935zm20.2228816 4.5711197c1.351022.5973799 2.702044 1.1944454 4.221276 1.8663406-1.799686.7580437-3.37111.1157031-4.221276-1.8663406zm-62.1802056-1.3997869c.0386725 1.3720873-1.6239302 2.8715109-3.3145153 2.9894148-1.4179913.0987249-3.8486987-2.4709519-3.9307598-4.1555633-.0845765-1.7298864 1.06931-2.9136419 2.8963493-2.9718078 2.1122096-.0669695 4.2885589 2.003738 4.3489258 4.1379563zm5.0510987-12.59204542c1.5758253.09149345 4.5124192 2.41875983 4.4706026 3.54309171-.0729433 1.96097816-2.6687162 4.74979911-4.2844716 4.60328381-1.9201048-.1748122-3.4044367-1.9669519-3.275214-3.95559822.1339388-2.06316158 1.7591266-4.26780786 3.089083-4.1907773zm-18.5130865 1.29782358c.8812926.55902184.8856943 1.38057642.5703406 2.20275983-.407476 1.06270742-.7297467 2.25558081-1.4513188 3.07210481-.653345.7401223-1.7930829 1.0510742-2.718393 1.5509869-1.441572-.3266725-2.3536768-.9485764-2.8023406-2.1156681-.3691179-.96052405.3631441-2.68946728 1.2629869-3.24786029.8319301-.51626201 1.7569258-.9240524 2.4810131-1.56136245.9932227-.87437554 1.7902533-.45086463 2.6577118.0990393zm41.8680943-.70116836c2.1625153.00789325 4.3052227 2.12953518 4.2621485 4.2213081-.0270393 1.3224105-1.859738 2.8856594-3.4173275 2.915214-1.4893625.0279825-3.8251179-2.70424457-3.7927337-4.43664631.0317555-1.72171179 1.1073538-2.70644542 2.9479127-2.69987579z" fill="#f7aa01" fill-rule="evenodd" transform="translate(-4 -4)"/></svg>