<svg height="454" viewBox="0 0 429 454" width="429" xmlns="http://www.w3.org/2000/svg"><path d="m219.297255 464.828841c.538.9.583 2.096.856 3.155-.883-.227-1.767-.454-2.651-.682-5.092-1.315-10.188-2.612-15.269-3.968-.586-.156-1.084-.644-1.67-1.007 6.163-4.634 15.195-3.415 18.734 2.502zm71.6776-.6152c-6.415.878-11.904 1.63-17.572 2.406 2.287-6.669 6.618-7.325 17.572-2.406zm-33.7441-16.9958c.085 4.366-5.415 9.302-10.566 9.482-5.041.176-12.355-7.963-12.354-13.747.001-5.536 3.329-8.824 9.082-8.975 6.594-.171 13.709 6.636 13.838 13.24zm-87.548-16.9386c5.38.63 14.153 7.821 13.935 11.422-.349 5.766-8.554 14.918-13.098 14.609-6.042-.411-11.391-6.298-10.977-12.083.528-7.382 5.681-14.472 10.14-13.948zm163.0014 8.8034c2.748 4.932 1.401 7.808-4.065 9.958-2.206.868-3.905 2.947-6.027 4.13-2.333 1.299-6.052 3.759-7.116 2.965-2.688-2.005-4.286-5.514-6.166-8.517-.373-.595-.054-1.622-.056-2.45.069-5.86 2.783-9.432 8.215-10.813 5.345-1.361 13.18 1.074 15.215 4.727zm-127.4119-32.0741c8.046.451 15.375 6.385 15.298 12.386-.073 5.657-9.311 12.867-16.02 12.502-5.363-.292-11.034-7.122-10.823-13.036.273-7.632 4.754-12.233 11.545-11.852zm80.8442-1.9609c1.51.73 3.362 1.128 4.46 2.258 2.41 2.483 5.957 5.154 6.31 8.077.751 6.236-8.976 16.436-14.432 16.507-3.844.05-9.899-6.351-9.78-10.34.316-10.715 4.619-15.892 13.442-16.502zm71.0506 3.911315c6.693.023085 13.667 7.007085 13.508 13.527085-.104 4.302-5.935 9.256-10.884 9.250006-4.862-.006006-12.447-8.777006-12.216-14.125006.226-5.179 4.099-8.672 9.592-8.652085zm-218.5786-3.884415c10.094.298 13.512 3.189 12.77 12.384-.706 8.754-3.794 12.981-9.721 12.506-7.988-.078-15-5.852-14.968109-12.322.031109-5.986 6.426109-12.73 11.919109-12.568zm31.5504-26.5561c3.968 2.638 7.938 5.313 11.59 8.358 1.121.934 1.955 3.17 1.719 4.613-1.103 6.715-4.963 11.62-11.188 14.358-1.054.464-2.808-.5-4.185-.964-5.459-1.839-8.912-6.597-8.517-12.203-.482-5.941 2.235-10.663 7.91-13.673.786-.416 2.12-.856 2.671-.489zm71.6768-.4523c6.774.107 15.821 7.224 17.311 13.615.693 2.976-2.282 10.303-5.092 11.909-3.678 2.103-6.859 1.491-10.514-1.048-4.313-2.997-8.239-5.961-10.282-10.946-2.56-6.247 2.099-13.634 8.577-13.53zm88.5624 3.9539c2.657 1.978 5.701 4.715 4.405 9.328-1.051 3.745.417 8.658-5.404 9.683-3.939.694-7.69 2.427-11.887.248-3.8-1.973-9.333-1.879-7.941-8.835-1.281-6.022 3.167-8.526 7.641-10.938 4.471-2.412 9.316-2.365 13.186.514zm-230.0137-3.91671c6.307-.04079 14.41 5.92921 14.395021 10.60621-.022021 6.835-6.807021 12.374-15.116021 12.339165-6.2-.027165-9.525-4.698165-9.677-13.599165-.08-4.677 5.075-9.312 10.398-9.34621zm299.4298-.23739c1.529.908 4.179 1.666 4.324 2.758.216 1.614-1.101 3.643-2.204 5.18-2.958 4.125-6.104 8.118-9.277 12.081-.867 1.082-2.094 1.876-3.156 2.801-1.036-1.258-2.486-2.358-3.038-3.801-2.381-6.241 2.155-15.838 8.544-18.151 1.248-.452 2.799-.065 4.21-.065.199-.268.398-.535.597-.803zm-184.6738-21.3417c1.981 1.986 5.079 4.635 4.858 6.679-.505 4.7-1.751 9.76-6.647 12.474-.865.48-1.649 1.104-2.484 1.639-2.462 1.576-4.964 4.176-7.986 1.673-3.285-2.722-7.976-4.735-7.908-10.762 1.478-3.573 2.381-7.554 4.559-10.631 3.926-5.549 10.854-5.84 15.608-1.072zm82.355669 11.2714c.036831 5.71-6.007169 12.037-11.601169 12.145-6.838.13-15.279-6.454-15.213-11.869.092-7.664 5.229-12.955 12.651-13.031 8.113-.083 14.114 5.321 14.163169 12.755zm60.275131-14.718805c7.802.011005 14.713 7.009005 14.591 14.776005-.074 4.705-6.109 10.074-11.398 10.137-6.766.083-13.447-7.056-13.308-14.22.11-5.685 4.853-10.699 10.115-10.693005zm-292.7733-1.724695c4.39 1.143 8.832 2.591 12.753 4.794 1.67.938 2.077 4.128 3.057 6.294-.717 7.108-4.447 12.944-9.904 14.741-5.954 1.962-13.636-.319-17.562-5.215-2.39-2.979-2.408-9.592-.038-13.734 2.533-4.426 7.826-7.886 11.694-6.88zm73.9775 1.703651c6.707.018049 12.484 5.352049 12.55 11.584049.059 5.712-3.467 9.417-8.988 9.43815-7.825.03085-13.667-4.73315-13.823-11.27015-.126-5.353 4.519-9.769 10.261-9.752049zm179.1816-23.029651c9.252-.14 13.781 2.735 15.473 9.24 1.42 5.459-4.225 13.332-9.842 13.731-8.731.618-16.465-8.825-14.225-17.295 1.332-5.038 4.842-6.268 8.594-5.676zm-293.5435-3.9073c6.631.109 15.12 6.615 17.112 13.115.874 2.855-1.778 10.186-4.635 12.063-3.74 2.457-6.962 1.718-10.894-.725-4.794-2.977-7.756-6.665-9.819-11.758-2.508-6.19 1.546-12.804 8.236-12.695zm369.0952-.00584c6.938.02104 15.847 6.98904 17.27 13.51004.709 3.256-2.059 10.241-4.977 11.943-3.904 2.278-7.083 1.189-10.898-1.311-4.651-3.048-8.343-6.412-10.227-11.591-2.13-5.857 2.651-12.57 8.832-12.55104zm-137.3054 6.08284c4.273 3.023 1.462 6.564.347 10.162-1.74 5.623-6.643 7.474-10.916 10.008-2.692 1.598-10.309-3.667-11.347-7.474-1.562-5.73.919-13.304 5.763-16.483 1.887-1.238 4.275-1.715 6.435-2.538 5.582-.981 6.792 4.257 9.718 6.325zm-86.8997-5.9961c5.098.353 14.468 8.239 14.105 11.87-.579 5.778-8.708 14.541-13.095 14.116-5.633-.546-11.31-6.932-10.942-12.309.475-6.92 5.599-13.977 9.932-13.677zm-66.7812 1.882c10.095.693 12.49 2.246 13.748 10.646.294 1.959-.012 4.599-1.147 6.075-3.553 4.619-8.829 6.583-14.433 6.053-5.155-.486-8.687-4.273-10.381-8.943-2.649-7.296 3.321-13.808 12.213-13.831zm259.4233-27.0408c4.7 2.619 9.132 11.487 8.361 16.726-.89 6.035-3.331 8.171-10.419 8.308-.697-.177-2.369-.37-3.848-1.011-5.901-2.555-10.211-13.174-7.866-19.114 2.641-6.691 7.48-8.416 13.772-4.909zm-141.5728 13.6475c.128 5.37-6.44 11.296-12.467 11.359-6.073.064-12.312-5.949-12.408-11.96-.121-7.467 3.773-10.838 12.691-10.99 6.958-.499 12 3.885 12.184 11.591zm62.8803-11.5868c6.898.14 14.049 5.738 13.902 10.883-.188 6.669-6.881 12.08-14.914 12.059061-6.17-.017061-10.053-5.597061-9.811-14.102061.133-4.672 5.371-8.952 10.823-8.84zm-203.3393 9.3964c.143 5.43-6.081 11.374-12.161 11.589-6.011.212-12.52-5.757-12.706-11.654-.233-7.374 3.895-11.113 12.454-11.278 6.508-.778 12.21 3.622 12.413 11.343zm70.7707 1.6548c.119 5.355-5.535 9.589-13.085 9.801-5.234.147-11-5.89-11.141-11.664-.197-8.089 4.258-12.952 12.025-13.126 7.989-.18 11.973 4.715 12.201 14.989zm286.2669-12.8551c-.299 2.151-.527 4.316-.912 6.453-.789 4.378-1.605 8.752-2.523 13.103-.543 2.577-1.899 3.438-4.018 1.313-2.825-2.835-5.636-5.711-4.882-10.286l-1.14-.714c1.829-2.685 3.199-5.953 5.634-7.867 1.939-1.526 5.179-1.397 7.841-2.002zm-112.9286-26.5116c3.656.752 8.376 5.601 9.105 9.281 1.286 6.5-9.075 17.157-14.588 16.888-4.242-.208-9.556-7.215-9.33-12.306.433-9.799 5.89-15.698 14.813-13.863zm-154.7115-.5326c4.906.439 14.164 7.604 14.165 10.963.002 5.833-8.428 15.288-13.335 14.956-5.001-.339-11.157-6.112-11.013-10.329.286-8.364 5.291-16.026 10.183-15.59zm-69.1909-.0144c9.519.854 13.559 6.179 14.382 14.752.397 4.129-6.567 9.931-11.422 10.085-6.348.202-13.287-6.938-13.2920042-13.675-.0049958-6.64 4.3880042-11.695 10.3320042-11.162zm295.0006-.0753c8.347.149 15.992 6.188 15.69 12.395-.262 5.401-9.185 12.51-15.659 12.477115-5.31-.027115-11.442-7.288115-11.183-13.243115.339-7.831 4.102-11.755 11.152-11.629zm-369.1592.0039c8.253.163 16.056 6.381 15.665 12.483-.345 5.395-9.323 12.43-15.798 12.381-5.46-.042-11.246-7.054-10.995-13.325.314-7.86 3.998-11.68 11.128-11.539zm234.0991 9.2945c.351.885.519 1.841.772 2.765.328 6.886-5.776 8.639-9.522 12.125-.479.445-1.858.104-2.76-.115-7.386-1.8-11.766-6.818-14.144-13.724-1.014-2.946 4.445-9.308 8.456-10.197 6.498-1.44 14.724 2.918 17.198 9.146zm-42.2116-26.3216c4.466 3.3 1.198 6.38-.161 9.877-1.359 3.494-3.448 5.784-6.505 7.565-2.752 1.604-5.096 4.677-8.862 2.245-5.722-3.692-7.276-6.658-5.911-12.536.692-2.983 1.665-6.051 3.235-8.642 2.017-3.329 4.719-4.236 9.17-4.146 4.851-1.623 6.099 3.469 9.034 5.637zm225.6303-1.4407c-.924 6.019-1.404 12.147-2.929 18.006-.442 1.699-3.809 3.681-5.847 3.695071-3.796.024929-8.646-6.562071-8.028-10.395071.567-3.52 1.342-7.179 2.935-10.314 1.836-3.616 4.92-6.251 9.773-5.159 3.666-1.059 4.619.759 4.096 4.167zm-297.6633-1.3861c6.489 6.183 5.95 13.317-1.413 18.556-1.347.959-2.607 2.196-4.11 2.74-2.158.78-5.242 2.185-6.619 1.294-3.265-2.111-7.315-4.263-7.214-11.284.831-2.184 1.732-6.506 3.963-9.974 3.633-5.646 10.56-5.937 15.393-1.332zm210.5908-3.7594c8.598 1.057 12.709 8.833 9.51 16.386-1.715 4.049-4.533 6.18-7.73 8.377-5.062 3.477-13.717.086-14.176-6.045-.418-5.593.516-11.414 5.269-15.338 1.966-1.623 4.728-2.282 7.127-3.38zm-71.5005-.1602c.214.375.43.75.646 1.125 5.111-1.396 6.49 3.458 9.376 5.691 4.384 3.395.872 6.465-.367 9.943-1.481 4.155-4.574 6.178-7.832 8.357-4.908 3.282-14.488-1.122-14.065-7.031.326-4.553 2.122-9.323 4.467-13.285 1.374-2.321 5.104-3.246 7.775-4.8zm-216.9263.1426c8.495 1.058 12.838 9.171 9.384 16.402-1.828 3.828-4.405 6.278-7.743 8.447-5.077 3.298-14.221-.587-14.346-6.662-.107-5.242.749-10.798 5.215-14.466 2.099-1.725 4.969-2.51 7.49-3.721zm327.8475-22.7608c10.351.176 13.022 2.657 13.051111 12.126.023889 7.597-3.859111 12.869-9.460111 12.845082-7.727-.033082-15.122-5.879082-15.356-12.140082-.212-5.655 6.451-12.921 11.765-12.831zm-147.1182-1.4055c2.893.108 9.739 7.019 9.673 9.765-.156 6.568-9.156 16.583-14.762 16.426-4.692-.132-9.517-6.398-9.316-12.097.343-9.72 5.167-14.439 14.405-14.094zm-208.9714 11.7991c-.032 7.267-4.283 12.806-9.755 12.71-7.81-.136-15.062-6.083-15.0890634-12.372-.0229366-5.625 6.2090634-12.552 11.3870634-12.656 9.834-.201 13.497 3.152 13.457 12.318zm281.0923-12.370792c6.085-.036808 12.849 5.283192 12.969 10.200192.162 6.582-6.162 14.782-11.434 14.829-6.491.056-13.449-7.223-13.309-13.923.116-5.519 6.004-11.071 11.774-11.106192zm-151.5721-1.582608c5.116.37 14.405 7.829 14.176 11.386-.356 5.546-8.373 14.724-12.76 14.607-5.258-.139-11.672-6.588-11.364-11.425.512-8.038 5.205-14.91 9.948-14.568zm-56.0169 7.4252c1.773 1.373 2.722 3.811 3.356 4.747.082 5.608-3.889 10.355-8.632 11.816-5.383 1.658-12.613-.812-15.888-5.427-4.478-6.313-1.487-12.916 6.27-14.511 5.599-1.152 10.564.021 14.894 3.375zm324.5391-28.972c3.99 2.016 5.15 4.609 4.96 8.555-.062 1.32-.241 2.77.194 3.956 1.872 5.11-1.496 7.289-5.036 9.344-3.71 2.153-7.381 1.439-9.842-1.719-2.626-3.37-4.43-7.382-6.593-11.113l1.172-.68c.243-9.008 7.025-12.443 15.145-8.343zm-229.3061-3.1619c4.063.1 11.669 6.108 11.693197 9.239.049803 6.29-9.422197 16.95-14.971197 16.851-4.282-.077-9.751-6.319-9.58-10.934.373-10.068 4.855-15.35 12.858-15.156zm158.4264 2.7989c6.712 6.099 6.13 13.8-1.435 18.935-1.233.837-2.377 2.014-3.741 2.4-2.36.666-5.598 1.974-7.145.972-3.099-2.008-7.065-4.076-7.75-9.143 1.272-3.825 1.895-8.054 3.958-11.389 3.783-6.114 10.816-6.588 16.113-1.775zm-83.6091-1.6241c6.625.066 11.981 3.627 13.461 8.945 1.099 3.952-1.175 9.517-5.198 12.513-3.491 2.601-7.13 1.999-10.733.26-4.221-2.038-7.065-5.125-8.043-9.927-1.608-7.895 1.846-11.879 10.513-11.791zm-216.8485-.7045c4.689 2.35 11.388 3.356 11.52 11.395-.043 3.608-6.611 10.904-11.444 12.141-4.03 1.03-8.599-1.804-11.393-7.065-2.902-5.466-2.193-12.302 1.624-15.642.125-.11.254-.284.393-.296 3.142-.275 6.891-1.74 9.3-.533zm74.3525-1.2242c6.671-.001 12.125 3.561 13.629 8.901 2.104 7.475-5.733 15.784-13.213 13.786-4.241-1.132-7.815-3.441-9.764-7.714-3.921-8.602.031-14.97 9.348-14.973zm-101.2278-14.5316c-.148 6.745-6.094 14.336-11.304 14.431-5.697.103-13.347-6.605-13.442-11.788-.122-6.704 5.205-12.81 11.448-13.118 6.095-.302 13.408 5.459 13.298 10.475zm358.5-10.4741c6.231.162 12.829 5.646 12.655 10.518-.246 6.905-6.014 14.278-11.253 14.385-6.322.129-13.556-6.869-13.561003-13.118-.004997-6.068 6.057003-11.943 12.159003-11.785zm-64.927 10.524c2.073 6.783-4.297 14.839-11.334 14.336-5.693-.407-11.089-5.003-12.416-10.573-1.843-7.74 1.571-12.198 9.478-12.375 7.272-.162 12.567 3.033 14.272 8.612zm-163.7125-12.2452c5.248.466 14.199 7.719 14.012 11.353-.293 5.703-8.558 15.059-13.058 14.781-6.109-.377-11.437-6.474-10.993-12.579.51-7.012 5.646-13.944 10.039-13.555zm-52.9761 9.9485c.244 6.617-5.995 14.713-11.365 14.748175-6.14.039825-13.293-6.779175-13.388-12.764175-.1-6.271 5.447-12.003 11.757-12.148 5.988-.138 12.813 5.2 12.996 10.164zm127.0313-8.203722c6.553-.045778 13.689 7.067222 13.572 13.530222-.076 4.262-5.313 8.89-10.329 9.13-5.156.247-12.501-7.587-12.593-13.431-.089-5.64 3.504-9.187 9.35-9.229222zm-173.4008-25.310078c1.186.851 2.395 1.698 3.69 2.36 7.413 3.79 8.389 12.585 1.708 17.606-2.256 1.696-5.133 2.567-7.858 3.879-2.373-.913-4.5-1.363-6.216-2.459-6.317-4.03-9.273-12.959-6.255-18.252 2.823-4.952 10.247-6.495 14.931-3.134zm302.2225 12.1125c.213 5.603-6.226 11.112-12.538 11.126025-6.287.013975-12.337-5.794025-12.373-11.877025-.043-7.314 4.114-10.916 12.792-11.082 7.455-.156 11.839 4.472 12.119 11.833zm-151.9149-1.3847c-.091 7.794-3.78 12.557-9.686 12.505-7.859-.068-15.18-6.011-15.13-12.282.043-5.519 6.469-12.564 11.517-12.626 10.12-.126 13.409 2.942 13.299 12.403zm61.2192-10.503c7.509.107 13.579 5.013 13.67 11.046.087 5.87-5.51 11.989-10.938 11.956133-7.456-.045133-13.785-6.404133-13.88-13.945133-.083-6.616 3.064-9.172 11.148-9.057zm151.8717.588c1.707 6.532 2.91 13.196 4.538 20.829-1.062.471-2.373 1.626-3.372 1.4-6.668-1.506-9.191-7.013-11.457-12.609-1.719-4.246.922-7.405 3.23-10.327 2.255-2.854 6.244-2.42 7.061.707zm-290.8015-1.0521c.453.205.895.434 1.352.627 7.428 3.145 9.835 5.812 9.066 10.055-1.123 6.203-6.419 10.357-13.642 10.703-4.141.198-8.295-2.895-10.337-8.431-1.479-4.008-1.547-8.207 1.668-11.664 3.003-3.23 6.827-3.58 11.893-1.29zm178.7975-25.7448c7.312.536 14.801 5.809 14.352 10.104-.817 7.798-6.678 12.639-14.617 12.073-6.453-.461-12.159-5.944-11.773-11.312.466-6.495 5.813-11.321 12.038-10.865zm73.8142-.7086c6.699-.082 13.595 6.664 13.55914 13.267-.02514 4.538-5.16814 9.22-10.40014 9.468-4.755.225-12.439-8.086-12.523-13.546-.085-5.538 3.563-9.118 9.364-9.189zm-225.9795-3.7337c5.288.317 14.452 7.954 14.107 11.755-.509 5.599-8.55 14.595-12.884 14.414-5.609-.237-11.573-6.636-11.189-12.008.531-7.427 5.461-14.432 9.966-14.161zm78.2233 1.757096c6.495-.004996 10.641 4.651004 10.486 11.775004-.15 6.903-5.006 11.365-11.925 10.958-8.683-.511-12.048-3.72-11.939-11.389.08-5.591 6.857-11.34 13.378-11.344004zm-148.015.127304c.659-.008 1.32.088 1.979.135 5.523-.254 9.917 2.465 13.406 6.173 1.264 1.344 1.022 4.533.759 6.798-.576 4.962-3.946 8.817-8.395 9.241-3.572.341-7.797-1.862-11.05-3.983-2.213-1.443-3.724-4.516-4.716-7.171-2.69-7.205.247-11.101 8.017-11.193zm115.0906-20.9316999c3.191 3.3179999 4.611 8.3389999 7.049 13.1389999-1.786 3.065-2.683 6.442-4.868 7.945-3.668 2.522-8.158 2.489-12.194-.033-4.181-2.612-8.208-11.884-6.949-16.599.941-3.5189999 2.492-7.8189999 6.331-8.0099999 3.564-.178 8.284 1.119 10.631 3.558zm148.7919-3.7906c3.539.867 5.8 2.817 6.575 6.5079999.425 2.026 1.278 3.96 1.894 5.948 1.574 5.079-3.507 10.923-10.368 11.898-.812.116-1.653.016-2.088.016-6.292.826-8.378-3.917-10.875-7.598-2.1-3.095-.983-11.134 1.887-13.5729999 3.651-3.102 8.062-4.403 12.975-3.199zm-80.0886-.4064c8.472.903 11.041 1.283 12.85 6.8659999 3.249 10.025-.666 13.391-11.281 15.901-6.513 1.54-13.758-4.592-14.365-11.281-.574-6.3389999 5.135-11.4649999 12.796-11.4859999zm-221.8171-1.9646c7.421.095 16.455 6.97 16.4510014 12.5189999-.0030014 4.435-9.6970014 12.361-15.1490014 12.388097-6.165.029903-11.317-6.900097-11.477-15.439097-.09-4.8419999 4.952-9.5349999 10.175-9.4679999zm80.925 1.9461c1.789.549 4.993 1.017 7.667 2.463 5.242 2.8349999 6.045 6.8659999 3.005 12.0459999-2.223 3.787-8.152 6.835-12.072 6.302-5.906-.805-10.339-3.91-12.318-9.399-2.071-5.742 4.193-11.2329999 13.718-11.4119999zm181.5869-26.5615c3.497 1.909 8.107 10.584 8.023 14.541-.178 8.481-8.189 12.931-15.525 8.623-4.515-2.651-8.911-12.543-7.172-17.4 2.737-7.646 6.429-10.262 14.674-5.764zm-215.4126 1.5646c3.256 3.275 4.803 8.251 6.107 10.616-.185 10.527-6.724 14.773-14.216 11.603-5.521-2.337-10.307-12.913-8.391-18.54 2.784-8.177 10.062-10.153 16.5-3.679zm148.2603 2.9299c.807.81 1.551 2.136 1.550001 3.225-.006001 6.729-9.243001 17.024-14.872001 16.792-4.634-.191-9.442-6.793-9.22-12.661.281-7.439 5.508-13.728 10.667-14.046 5.698-.351 8.576 3.376 11.875 6.69zm-87.4329-6.6941c5.409.606 14.257 7.879 14.001 11.511-.423 5.997-8.495 14.769-13.312 14.465-5.876-.371-11.161-6.187-10.76-11.838.523-7.369 5.693-14.627 10.071-14.138zm38.16-23.1825489c6.343.0422489 12.877 5.3522489 12.719 10.3372489-.229 7.214-6.31 14.783-11.719 14.584-6.291-.232-13.205-7.444-13.104-13.67.097-6.013 5.777-11.293 12.104-11.2512489zm79.0237 1.1407489c.451.206.854.518 1.308.714 8.07 3.485 10.035 5.664 9.297 10.33-.962 6.081-6.358 10.287-16.325 10.835-3.377-.044-5.368-4.877-7.544-8.939-2.123-3.963-1.358-8.204 1.803-11.504 3.302-3.448 7.344-3.324 11.461-1.436zm64.32 14.5387c4.297 1.9 8.594 3.799 13.426 5.936-5.724 2.411-10.722.368-13.426-5.936zm-197.7676-4.4521c.123 4.364-5.165 9.133-10.542 9.508-4.51.314-12.241-7.859-12.502-13.217-.269-5.502 3.401-9.267 9.212-9.452 6.718-.213 13.64 6.373 13.832 13.161zm16.0653-40.0497c5.012.291 14.352 7.693 14.219 11.269-.232 6.237-8.488 15.107-13.627 14.641-6.107-.556-10.828-6.256-10.417-12.581.426-6.562 5.595-13.574 9.825-13.329zm-58.8819 4.1278c2.803 1.778 2.817 4.391 1.814 7.006-1.296 3.38-2.321 7.174-4.616 9.771-2.078 2.354-5.703 3.343-8.646 4.933-4.585-1.039-7.486-3.017-8.913-6.729-1.174-3.055 1.155-8.554 4.017-10.33 2.646-1.642 5.588-2.939 7.891-4.966 3.159-2.781 5.694-1.434 8.453.315zm133.1638-2.230105c6.878.025105 13.693 6.773105 13.556 13.426105-.086 4.206-5.915 9.178-10.869 9.272-4.737.089-12.166-8.601-12.063-14.111.101-5.476 3.522-8.608 9.376-8.587105z" fill="#16b4f2" fill-rule="evenodd" transform="translate(-15 -14)"/></svg>