<svg height="24" viewBox="0 0 16 24" width="16" xmlns="http://www.w3.org/2000/svg"><g fill="none" fill-rule="evenodd"><path d="m4 24c2.208 0 4-1.792 4-4v-4h-4c-2.208 0-4 1.792-4 4s1.792 4 4 4" fill="#0acf83"/><path d="m0 12c0-2.208 1.792-4 4-4h4v8h-4c-2.208 0-4-1.792-4-4" fill="#a259ff"/><path d="m0 4c0-2.208 1.792-4 4-4h4v8h-4c-2.208 0-4-1.792-4-4" fill="#f24e1e"/><path d="m8 0h4c2.208 0 4 1.792 4 4s-1.792 4-4 4h-4z" fill="#ff7262"/><path d="m16 12c0 2.208-1.792 4-4 4s-4-1.792-4-4 1.792-4 4-4 4 1.792 4 4" fill="#1abcfe"/></g></svg>