<svg height="24" viewBox="0 0 24 24" width="24" xmlns="http://www.w3.org/2000/svg" xmlns:xlink="http://www.w3.org/1999/xlink"><defs><rect id="a" height="22" rx="4" width="22"/><filter id="b" height="227.3%" width="227.3%" x="-63.6%" y="-45.5%"><feOffset dx="0" dy="4" in="SourceAlpha" result="shadowOffsetOuter1"/><feGaussianBlur in="shadowOffsetOuter1" result="shadowBlurOuter1" stdDeviation="4"/><feColorMatrix in="shadowBlurOuter1" type="matrix" values="0 0 0 0 0.898039216   0 0 0 0 0.898039216   0 0 0 0 0.909803922  0 0 0 1 0"/></filter></defs><g fill="none"><g transform="translate(1 1)"><use fill="#000" filter="url(#b)" xlink:href="#a"/><use fill="#470137" xlink:href="#a"/></g><g fill="#ff61f6" transform="translate(3.49119 5.534254)"><path d="m9.1238105 1.02074637-3 4.95 3.2025 5.25000003c.01436141.0387109.01436141.081289 0 .12 0 .0375-.0525 0-.1125 0h-2.25c-.165 0-.27 0-.345-.1125-.21-.42-.4275-.825-.6375-1.24500003-.21-.42-.4725-.8175-.6975-1.2675s-.4725-.8625-.7125-1.305c-.21.435-.4425.8625-.6675 1.29s-.465.8625-.6825 1.2825c-.2175.42000003-.48.87000003-.7125 1.28250003 0 .0975-.12.105-.2325.105h-2.1975-.0675c-.01508067-.0333756-.01508067-.0716245 0-.105l3.105-5.10000003-3-5.1225c0-.045 0-.0825 0-.105s.06-.0375.0975-.0375h2.25c.04712667-.00842216.09537333-.00842216.1425 0 .04108097.01911218.07516765.05057681.0975.09.195.4275.4125.855.645 1.2825s.465.855.75 1.275.4575.84.6675 1.2675c.21-.4425.4275-.87.645-1.29s.45-.84.6825-1.26l.6675-1.26c.00772294-.03861915.02900482-.07320222.06-.0975.04119517-.01489364.08630483-.01489364.1275 0h2.115c.02391452-.00432798.04856287.00119953.06833903.01532536s.03299895.03564913.03666097.05967464v.0675z"/><path d="m13.7588105 11.5657464c-.7418049.0095271-1.4766388-.1440967-2.1525-.45-.6221458-.2958485-1.143722-.7678749-1.5-1.35750003-.38139071-.68716701-.57052361-1.4644255-.5475-2.25-.02170039-1.52207811.8011572-2.93104135 2.1375-3.66.7786873-.40700807 1.6493196-.60593592 2.5275-.5775h.21.3075v-3.1575c0-.075 0-.1125.105-.1125h2.025c.0467036-.00578919.0908771.02260806.105.0675v9.54.60000003c0 .225 0 .405.045.5775.0039714.0700225-.0388364.1342342-.105.1575-.5225958.2210503-1.0685891.3820806-1.6275.48-.5048832.0919203-1.0168256.1396012-1.53.1425zm.975-2.00250003v-4.395l-.27-.0525h-.3225c-.3923775-.00598364-.780554.08142034-1.1325.255-.3417854.17371059-.6335133.43187685-.8475.75-.2380743.37836104-.3533381.82107893-.33 1.2675-.0131218.35001904.0429491.69918752.165 1.0275.1010523.26509884.2540461.507339.45.7125.1928526.18462363.4267589.32085473.6825.3975.2683784.08971222.549527.13529586.8325.13500143h.42c.1182779-.00742043.2334872-.0407031.3375-.09750143z"/></g></g></svg>