<svg height="22" viewBox="0 0 24 22" width="24" xmlns="http://www.w3.org/2000/svg"><g fill="none" fill-rule="evenodd" transform="translate(0 .2)"><path d="m12.0006 0-6.764.715-5.236 7.029 12 13.974 11.999-13.974-5.235-7.029z" fill="#fdb300"/><path d="m.0009 7.7445 12 13.973-7.14-13.973z" fill="#ea6c00"/><path d="m19.1394 7.7445-7.14 13.973 12-13.973z" fill="#ea6c00"/><path d="m4.8609 7.7445 7.14 13.973 7.138-13.973z" fill="#fdad00"/><path d="m5.2367.715-.377 7.029 7.14-7.744z" fill="#fdd231"/><path d="m19.1394 7.7445-.375-7.03-6.765-.714z" fill="#fdd231"/><path d="m19.1403 7.7445h4.86l-5.236-7.03z" fill="#fdad00"/><path d="m0 7.7445h4.86l.376-7.03z" fill="#fdad00"/><path d="m11.9997 0-7.14 7.744h14.28z" fill="#feeeb7"/></g></svg>