<svg height="520" viewBox="0 0 550 520" width="550" xmlns="http://www.w3.org/2000/svg" xmlns:xlink="http://www.w3.org/1999/xlink"><defs><circle id="a" cx="67.967735" cy="67.967735" r="67.967735"/><filter id="b" height="154.4%" width="154.4%" x="-27.2%" y="-25.7%"><feOffset dx="0" dy="2" in="SourceAlpha" result="shadowOffsetOuter1"/><feGaussianBlur in="shadowOffsetOuter1" result="shadowBlurOuter1" stdDeviation="12"/><feColorMatrix in="shadowBlurOuter1" result="shadowMatrixOuter1" type="matrix" values="0 0 0 0 0   0 0 0 0 0   0 0 0 0 0  0 0 0 0.0509997815 0"/><feOffset dx="0" dy="1" in="SourceAlpha" result="shadowOffsetOuter2"/><feGaussianBlur in="shadowOffsetOuter2" result="shadowBlurOuter2" stdDeviation="1"/><feColorMatrix in="shadowBlurOuter2" result="shadowMatrixOuter2" type="matrix" values="0 0 0 0 0   0 0 0 0 0   0 0 0 0 0  0 0 0 0.0975743007 0"/><feMerge><feMergeNode in="shadowMatrixOuter1"/><feMergeNode in="shadowMatrixOuter2"/></feMerge></filter><circle id="c" cx="51.973478" cy="51.973478" r="51.973478"/><filter id="d" height="176%" width="176%" x="-38%" y="-25.5%"><feOffset dx="0" dy="13" in="SourceAlpha" result="shadowOffsetOuter1"/><feGaussianBlur in="shadowOffsetOuter1" result="shadowBlurOuter1" stdDeviation="11"/><feColorMatrix in="shadowBlurOuter1" result="shadowMatrixOuter1" type="matrix" values="0 0 0 0 0   0 0 0 0 0   0 0 0 0 0  0 0 0 0.0509997815 0"/><feOffset dx="0" dy="1" in="SourceAlpha" result="shadowOffsetOuter2"/><feGaussianBlur in="shadowOffsetOuter2" result="shadowBlurOuter2" stdDeviation="1"/><feColorMatrix in="shadowBlurOuter2" result="shadowMatrixOuter2" type="matrix" values="0 0 0 0 0   0 0 0 0 0   0 0 0 0 0  0 0 0 0.0975743007 0"/><feMerge><feMergeNode in="shadowMatrixOuter1"/><feMergeNode in="shadowMatrixOuter2"/></feMerge></filter><circle id="e" cx="51.169003" cy="51.169003" r="51.169003"/><filter id="f" height="190.9%" width="190.9%" x="-45.4%" y="-30.8%"><feOffset dx="0" dy="15" in="SourceAlpha" result="shadowOffsetOuter1"/><feGaussianBlur in="shadowOffsetOuter1" result="shadowBlurOuter1" stdDeviation="13"/><feColorMatrix in="shadowBlurOuter1" result="shadowMatrixOuter1" type="matrix" values="0 0 0 0 0   0 0 0 0 0   0 0 0 0 0  0 0 0 0.0509997815 0"/><feOffset dx="0" dy="1" in="SourceAlpha" result="shadowOffsetOuter2"/><feGaussianBlur in="shadowOffsetOuter2" result="shadowBlurOuter2" stdDeviation="1"/><feColorMatrix in="shadowBlurOuter2" result="shadowMatrixOuter2" type="matrix" values="0 0 0 0 0   0 0 0 0 0   0 0 0 0 0  0 0 0 0.0975743007 0"/><feMerge><feMergeNode in="shadowMatrixOuter1"/><feMergeNode in="shadowMatrixOuter2"/></feMerge></filter><linearGradient id="g"><stop offset=".18" stop-color="#0052cc"/><stop offset="1" stop-color="#2684ff"/></linearGradient><linearGradient id="h" x1="99.140087%" x2="33.858981%" xlink:href="#g" y1="65.706812%" y2="46.932923%"/><linearGradient id="i" x1=".925692%" x2="66.180071%" xlink:href="#g" y1="34.304389%" y2="53.086275%"/><circle id="j" cx="51.973478" cy="51.973478" r="51.973478"/><filter id="k" height="176%" width="176%" x="-38%" y="-25.5%"><feOffset dx="0" dy="13" in="SourceAlpha" result="shadowOffsetOuter1"/><feGaussianBlur in="shadowOffsetOuter1" result="shadowBlurOuter1" stdDeviation="11"/><feColorMatrix in="shadowBlurOuter1" result="shadowMatrixOuter1" type="matrix" values="0 0 0 0 0   0 0 0 0 0   0 0 0 0 0  0 0 0 0.0509997815 0"/><feOffset dx="0" dy="1" in="SourceAlpha" result="shadowOffsetOuter2"/><feGaussianBlur in="shadowOffsetOuter2" result="shadowBlurOuter2" stdDeviation="1"/><feColorMatrix in="shadowBlurOuter2" result="shadowMatrixOuter2" type="matrix" values="0 0 0 0 0   0 0 0 0 0   0 0 0 0 0  0 0 0 0.0975743007 0"/><feMerge><feMergeNode in="shadowMatrixOuter1"/><feMergeNode in="shadowMatrixOuter2"/></feMerge></filter><linearGradient id="l" x1="67.680015%" x2="40.820818%" xlink:href="#g" y1="40.327696%" y2="81.65962%"/><linearGradient id="m" x1="32.655985%" x2="59.34303%" xlink:href="#g" y1="59.166447%" y2="17.989976%"/><circle id="n" cx="51.973478" cy="51.973478" r="51.973478"/><filter id="o" height="176%" width="176%" x="-38%" y="-25.5%"><feOffset dx="0" dy="13" in="SourceAlpha" result="shadowOffsetOuter1"/><feGaussianBlur in="shadowOffsetOuter1" result="shadowBlurOuter1" stdDeviation="11"/><feColorMatrix in="shadowBlurOuter1" result="shadowMatrixOuter1" type="matrix" values="0 0 0 0 0   0 0 0 0 0   0 0 0 0 0  0 0 0 0.0509997815 0"/><feOffset dx="0" dy="1" in="SourceAlpha" result="shadowOffsetOuter2"/><feGaussianBlur in="shadowOffsetOuter2" result="shadowBlurOuter2" stdDeviation="1"/><feColorMatrix in="shadowBlurOuter2" result="shadowMatrixOuter2" type="matrix" values="0 0 0 0 0   0 0 0 0 0   0 0 0 0 0  0 0 0 0.0975743007 0"/><feMerge><feMergeNode in="shadowMatrixOuter1"/><feMergeNode in="shadowMatrixOuter2"/></feMerge></filter><circle id="p" cx="51.973478" cy="219.380177" r="51.973478"/><filter id="q" height="189.5%" width="189.5%" x="-44.7%" y="-30.3%"><feOffset dx="0" dy="15" in="SourceAlpha" result="shadowOffsetOuter1"/><feGaussianBlur in="shadowOffsetOuter1" result="shadowBlurOuter1" stdDeviation="13"/><feColorMatrix in="shadowBlurOuter1" result="shadowMatrixOuter1" type="matrix" values="0 0 0 0 0   0 0 0 0 0   0 0 0 0 0  0 0 0 0.0509997815 0"/><feOffset dx="0" dy="1" in="SourceAlpha" result="shadowOffsetOuter2"/><feGaussianBlur in="shadowOffsetOuter2" result="shadowBlurOuter2" stdDeviation="1"/><feColorMatrix in="shadowBlurOuter2" result="shadowMatrixOuter2" type="matrix" values="0 0 0 0 0   0 0 0 0 0   0 0 0 0 0  0 0 0 0.0975743007 0"/><feMerge><feMergeNode in="shadowMatrixOuter1"/><feMergeNode in="shadowMatrixOuter2"/></feMerge></filter><mask id="r" fill="#fff"><use fill="#fff" fill-rule="evenodd" xlink:href="#e"/></mask></defs><g fill="none" fill-rule="evenodd" transform="translate(25 9)"><path d="m250.460079 423.615248c51.587349 0 89.020889 2.562405 132.946501-44.293006 43.925611-46.855411 47.224239-76.129063 47.224239-124.430062 0-56.372917-22.110724-93.471688-59.299575-125.923918-31.901388-27.838214-65.888417-51.2481058-120.795431-51.2481058-91.51169 0-177.1666322 79.0685058-177.1666322 177.1720238 0 98.103517 71.0057432 168.723068 177.0908982 168.723068z" fill="#fef2ef" transform="matrix(.9781476 -.20791169 .20791169 .9781476 -46.61253 57.871709)"/><g transform="translate(184 184)"><use fill="#000" filter="url(#b)" xlink:href="#a"/><use fill="#fff" fill-rule="evenodd" xlink:href="#a"/></g><g transform="translate(218.590722 222.231851)"><path d="m66.39213 25.6034143c-.0049572-.2221302-.1844543-.3983819-.4074134-.3983819h-7.565969c0 13.9278023-11.2886023 25.2144806-25.2144398 25.2144806-13.931717 0-25.22112628-11.2866783-25.22112628-25.2144806h-7.57161789c-.22295912 0-.4024562.1762517-.4082204.3967681l-.00334323.013141c0 .0049567.00334323.0081844.00334323.0147549.22791633 18.1108115 15.03256317 32.772208 33.20096457 32.772208 18.1625219 0 32.9590989-14.6647394 33.1878222-32.772208 0-.0065705.001614-.0115273.001614-.0147549 0 0-.001614-.0065705-.001614-.0115272" fill="#fb5d2e"/><path d="m33.199695 0c-13.9235283 0-25.20785545 11.2849205-25.20785545 25.2050324h50.41006485c0-13.9201119-11.2836358-25.2050324-25.2022094-25.2050324" fill="#16b4f2"/><path d="m58.4019044 25.2050324c0 13.9233055-11.2837011 25.2050325-25.2024974 25.2050325-13.9237511 0-25.20756745-11.281727-25.20756745-25.2050325z" fill="#2c2c96"/></g><g transform="translate(78 368)"><use fill="#000" filter="url(#d)" xlink:href="#c"/><use fill="#fff" fill-rule="evenodd" xlink:href="#c"/></g><path d="m38.7469333 12.091223-22.1997333 1.6335733c-1.79.1549333-2.4138667 1.3218667-2.4138667 2.7208v24.2632c0 1.0901333.3888 2.0218667 1.324 3.2672l5.2185334 6.7657333c.8572 1.0894667 1.6361333 1.3225334 3.2729333 1.2445334l25.7804-1.5556c2.1804-.1548 2.8041333-1.1665334 2.8041333-2.8773334v-27.2966666c0-.8844-.3501333-1.1398667-1.3824-1.8929334-.0568-.0413333-.1157333-.0842666-.1766666-.1289333l-7.0864-4.97696c-1.7134667-1.24376-2.4148-1.4002667-5.1409334-1.1666133zm-14.2136 7.7177066c-2.1048.142-2.5830666.1742667-3.7784-.7961333l-3.0396-2.4106667c-.31-.3117333-.1545333-.7005333.6238667-.7777333l21.3425333-1.5554667c1.7909334-.1558666 2.7254667.4673334 3.4268 1.0113334l3.6606667 2.6444c.1558667.0774666.5446667.5434666.0770667.5434666l-22.0412 1.3225334zm-2.4550666 27.5106667v-23.1738667c0-1.0108.3116-1.4777333 1.2457333-1.5562666l25.3136-1.4770667c.8586667-.0777333 1.2474667.4670667 1.2474667 1.4770667v23.0185333c0 1.0117333-.1562667 1.8682667-1.5588 1.9453333l-24.2232 1.4006667c-1.4018667.0770667-2.0248-.3889333-2.0248-1.6344zm23.9132-21.9308c.1553333.7006667 0 1.4005333-.7024 1.4793333l-1.1672.2324v17.1084c-1.0133334.5442667-1.9477334.8554667-2.7264.8554667-1.2466667 0-1.5589334-.3892-2.4926667-1.5550667l-7.6344-11.976v11.5872l2.4157333.5446667s0 1.3992-1.9489333 1.3992l-5.3730667.3114667c-.1561333-.3114667 0-1.0885334.5449334-1.2442667l1.4021333-.3882667v-15.3204l-1.9468-.1558666c-.1561333-.7005334.2326667-1.7106667 1.324-1.7890667l5.7641333-.3882667 7.9449334 12.1318667v-10.7322667l-2.0256-.2322666c-.1556-.8565334.4666666-1.4784 1.2457333-1.5556z" fill="#000" transform="translate(97.973478 387.973478)"/><g transform="translate(322.068469 368.146689)"><use fill="#000" filter="url(#f)" xlink:href="#e"/><use fill="#fff" fill-rule="evenodd" xlink:href="#e"/><g mask="url(#r)"><g transform="translate(27.328977 27.328977)"><path d="m0 0h46.872719v46.872719h-46.872719z"/><g fill-rule="nonzero" transform="translate(3.90606 5.370832)"><path d="m1.40905005 28.5023833c-.40186711.6553525-.85319478 1.4158087-1.23651417 2.0217006-.34310061.5797973-.15891047 1.3275543.41423225 1.6816593l8.03734207 4.9460566c.28212723.1741902.62239182.2277762.94439997.1487273.32200816-.079049.59877833-.2841092.76817213-.5691421.3214937-.5378836.7357259-1.2365141 1.1870536-1.9846052 3.184024-5.2551852 6.3865957-4.6121979 12.1611168-1.8547713l7.9693338 3.789916c.3018269.143661.6489591.1590011.9622818.0425243.3133227-.1164769.566139-.3548462.7008298-.6607814l3.8270113-8.6555992c.2703846-.6181925-.0047364-1.3390094-.6182571-1.6198335-1.6816592-.7913691-5.0264301-2.3679247-8.037342-3.8208288-10.8318641-5.2613678-20.03771209-4.9213264-27.07966025 6.5349774z" fill="url(#h)"/><path d="m37.4472554 8.86035575c.4018671-.65535251.8531947-1.41580872 1.2365141-2.02170066.3431007-.57979728.1589105-1.32755428-.4142322-1.68165927l-8.0373421-4.94605665c-.2844292-.19157213-.6356422-.25642108-.9697292-.17905356-.334087.07736753-.6210406.2900024-.7923035.58710323-.3214936.53788366-.7357259 1.23651417-1.1870536 1.98460523-3.1840239 5.2551852-6.3865956 4.61219784-12.1611168 1.85477125l-7.94460348-3.7713682c-.3018269-.143661-.64895906-.15900117-.96228175-.04252433-.31332269.11647683-.56613904.35484619-.7008298.66078141l-3.82701134 8.65559915c-.27038458.61819255.00473639 1.33900945.61825709 1.61983355 1.68165926.7913691 5.02643008 2.3679246 8.03734208 3.8208288 10.8565944 5.2551852 20.0624423 4.9027786 27.1043905-6.54115995z" fill="url(#i)"/></g></g></g></g><g transform="translate(200)"><use fill="#000" filter="url(#k)" xlink:href="#j"/><use fill="#fff" fill-rule="evenodd" xlink:href="#j"/></g><path d="m228.114654 28.114654h47.717647v47.717647h-47.717647z"/><g fill-rule="nonzero" transform="translate(229.108772 28.114654)"><path d="m44.7390364 22.0984293-20.1456598-20.14565982-1.9527695-1.95276948-15.16486166 15.1648617-6.93356756 6.9335676c-.72290384.723804-.72290384 1.8963676 0 2.6201717l13.85477582 13.8547758 8.2436534 8.2436534 15.1648617-15.1648617.2348267-.2348267 6.6987409-6.6987408c.7229038-.7238041.7229038-1.8963677 0-2.6201717zm-22.0984293 8.2312941-6.9212082-6.9212083 6.9212082-6.9212083 6.9212083 6.9212083z" fill="#2684ff"/><path d="m22.6406071 16.4873068c-4.5314891-4.5320245-4.553574-11.87248041-.0494372-16.43168995l-15.14632271 15.14014305 8.24365341 8.2436535z" fill="url(#l)"/><path d="m29.5803543 23.3899762-6.9397472 6.9397472c2.1872025 2.1859017 3.4160695 5.1514016 3.4160695 8.2436534s-1.228867 6.0577516-3.4160695 8.2436534l15.1834007-15.1834006z" fill="url(#m)"/></g><g transform="translate(400 167.406698)"><use fill="#000" filter="url(#o)" xlink:href="#n"/><use fill="#fff" fill-rule="evenodd" xlink:href="#n"/></g><g fill="#000" fill-rule="nonzero" transform="translate(431.746132 207.936302)"><path d="m22.808076 11.4824968c0 6.34141-5.1058288 11.4821094-11.4038443 11.4821094-6.29801542 0-11.4042317-5.1406994-11.4042317-11.4821094 0-6.34140993 5.10582883-11.4824968 11.4042317-11.4824968 6.2984029 0 11.4038443 5.14108687 11.4038443 11.4824968"/><path d="m35.3184803 11.4824968c0 5.9690696-2.5529144 10.809882-5.7021159 10.809882-3.1492014 0-5.7021159-4.8408124-5.7021159-10.809882 0-5.96906955 2.552527-10.80988192 5.7017285-10.80988192 3.1492014 0 5.7021158 4.83926256 5.7021158 10.80988192"/><path d="m40.4355452 11.4824968c0 5.3468234-.8977239 9.6839495-2.0054462 9.6839495s-2.0050588-4.3359638-2.0050588-9.6839495c0-5.34798565.8977239-9.68394941 2.0050588-9.68394941 1.1073348 0 2.0054462 4.33557631 2.0054462 9.68394941"/></g><use fill="#000" filter="url(#q)" xlink:href="#p"/><use fill="#fff" fill-rule="evenodd" xlink:href="#p"/><path d="m31.326419 198.733118h41.294118v41.294118h-41.294118z"/><g fill-rule="nonzero"><rect fill="#0079bf" height="34.411765" rx="3.241855" width="34.411765" x="34.767595" y="202.174294"/><g fill="#fff"><rect height="15.055147" rx="1.556091" width="10.495588" x="54.210242" y="206.647823"/><rect height="23.658088" rx="1.556091" width="10.495588" x="39.241124" y="206.647823"/></g></g></g></svg>