<svg height="438" viewBox="0 0 439 438" width="439" xmlns="http://www.w3.org/2000/svg" xmlns:xlink="http://www.w3.org/1999/xlink"><defs><path id="a" d="m0 0 35.4027377.00675559 15.7497732 15.24497721.0091221 55.4000462-51.1500011-.0097605z"/><filter id="b" height="204.7%" width="244.6%" x="-72.3%" y="-49.5%"><feOffset dx="0" dy="2" in="SourceAlpha" result="shadowOffsetOuter1"/><feGaussianBlur in="shadowOffsetOuter1" result="shadowBlurOuter1" stdDeviation="1.5"/><feColorMatrix in="shadowBlurOuter1" result="shadowMatrixOuter1" type="matrix" values="0 0 0 0 0   0 0 0 0 0   0 0 0 0 0  0 0 0 0.0896252185 0"/><feOffset dx="0" dy="2" in="SourceAlpha" result="shadowOffsetOuter2"/><feGaussianBlur in="shadowOffsetOuter2" result="shadowBlurOuter2" stdDeviation="12"/><feColorMatrix in="shadowBlurOuter2" result="shadowMatrixOuter2" type="matrix" values="0 0 0 0 0   0 0 0 0 0   0 0 0 0 0  0 0 0 0.0570367133 0"/><feMerge><feMergeNode in="shadowMatrixOuter1"/><feMergeNode in="shadowMatrixOuter2"/></feMerge></filter><filter id="c" height="179.3%" width="209.5%" x="-54.7%" y="-36.8%"><feGaussianBlur in="SourceAlpha" result="shadowBlurInner1" stdDeviation="2.5"/><feOffset dx="0" dy="3" in="shadowBlurInner1" result="shadowOffsetInner1"/><feComposite in="shadowOffsetInner1" in2="SourceAlpha" k2="-1" k3="1" operator="arithmetic" result="shadowInnerInner1"/><feColorMatrix in="shadowInnerInner1" type="matrix" values="0 0 0 0 1   0 0 0 0 1   0 0 0 0 1  0 0 0 1 0"/></filter><path id="d" d="m35.3258895 0 15.8357435 15.2266765h-15.8357435z"/><filter id="e" height="586%" width="567.3%" x="-233.6%" y="-229.9%"><feOffset dx="0" dy="2" in="SourceAlpha" result="shadowOffsetOuter1"/><feGaussianBlur in="shadowOffsetOuter1" result="shadowBlurOuter1" stdDeviation="1.5"/><feColorMatrix in="shadowBlurOuter1" result="shadowMatrixOuter1" type="matrix" values="0 0 0 0 0   0 0 0 0 0   0 0 0 0 0  0 0 0 0.0896252185 0"/><feOffset dx="0" dy="2" in="SourceAlpha" result="shadowOffsetOuter2"/><feGaussianBlur in="shadowOffsetOuter2" result="shadowBlurOuter2" stdDeviation="12"/><feColorMatrix in="shadowBlurOuter2" result="shadowMatrixOuter2" type="matrix" values="0 0 0 0 0   0 0 0 0 0   0 0 0 0 0  0 0 0 0.0570367133 0"/><feMerge><feMergeNode in="shadowMatrixOuter1"/><feMergeNode in="shadowMatrixOuter2"/></feMerge></filter><filter id="f" height="467.8%" width="453.6%" x="-176.8%" y="-170.8%"><feGaussianBlur in="SourceAlpha" result="shadowBlurInner1" stdDeviation="2.5"/><feOffset dx="0" dy="3" in="shadowBlurInner1" result="shadowOffsetInner1"/><feComposite in="shadowOffsetInner1" in2="SourceAlpha" k2="-1" k3="1" operator="arithmetic" result="shadowInnerInner1"/><feColorMatrix in="shadowInnerInner1" type="matrix" values="0 0 0 0 1   0 0 0 0 1   0 0 0 0 1  0 0 0 1 0"/></filter><path id="g" d="m0 0 35.4027377.00675559 15.7497732 15.24497721.0091221 55.4000462-51.1500011-.0097605z"/><filter id="h" height="204.7%" width="244.6%" x="-72.3%" y="-49.5%"><feOffset dx="0" dy="2" in="SourceAlpha" result="shadowOffsetOuter1"/><feGaussianBlur in="shadowOffsetOuter1" result="shadowBlurOuter1" stdDeviation="1.5"/><feColorMatrix in="shadowBlurOuter1" result="shadowMatrixOuter1" type="matrix" values="0 0 0 0 0   0 0 0 0 0   0 0 0 0 0  0 0 0 0.0896252185 0"/><feOffset dx="0" dy="2" in="SourceAlpha" result="shadowOffsetOuter2"/><feGaussianBlur in="shadowOffsetOuter2" result="shadowBlurOuter2" stdDeviation="12"/><feColorMatrix in="shadowBlurOuter2" result="shadowMatrixOuter2" type="matrix" values="0 0 0 0 0   0 0 0 0 0   0 0 0 0 0  0 0 0 0.0570367133 0"/><feMerge><feMergeNode in="shadowMatrixOuter1"/><feMergeNode in="shadowMatrixOuter2"/></feMerge></filter><filter id="i" height="179.3%" width="209.5%" x="-54.7%" y="-36.8%"><feGaussianBlur in="SourceAlpha" result="shadowBlurInner1" stdDeviation="2.5"/><feOffset dx="0" dy="3" in="shadowBlurInner1" result="shadowOffsetInner1"/><feComposite in="shadowOffsetInner1" in2="SourceAlpha" k2="-1" k3="1" operator="arithmetic" result="shadowInnerInner1"/><feColorMatrix in="shadowInnerInner1" type="matrix" values="0 0 0 0 1   0 0 0 0 1   0 0 0 0 1  0 0 0 1 0"/></filter><path id="j" d="m35.3258895 0 15.8357435 15.2266765h-15.8357435z"/><filter id="k" height="586%" width="567.3%" x="-233.6%" y="-229.9%"><feOffset dx="0" dy="2" in="SourceAlpha" result="shadowOffsetOuter1"/><feGaussianBlur in="shadowOffsetOuter1" result="shadowBlurOuter1" stdDeviation="1.5"/><feColorMatrix in="shadowBlurOuter1" result="shadowMatrixOuter1" type="matrix" values="0 0 0 0 0   0 0 0 0 0   0 0 0 0 0  0 0 0 0.0896252185 0"/><feOffset dx="0" dy="2" in="SourceAlpha" result="shadowOffsetOuter2"/><feGaussianBlur in="shadowOffsetOuter2" result="shadowBlurOuter2" stdDeviation="12"/><feColorMatrix in="shadowBlurOuter2" result="shadowMatrixOuter2" type="matrix" values="0 0 0 0 0   0 0 0 0 0   0 0 0 0 0  0 0 0 0.0570367133 0"/><feMerge><feMergeNode in="shadowMatrixOuter1"/><feMergeNode in="shadowMatrixOuter2"/></feMerge></filter><filter id="l" height="467.8%" width="453.6%" x="-176.8%" y="-170.8%"><feGaussianBlur in="SourceAlpha" result="shadowBlurInner1" stdDeviation="2.5"/><feOffset dx="0" dy="3" in="shadowBlurInner1" result="shadowOffsetInner1"/><feComposite in="shadowOffsetInner1" in2="SourceAlpha" k2="-1" k3="1" operator="arithmetic" result="shadowInnerInner1"/><feColorMatrix in="shadowInnerInner1" type="matrix" values="0 0 0 0 1   0 0 0 0 1   0 0 0 0 1  0 0 0 1 0"/></filter><path id="m" d="m0 0 35.4027377.00675559 15.7497732 15.24497721.0091221 55.4000462-51.1500011-.0097605z"/><filter id="n" height="204.7%" width="244.6%" x="-72.3%" y="-49.5%"><feOffset dx="0" dy="2" in="SourceAlpha" result="shadowOffsetOuter1"/><feGaussianBlur in="shadowOffsetOuter1" result="shadowBlurOuter1" stdDeviation="1.5"/><feColorMatrix in="shadowBlurOuter1" result="shadowMatrixOuter1" type="matrix" values="0 0 0 0 0   0 0 0 0 0   0 0 0 0 0  0 0 0 0.0896252185 0"/><feOffset dx="0" dy="2" in="SourceAlpha" result="shadowOffsetOuter2"/><feGaussianBlur in="shadowOffsetOuter2" result="shadowBlurOuter2" stdDeviation="12"/><feColorMatrix in="shadowBlurOuter2" result="shadowMatrixOuter2" type="matrix" values="0 0 0 0 0   0 0 0 0 0   0 0 0 0 0  0 0 0 0.0570367133 0"/><feMerge><feMergeNode in="shadowMatrixOuter1"/><feMergeNode in="shadowMatrixOuter2"/></feMerge></filter><filter id="o" height="179.3%" width="209.5%" x="-54.7%" y="-36.8%"><feGaussianBlur in="SourceAlpha" result="shadowBlurInner1" stdDeviation="2.5"/><feOffset dx="0" dy="3" in="shadowBlurInner1" result="shadowOffsetInner1"/><feComposite in="shadowOffsetInner1" in2="SourceAlpha" k2="-1" k3="1" operator="arithmetic" result="shadowInnerInner1"/><feColorMatrix in="shadowInnerInner1" type="matrix" values="0 0 0 0 1   0 0 0 0 1   0 0 0 0 1  0 0 0 1 0"/></filter><path id="p" d="m35.3258895 0 15.8357435 15.2266765h-15.8357435z"/><filter id="q" height="586%" width="567.3%" x="-233.6%" y="-229.9%"><feOffset dx="0" dy="2" in="SourceAlpha" result="shadowOffsetOuter1"/><feGaussianBlur in="shadowOffsetOuter1" result="shadowBlurOuter1" stdDeviation="1.5"/><feColorMatrix in="shadowBlurOuter1" result="shadowMatrixOuter1" type="matrix" values="0 0 0 0 0   0 0 0 0 0   0 0 0 0 0  0 0 0 0.0896252185 0"/><feOffset dx="0" dy="2" in="SourceAlpha" result="shadowOffsetOuter2"/><feGaussianBlur in="shadowOffsetOuter2" result="shadowBlurOuter2" stdDeviation="12"/><feColorMatrix in="shadowBlurOuter2" result="shadowMatrixOuter2" type="matrix" values="0 0 0 0 0   0 0 0 0 0   0 0 0 0 0  0 0 0 0.0570367133 0"/><feMerge><feMergeNode in="shadowMatrixOuter1"/><feMergeNode in="shadowMatrixOuter2"/></feMerge></filter><filter id="r" height="467.8%" width="453.6%" x="-176.8%" y="-170.8%"><feGaussianBlur in="SourceAlpha" result="shadowBlurInner1" stdDeviation="2.5"/><feOffset dx="0" dy="3" in="shadowBlurInner1" result="shadowOffsetInner1"/><feComposite in="shadowOffsetInner1" in2="SourceAlpha" k2="-1" k3="1" operator="arithmetic" result="shadowInnerInner1"/><feColorMatrix in="shadowInnerInner1" type="matrix" values="0 0 0 0 1   0 0 0 0 1   0 0 0 0 1  0 0 0 1 0"/></filter><circle id="s" cx="48.217814" cy="48.217814" r="48.217814"/><filter id="t" height="174.7%" width="174.7%" x="-37.3%" y="-24.9%"><feOffset dx="0" dy="12" in="SourceAlpha" result="shadowOffsetOuter1"/><feGaussianBlur in="shadowOffsetOuter1" result="shadowBlurOuter1" stdDeviation="10"/><feColorMatrix in="shadowBlurOuter1" result="shadowMatrixOuter1" type="matrix" values="0 0 0 0 0   0 0 0 0 0   0 0 0 0 0  0 0 0 0.0509997815 0"/><feOffset dx="0" dy="1" in="SourceAlpha" result="shadowOffsetOuter2"/><feGaussianBlur in="shadowOffsetOuter2" result="shadowBlurOuter2" stdDeviation="1"/><feColorMatrix in="shadowBlurOuter2" result="shadowMatrixOuter2" type="matrix" values="0 0 0 0 0   0 0 0 0 0   0 0 0 0 0  0 0 0 0.0975743007 0"/><feMerge><feMergeNode in="shadowMatrixOuter1"/><feMergeNode in="shadowMatrixOuter2"/></feMerge></filter><circle id="u" cx="48.217814" cy="48.217814" r="48.217814"/><filter id="v" height="177.8%" width="177.8%" x="-38.9%" y="-26.4%"><feOffset dx="0" dy="12" in="SourceAlpha" result="shadowOffsetOuter1"/><feGaussianBlur in="shadowOffsetOuter1" result="shadowBlurOuter1" stdDeviation="10.5"/><feColorMatrix in="shadowBlurOuter1" result="shadowMatrixOuter1" type="matrix" values="0 0 0 0 0   0 0 0 0 0   0 0 0 0 0  0 0 0 0.0509997815 0"/><feOffset dx="0" dy="1" in="SourceAlpha" result="shadowOffsetOuter2"/><feGaussianBlur in="shadowOffsetOuter2" result="shadowBlurOuter2" stdDeviation="1"/><feColorMatrix in="shadowBlurOuter2" result="shadowMatrixOuter2" type="matrix" values="0 0 0 0 0   0 0 0 0 0   0 0 0 0 0  0 0 0 0.0975743007 0"/><feMerge><feMergeNode in="shadowMatrixOuter1"/><feMergeNode in="shadowMatrixOuter2"/></feMerge></filter><circle id="w" cx="48.140666" cy="48.140666" r="48.140666"/><filter id="x" height="174.8%" width="174.8%" x="-37.4%" y="-24.9%"><feOffset dx="0" dy="12" in="SourceAlpha" result="shadowOffsetOuter1"/><feGaussianBlur in="shadowOffsetOuter1" result="shadowBlurOuter1" stdDeviation="10"/><feColorMatrix in="shadowBlurOuter1" result="shadowMatrixOuter1" type="matrix" values="0 0 0 0 0   0 0 0 0 0   0 0 0 0 0  0 0 0 0.0509997815 0"/><feOffset dx="0" dy="1" in="SourceAlpha" result="shadowOffsetOuter2"/><feGaussianBlur in="shadowOffsetOuter2" result="shadowBlurOuter2" stdDeviation="1"/><feColorMatrix in="shadowBlurOuter2" result="shadowMatrixOuter2" type="matrix" values="0 0 0 0 0   0 0 0 0 0   0 0 0 0 0  0 0 0 0.0975743007 0"/><feMerge><feMergeNode in="shadowMatrixOuter1"/><feMergeNode in="shadowMatrixOuter2"/></feMerge></filter><circle id="y" cx="48.217814" cy="48.217814" r="48.217814"/><filter id="z" height="174.7%" width="174.7%" x="-37.3%" y="-24.9%"><feOffset dx="0" dy="12" in="SourceAlpha" result="shadowOffsetOuter1"/><feGaussianBlur in="shadowOffsetOuter1" result="shadowBlurOuter1" stdDeviation="10"/><feColorMatrix in="shadowBlurOuter1" result="shadowMatrixOuter1" type="matrix" values="0 0 0 0 0   0 0 0 0 0   0 0 0 0 0  0 0 0 0.0509997815 0"/><feOffset dx="0" dy="1" in="SourceAlpha" result="shadowOffsetOuter2"/><feGaussianBlur in="shadowOffsetOuter2" result="shadowBlurOuter2" stdDeviation="1"/><feColorMatrix in="shadowBlurOuter2" result="shadowMatrixOuter2" type="matrix" values="0 0 0 0 0   0 0 0 0 0   0 0 0 0 0  0 0 0 0.0975743007 0"/><feMerge><feMergeNode in="shadowMatrixOuter1"/><feMergeNode in="shadowMatrixOuter2"/></feMerge></filter><path id="A" d="m0 0 35.4027377.00675559 15.7497732 15.24497721.0091221 55.4000462-51.1500011-.0097605z"/><filter id="B" height="204.7%" width="244.6%" x="-72.3%" y="-49.5%"><feOffset dx="0" dy="2" in="SourceAlpha" result="shadowOffsetOuter1"/><feGaussianBlur in="shadowOffsetOuter1" result="shadowBlurOuter1" stdDeviation="1.5"/><feColorMatrix in="shadowBlurOuter1" result="shadowMatrixOuter1" type="matrix" values="0 0 0 0 0   0 0 0 0 0   0 0 0 0 0  0 0 0 0.0896252185 0"/><feOffset dx="0" dy="2" in="SourceAlpha" result="shadowOffsetOuter2"/><feGaussianBlur in="shadowOffsetOuter2" result="shadowBlurOuter2" stdDeviation="12"/><feColorMatrix in="shadowBlurOuter2" result="shadowMatrixOuter2" type="matrix" values="0 0 0 0 0   0 0 0 0 0   0 0 0 0 0  0 0 0 0.0570367133 0"/><feMerge><feMergeNode in="shadowMatrixOuter1"/><feMergeNode in="shadowMatrixOuter2"/></feMerge></filter><filter id="C" height="179.3%" width="209.5%" x="-54.7%" y="-36.8%"><feGaussianBlur in="SourceAlpha" result="shadowBlurInner1" stdDeviation="2.5"/><feOffset dx="0" dy="3" in="shadowBlurInner1" result="shadowOffsetInner1"/><feComposite in="shadowOffsetInner1" in2="SourceAlpha" k2="-1" k3="1" operator="arithmetic" result="shadowInnerInner1"/><feColorMatrix in="shadowInnerInner1" type="matrix" values="0 0 0 0 1   0 0 0 0 1   0 0 0 0 1  0 0 0 1 0"/></filter><path id="D" d="m35.3258895 0 15.8357435 15.2266765h-15.8357435z"/><filter id="E" height="586%" width="567.3%" x="-233.6%" y="-229.9%"><feOffset dx="0" dy="2" in="SourceAlpha" result="shadowOffsetOuter1"/><feGaussianBlur in="shadowOffsetOuter1" result="shadowBlurOuter1" stdDeviation="1.5"/><feColorMatrix in="shadowBlurOuter1" result="shadowMatrixOuter1" type="matrix" values="0 0 0 0 0   0 0 0 0 0   0 0 0 0 0  0 0 0 0.0896252185 0"/><feOffset dx="0" dy="2" in="SourceAlpha" result="shadowOffsetOuter2"/><feGaussianBlur in="shadowOffsetOuter2" result="shadowBlurOuter2" stdDeviation="12"/><feColorMatrix in="shadowBlurOuter2" result="shadowMatrixOuter2" type="matrix" values="0 0 0 0 0   0 0 0 0 0   0 0 0 0 0  0 0 0 0.0570367133 0"/><feMerge><feMergeNode in="shadowMatrixOuter1"/><feMergeNode in="shadowMatrixOuter2"/></feMerge></filter><filter id="F" height="467.8%" width="453.6%" x="-176.8%" y="-170.8%"><feGaussianBlur in="SourceAlpha" result="shadowBlurInner1" stdDeviation="2.5"/><feOffset dx="0" dy="3" in="shadowBlurInner1" result="shadowOffsetInner1"/><feComposite in="shadowOffsetInner1" in2="SourceAlpha" k2="-1" k3="1" operator="arithmetic" result="shadowInnerInner1"/><feColorMatrix in="shadowInnerInner1" type="matrix" values="0 0 0 0 1   0 0 0 0 1   0 0 0 0 1  0 0 0 1 0"/></filter></defs><g fill="none" fill-rule="evenodd" transform="translate(19 8)"><path d="m198.840559 307.138946c32.275981 0 55.696534 1.603186 83.178896-27.712225 27.482362-29.315412 29.546172-47.630674 29.546172-77.850528 0-35.270105-13.833727-58.481207-37.101189-78.785169-19.959323-17.41717-41.614566-29.5334701-75.967518-29.5334701-57.254921 0-110.4545041 46.9394961-110.4545041 108.3186391s44.4252341 105.562753 110.7981431 105.562753z" fill="#f3f7fc"/><g transform="translate(187.341396 263.725228)"><use fill="#000" filter="url(#b)" xlink:href="#a"/><use fill="#fff" fill-rule="evenodd" xlink:href="#a"/><use fill="#000" filter="url(#c)" xlink:href="#a"/></g><g transform="translate(201.193203 290.608694)"><path d="m23.3068909 9.23262765c-.0017402-.08010045-.0647525-.14365705-.1430221-.14365705h-2.6560258c0 5.0223853-3.9628526 9.0923776-8.8515039 9.0923776-4.89071535 0-8.85385121-4.0699923-8.85385121-9.0923776h-2.65800889c-.07826958 0-.14128185.0635566-.14330536.14307511l-.00117364.00473868c0 .0017874.00117364.00295129.00117364.00532064.0800098 6.53078437 5.27716629 11.81770487 11.65516546 11.81770487 6.3759351 0 11.5702587-5.2881259 11.6505518-11.81770487 0-.00236935.0005666-.00415675.0005666-.00532064 0 0-.0005666-.00236934-.0005666-.00415674" fill="#919caa"/><path d="m11.6547197 0c-4.88784063 0-8.84919241 4.06935839-8.84919241 9.0889706h17.69640291c0-5.01961221-3.9611091-9.0889706-8.8472105-9.0889706" fill="#c3cbd6"/><path d="m20.5019302 9.0889706c0 5.0207638-3.961132 9.0889706-8.8473116 9.0889706-4.88791884 0-8.84909131-4.0682068-8.84909131-9.0889706z" fill="#444e5a"/></g><g transform="translate(187.341396 263.725228)"><use fill="#000" filter="url(#e)" xlink:href="#d"/><use fill="#f9fbfe" fill-rule="evenodd" xlink:href="#d"/><use fill="#000" filter="url(#f)" xlink:href="#d"/></g><g transform="translate(272.569671 147.13938)"><use fill="#000" filter="url(#h)" xlink:href="#g"/><use fill="#fff" fill-rule="evenodd" xlink:href="#g"/><use fill="#000" filter="url(#i)" xlink:href="#g"/></g><g transform="translate(286.421478 174.022846)"><path d="m23.3068909 9.23262765c-.0017402-.08010045-.0647525-.14365705-.1430221-.14365705h-2.6560258c0 5.0223853-3.9628526 9.0923776-8.8515039 9.0923776-4.89071535 0-8.85385121-4.0699923-8.85385121-9.0923776h-2.65800889c-.07826958 0-.14128185.0635566-.14330536.14307511l-.00117364.00473868c0 .0017874.00117364.00295129.00117364.00532064.0800098 6.53078437 5.27716629 11.81770487 11.65516546 11.81770487 6.3759351 0 11.5702587-5.2881259 11.6505518-11.81770487 0-.00236935.0005666-.00415675.0005666-.00532064 0 0-.0005666-.00236934-.0005666-.00415674" fill="#919caa"/><path d="m11.6547197 0c-4.88784063 0-8.84919241 4.06935839-8.84919241 9.0889706h17.69640291c0-5.01961221-3.9611091-9.0889706-8.8472105-9.0889706" fill="#c3cbd6"/><path d="m20.5019302 9.0889706c0 5.0207638-3.961132 9.0889706-8.8473116 9.0889706-4.88791884 0-8.84909131-4.0682068-8.84909131-9.0889706z" fill="#444e5a"/></g><g transform="translate(272.569671 147.13938)"><use fill="#000" filter="url(#k)" xlink:href="#j"/><use fill="#f9fbfe" fill-rule="evenodd" xlink:href="#j"/><use fill="#000" filter="url(#l)" xlink:href="#j"/></g><g transform="translate(157.591904 64.323226)"><use fill="#000" filter="url(#n)" xlink:href="#m"/><use fill="#fff" fill-rule="evenodd" xlink:href="#m"/><use fill="#000" filter="url(#o)" xlink:href="#m"/></g><g transform="translate(171.443711 91.206692)"><path d="m23.3068909 9.23262765c-.0017402-.08010045-.0647525-.14365705-.1430221-.14365705h-2.6560258c0 5.0223853-3.9628526 9.0923776-8.8515039 9.0923776-4.89071535 0-8.85385121-4.0699923-8.85385121-9.0923776h-2.65800889c-.07826958 0-.14128185.0635566-.14330536.14307511l-.00117364.00473868c0 .0017874.00117364.00295129.00117364.00532064.0800098 6.53078437 5.27716629 11.81770487 11.65516546 11.81770487 6.3759351 0 11.5702587-5.2881259 11.6505518-11.81770487 0-.00236935.0005666-.00415675.0005666-.00532064 0 0-.0005666-.00236934-.0005666-.00415674" fill="#919caa"/><path d="m11.6547197 0c-4.88784063 0-8.84919241 4.06935839-8.84919241 9.0889706h17.69640291c0-5.01961221-3.9611091-9.0889706-8.8472105-9.0889706" fill="#c3cbd6"/><path d="m20.5019302 9.0889706c0 5.0207638-3.961132 9.0889706-8.8473116 9.0889706-4.88791884 0-8.84909131-4.0682068-8.84909131-9.0889706z" fill="#444e5a"/></g><g transform="translate(157.591904 64.323226)"><use fill="#000" filter="url(#q)" xlink:href="#p"/><use fill="#f9fbfe" fill-rule="evenodd" xlink:href="#p"/><use fill="#000" filter="url(#r)" xlink:href="#p"/></g><path d="m220.784239 186.578814c.195996-.478734.793724-.876783 1.324496-.62337.511295.243252 1.02198.487101 1.533275.730951 3.495671 1.666904 5.836851 3.334405 9.332522 5.001308.698161.3335 1.115718 1.073417.996416 1.843814-.096172.615003-.732247 1.292762-1.417625.965836-.510686-.24385-1.02198-.487699-1.533275-.730951-2.43919-1.163743-4.316372-2.327485-6.416199-3.491025l.039013.190351.199716 1.04889c1.148586 6.301242 1.18389 13.085401-1.366495 19.080636-1.941093 4.563215-5.399635 8.400859-9.856418 10.726993-4.351481 2.270551-9.307993 3.191561-14.213985 2.974009-5.077641-.224724-10.066413-1.647778-14.497632-4.081493-4.405653-2.421164-8.17645-5.988062-10.594751-10.357035-.331732-.599463-.352428-1.558127.276343-1.994427.624509-.433311 1.390234.01793 1.710401.596476.281821.508617.580685 1.00827.900244 1.494774.088259.133878.178344.265963.268429.398646l.043241.065715c.005162.006006.019576.024773.049888.065773.165562.225322.331733.450046.50399.670586.355472.456621.728595.899495 1.117544 1.32922s.793115.845704 1.211281 1.246741c.497294.476941.537467.514594 1.125456 1.002294.899026.745295 1.847355 1.432019 2.835858 2.058975.496686.314375 1.003111.613808 1.518058.898299.142432.078295.284864.155992.428513.232494l-.050698-.027704-.012893-.006327c-.013052-.007326.025986.01262.077544.039147l.081779.042141c.040638.020951.07719.039786.09296.047773.25443.129694.510686.255205.768768.37713 4.344176 2.053596 8.950983 2.756105 13.751063 2.713073 2.372041-.021516 4.154589.015891 6.496805-.605089 1.099283-.291065 2.178479-.654449 3.225415-1.093737.632423-.264768.830854-.358005 1.348844-.624566.517381-.266561 1.023806-.552845 1.517449-.85945.958068-.594683 1.867442-1.264074 2.714121-2.00399.784593-.685528 1.463884-1.390182 2.220479-2.333904 1.555795-1.944223 2.537602-3.811944 3.347152-6.221154.799811-2.383511 1.239889-5.445975 1.26241-7.999224.027426-3.08526-.347078-6.147661-.983321-9.145989l-1.380518 3.371056-2.232576 5.451951c-.27269.665806-1.028067.877381-1.62336.465586-.61964-.427932-.885635-1.33938-.603814-2.027897 1.488232-3.634435 2.976464-7.26887 4.464087-10.903306zm-21.604076-15.312501c7.916542-.155993 16.304205 2.872405 20.670294 9.661346.369471.574361.32382 1.57785-.275733 1.994427-.649466.450644-1.354931-.043032-1.711011-.596475-.084607-.132086-.171649-.262976-.25869-.393268l-.028178-.041753-.025387-.034151c-.069998-.094731-.140301-.189013-.211441-.282623l-.216463-.27859c-.293995-.368762-.604423-.723779-.929461-1.065646-.162518-.171532-.329297-.339477-.49912-.503239-.099824-.096823-.200257-.191255-.301907-.285089-.014305-.013248-.024525-.022811-.031411-.029357l-.00481-.004305c-.246817-.215368-.491779-.419372-.742061-.616914l-.379435-.291353c-1.694576-1.267062-3.129852-2.007576-5.113553-2.737929-7.093602-2.611224-15.337887-1.903517-21.964628 1.703426-3.67158 1.998013-6.952724 4.706592-9.143986 8.210137-2.119432 3.387073-3.271959 7.389838-3.625139 11.433202l7.342554-6.987907c.561815-.534317 1.435276.101604 1.710401.596475.376776.677161.281821 1.463098-.276342 1.99383-.390775.372349-.78155.744697-1.172325 1.116449l-8.218449 7.821716c-.577033.548661-1.413973-.115351-1.711011-.596476-2.070742-3.357714-4.141484-6.71483-6.212227-10.072543-.359123-.582132-.332341-1.571874.275734-1.994427.642161-.445863 1.364669.035262 1.71101.596475l4.153297 6.734651c.46495-4.947204 1.94445-9.761016 4.863563-13.893969 5.023468-7.114074 13.632083-10.984589 22.325915-11.15612z" fill="#bec7d3"/><path d="m199.804021 393.979761c107.01827 0 193.773719-86.755449 193.773719-193.773719 0-107.0182703-86.755449-193.77371938-193.773719-193.77371938-107.0182695 0-193.77371854 86.75544908-193.77371854 193.77371938 0 107.01827 86.75544904 193.773719 193.77371854 193.773719z" stroke="#dce3eb" stroke-dasharray="5.628282 8.844443" stroke-linecap="round" stroke-linejoin="round" stroke-width="2.412121"/><g transform="translate(32.965653 302.319163)"><use fill="#000" filter="url(#t)" xlink:href="#s"/><use fill="#fff" fill-rule="evenodd" xlink:href="#s"/></g><path d="m59.768368 329.121878h42.882151v42.882151h-42.882151z"/><g fill-rule="nonzero" transform="translate(62.448502 332.695391)"><path d="m6.64485929 0h24.23419271c3.6742163 0 6.6448593 2.97250079 6.6448593 6.64901492v23.31066408c0 3.6765141-2.970643 6.6490149-6.6448593 6.6490149h-24.23419271c-3.67421631 0-6.64485929-2.9725008-6.64485929-6.6490149v-23.31066408c0-3.67651413 2.97064298-6.64901492 6.64485929-6.64901492z" fill="#470137"/><g fill="#ff61f6"><path d="m19.7436631 9.62151571-4.6934223 7.74414679 5.0063172 8.213489c.0312894.062579.0469342.125158.0312894.1877369-.0156447.062579-.0782237.0156448-.1720921.0312895h-3.5826457c-.2503159 0-.422408-.0156447-.5319212-.1720922-.3285396-.6570791-.6727239-1.2985135-1.0012634-1.9555926-.3285396-.6414344-.6883686-1.2985135-1.0638424-1.9712373-.3754738-.6727239-.7509476-1.3454478-1.1264214-2.0338164h-.0312894c-.3285396.6727239-.6883686 1.3454478-1.0481977 2.0181716-.359829.6727239-.7196581 1.3454477-1.0638424 2.0025269-.359829.6570791-.71965806 1.3298029-1.0794871 1.9712373-.06257897.1564474-.1877369.1720922-.35982905.1720922h-3.44184302c-.06257896 0-.10951318.0312895-.10951318-.0469342-.01564474-.062579 0-.125158.03128948-.1720922l4.86551447-7.9788179-4.74035654-8.02575213c-.04693423-.06257896-.06257897-.12515793-.03128948-.15644741.03128948-.04693422.09386844-.06257896.15644741-.06257896h3.5513562c.07822371 0 .15644741.01564474.21902637.03128948.06257897.03128948.10951319.0782237.15644741.14080267.29725008.67272385.64143443 1.34544775 1.00126343 2.01817155.3754738.6727239.7353028 1.329803 1.1264213 1.9868821.3754738.6570792.7196581 1.3141583 1.0481977 1.9868821h.0312895c.3285395-.6883686.6727238-1.3610924 1.0169081-2.0181715.3441843-.6570792.7040134-1.3141583 1.0638424-1.9712374.3598291-.6570791.7040134-1.329803 1.0481977-1.97123737.0156447-.06257897.0469342-.12515793.0938684-.15644741.062579-.03128948.125158-.04693422.2033817-.03128948h3.3010403c.0782237-.01564474.1564474.03128948.1720922.10951318.0156447.01564474-.0156448.07822371-.0469343.10951319z"/><path d="m26.9715335 26.1267175c-1.1577109.0156447-2.3154217-.2190264-3.3636193-.7040134-.9856187-.4536975-1.7991453-1.204645-2.3623559-2.1276848-.5788554-.9543292-.8604608-2.1433295-.8604608-3.5670009-.0156447-1.1577108.2816054-2.2997769.8604608-3.3010404.5945001-1.0169081 1.4549609-1.8617241 2.4875138-2.4249348 1.0951319-.6101449 2.4092901-.907395 3.9581195-.907395.0782237 0 .1877368 0 .3285395.0156448.1408027.0156447.2972501.0156447.484987.0312894v-4.94373812c0-.10951319.0469342-.17209215.1564474-.17209215h3.1758824c.0782237-.01564474.1408027.04693422.1564474.10951319v.03128948 14.8937934c0 .2816054.0156448.5945002.0312895.9386845.0312895.3285395.0469342.6414344.062579.907395 0 .1095131-.0469342.2033816-.1564474.2503158-.8135266.3441843-1.6739873.5945002-2.5500928.7509476-.7978818.1408027-1.5957636.2190264-2.4092901.2190264zm1.5331846-3.1289482v-6.8836861c-.1408027-.0312895-.2816053-.0625789-.422408-.0782237-.1720922-.0156447-.3441843-.0312895-.5162765-.0312895-.6101449 0-1.2202898.125158-1.7678557.4067633-.5319212.2659606-.9856187.6570791-1.329803 1.1577108s-.5162764 1.1733556-.5162764 1.9868821c-.0156448.547566.0782237 1.0951319.2659606 1.6114084.1564474.422408.3911185.7978818.7040133 1.1107766.2972501.2816053.6570791.5006317 1.0638424.6257896.422408.1408027.8604607.2033816 1.2985135.2033816.2346711 0 .4536975-.0156447.6570791-.0312894.2033816.0156447.3754738-.0156448.5632107-.0782237z"/></g></g><g transform="translate(303.123204 270.15755)"><use fill="#000" filter="url(#v)" xlink:href="#u"/><use fill="#fff" fill-rule="evenodd" xlink:href="#u"/></g><g fill-rule="nonzero" transform="translate(340.084454 301.892538)"><path d="m6.08866891 32.5518872c2.88259005 0 5.22208339-2.3738977 5.22208339-5.2988788v-5.2988788h-5.22208339c-2.88259006 0-5.22208344 2.3738977-5.22208344 5.2988788s2.33949338 5.2988788 5.22208344 5.2988788z" fill="#0acf83"/><path d="m.86658547 16.6552508c0-2.924981 2.33949338-5.2988787 5.22208344-5.2988787h5.22208339v10.5977575h-5.22208339c-2.88259006 0-5.22208344-2.3738977-5.22208344-5.2988788z" fill="#a259ff"/><path d="m.86658547 6.05749329c0-2.92498108 2.33949338-5.29887877 5.22208344-5.29887877h5.22208339v10.59775758h-5.22208339c-2.88259006 0-5.22208344-2.37389772-5.22208344-5.29887881z" fill="#f24e1e"/><path d="m11.3107523.75861452h5.2220835c2.88259 0 5.2220834 2.37389769 5.2220834 5.29887877 0 2.92498109-2.3394934 5.29887881-5.2220834 5.29887881h-5.2220835z" fill="#ff7262"/><path d="m21.7549192 16.6552508c0 2.9249811-2.3394934 5.2988788-5.2220834 5.2988788-2.8825901 0-5.2220835-2.3738977-5.2220835-5.2988788 0-2.924981 2.3394934-5.2988787 5.2220835-5.2988787 2.88259 0 5.2220834 2.3738977 5.2220834 5.2988787z" fill="#1abcfe"/></g><g transform="translate(0 32.161613)"><use fill="#000" filter="url(#x)" xlink:href="#w"/><use fill="#fff" fill-rule="evenodd" xlink:href="#w"/></g><path d="m28.843698 61.005311h38.593936v38.593936h-38.593936z"/><g fill-rule="nonzero"><path d="m5.98004994 0h21.80959386c3.3066159 0 5.98005 2.67343409 5.98005 5.98004994v20.96535156c0 3.3066158-2.6734341 5.9800499-5.98005 5.9800499h-21.80959386c-3.30661585 0-5.98004994-2.6734341-5.98004994-5.9800499v-20.96535156c0-3.30661585 2.67343409-5.98004994 5.98004994-5.98004994z" fill="#001e36" transform="translate(31.255819 63.417432)"/><g fill="#31a8ff" transform="translate(38.854 71.719148)"><path d="m0 14.7883117v-14.47875617c0-.09849494.04221212-.15477777.14070706-.15477777.239202 0 .46433329 0 .78795952-.0140707.33769694-.01407071.68946458-.01407071 1.06937363-.02814141.37990906-.01407071.78795953-.01407071 1.2241514-.02814142.43619188-.0140707.85831305-.0140707 1.28043423-.0140707 1.15379787 0 2.11060586.14070706 2.89856538.43619188.70353528.23920199 1.35078775.63318175 1.88547457 1.15379787.45026258.45026258.80203021.9990201 1.02716151 1.60406045.2110606.59096964.3236262 1.19600999.3236262 1.82919175 0 1.21008069-.2814141 2.2091008-.84424231 2.99706032-.56282823.78795952-1.35078775 1.37892916-2.26538362 1.7166261-.95680799.3517676-2.01211092.478404-3.16590879.478404-.33769694 0-.56282823 0-.70353529-.0140707s-.33769694-.0140707-.60504035-.0140707v4.5166965c.01407071.098495-.05628282.1829192-.15477776.1969899-.0140707 0-.02814141 0-.05628282 0h-2.67343409c-.11256565 0-.16884847-.0562828-.16884847-.1829192zm3.06741385-11.91788773v4.72775713c.19698988.0140707.37990906.02814141.54875752.02814141h.74574741c.54875752 0 1.09751505-.08442424 1.61813116-.2532727.45026258-.12663636.84424234-.39397976 1.15379787-.74574741.29548482-.35176764.43619188-.83017164.43619188-1.44928269.0140707-.43619188-.09849494-.87238375-.32362624-1.25229281-.23920199-.36583835-.57689893-.64725246-.9849494-.80203023-.52061611-.21106058-1.08344434-.29548482-1.66034327-.28141411-.36583835 0-.68946459 0-.95680799.0140707-.28141412-.0140707-.478404 0-.57689894.01407071z"/><path d="m19.4175739 6.73986805c-.4221212-.22513129-.8723837-.37990906-1.3507877-.478404-.5206161-.11256564-1.0412323-.18291917-1.5759191-.18291917-.2814141-.01407071-.5768989.02814141-.8442423.09849494-.1829192.04221212-.337697.14070706-.4361919.28141411-.0703535.11256565-.1125656.25327271-.1125656.37990906s.0562828.2532727.140707.36583835c.1266364.15477776.2954848.28141411.478404.37990905.3236262.16884847.6613232.32362623.9990201.46433329.7598181.2532727 1.4914948.60504035 2.1668887 1.02716152.4643333.29548482.8442423.68946458 1.1115858 1.1678686.2251312.4502626.3376969.9427373.3236262 1.4492827.0140707.6613231-.1829192 1.3226463-.5487575 1.8714038-.3939798.5628283-.9427373.9990201-1.5759191 1.2522928-.6894646.2954849-1.5337069.4502626-2.5467977.4502626-.6472525 0-1.2804342-.0562828-1.913616-.1829192-.4924747-.0844242-.9849494-.2392019-1.435212-.4502625-.0984949-.0562829-.1688485-.1547778-.1547777-.2673434v-2.4483028c0-.0422122.0140707-.098495.0562828-.1266364s.0844242-.0140707.1266363.0140707c.5487575.3236262 1.1256565.5487575 1.7447675.6894646.5346869.1407071 1.0975151.2110606 1.6603433.2110606.5346868 0 .9145959-.0703535 1.1678686-.1969899.2251313-.0984949.379909-.3376969.379909-.5909696 0-.1969899-.1125656-.3799091-.3376969-.5628283-.2251313-.1829191-.6894646-.3939797-1.3789292-.6613231-.7176059-.2532727-1.3789291-.5909697-1.9980402-1.01309085-.4361918-.30955553-.8020302-.717606-1.0693736-1.19600999-.2251313-.45026258-.3376969-.94273729-.3236262-1.43521199 0-.60504034.1688484-1.18193928.478404-1.70255539.3517676-.56282823.8723837-1.01309081 1.4774241-1.29450493.6613231-.33769694 1.4914948-.4924747 2.4905149-.4924747.5768989 0 1.1678686.04221212 1.7447675.12663635.4221212.05628283.8301716.16884847 1.2100807.32362623.0562828.01407071.1125656.07035353.140707.12663636.0140707.05628282.0281414.11256564.0281414.16884847v2.29352503c0 .05628282-.0281414.11256565-.0703535.14070706-.1266363.02814141-.1969899.02814141-.2532727 0z"/></g></g><g transform="translate(270.15755)"><use fill="#000" filter="url(#z)" xlink:href="#y"/><use fill="#fff" fill-rule="evenodd" xlink:href="#y"/></g><g fill-rule="nonzero" transform="matrix(-1 0 0 1 336.716719 31.436996)"><path d="m8.09557668 1.05786111 10.00620442-1.05786111 10.0062044 1.05786111 7.7467388 10.39931259-17.7529432 20.6731163-17.75294336-20.6731163z" fill="#fdb300"/><g transform="translate(0 11.457174)"><path d="m7.53966984 0 10.56212726 20.6731231-17.75295936-20.6731231z" fill="#ea6c00"/><path d="m25.2925811 0 10.5621273 20.6731231-17.7529594-20.6731231z" fill="#ea6c00" transform="matrix(-1 0 0 1 53.956458 0)"/><path d="m7.53966984 0h21.12425446l-10.5621272 20.6731231z" fill="#fdad00"/></g><path d="m18.1017971 0-10.00624959 1.05784713-.55587767 10.39931897z" fill="#fdd231"/><path d="m28.6638698 0-10.0062496 1.05784713-.5558777 10.39931897z" fill="#fdd231" transform="matrix(-1 0 0 1 46.765612 0)"/><path d="m28.1079534 11.4571661 7.7468001-10.39931897-.555968 10.39931897z" fill="#fdad00" transform="matrix(-1 0 0 1 63.962706 0)"/><path d="m.34883774 11.4571661 7.74670977-10.39931897-.55587767 10.39931897z" fill="#fdad00"/><path d="m18.1017971 0-10.56212726 11.4571661h21.12425446z" fill="#feeeb7"/></g><g transform="translate(70.755549 180.105033)"><use fill="#000" filter="url(#B)" xlink:href="#A"/><use fill="#fff" fill-rule="evenodd" xlink:href="#A"/><use fill="#000" filter="url(#C)" xlink:href="#A"/></g><g transform="translate(84.677781 206.988499)"><path d="m23.3068909 9.23262765c-.0017402-.08010045-.0647525-.14365705-.1430221-.14365705h-2.6560258c0 5.0223853-3.9628526 9.0923776-8.8515039 9.0923776-4.89071535 0-8.85385121-4.0699923-8.85385121-9.0923776h-2.65800889c-.07826958 0-.14128185.0635566-.14330536.14307511l-.00117364.00473868c0 .0017874.00117364.00295129.00117364.00532064.0800098 6.53078437 5.27716629 11.81770487 11.65516546 11.81770487 6.3759351 0 11.5702587-5.2881259 11.6505518-11.81770487 0-.00236935.0005666-.00415675.0005666-.00532064 0 0-.0005666-.00236934-.0005666-.00415674" fill="#919caa"/><path d="m11.6547197 0c-4.88784063 0-8.84919241 4.06935839-8.84919241 9.0889706h17.69640291c0-5.01961221-3.9611091-9.0889706-8.8472105-9.0889706" fill="#c3cbd6"/><path d="m20.5019302 9.0889706c0 5.0207638-3.961132 9.0889706-8.8473116 9.0889706-4.88791884 0-8.84909131-4.0682068-8.84909131-9.0889706z" fill="#444e5a"/></g><g transform="translate(70.755549 180.105033)"><use fill="#000" filter="url(#E)" xlink:href="#D"/><use fill="#f9fbfe" fill-rule="evenodd" xlink:href="#D"/><use fill="#000" filter="url(#F)" xlink:href="#D"/></g></g></svg>