<svg height="320" viewBox="0 0 320 320" width="320" xmlns="http://www.w3.org/2000/svg" xmlns:xlink="http://www.w3.org/1999/xlink"><defs><path id="a" d="m129.49501 0h64.348784l35.9156 44.5005997h-64.348784z"/><filter id="b" height="320.2%" width="197.7%" x="-48.9%" y="-105.6%"><feOffset dx="0" dy="2" in="SourceAlpha" result="shadowOffsetOuter1"/><feGaussianBlur in="shadowOffsetOuter1" result="shadowBlurOuter1" stdDeviation="2"/><feColorMatrix in="shadowBlurOuter1" result="shadowMatrixOuter1" type="matrix" values="0 0 0 0 0   0 0 0 0 0   0 0 0 0 0  0 0 0 0.0896252185 0"/><feOffset dx="0" dy="2" in="SourceAlpha" result="shadowOffsetOuter2"/><feGaussianBlur in="shadowOffsetOuter2" result="shadowBlurOuter2" stdDeviation="16"/><feColorMatrix in="shadowBlurOuter2" result="shadowMatrixOuter2" type="matrix" values="0 0 0 0 0   0 0 0 0 0   0 0 0 0 0  0 0 0 0.0570367133 0"/><feMerge><feMergeNode in="shadowMatrixOuter1"/><feMergeNode in="shadowMatrixOuter2"/></feMerge></filter><filter id="c" height="266.3%" width="173.8%" x="-36.9%" y="-78.7%"><feGaussianBlur in="SourceAlpha" result="shadowBlurInner1" stdDeviation="3"/><feOffset dx="0" dy="4" in="shadowBlurInner1" result="shadowOffsetInner1"/><feComposite in="shadowOffsetInner1" in2="SourceAlpha" k2="-1" k3="1" operator="arithmetic" result="shadowInnerInner1"/><feColorMatrix in="shadowInnerInner1" type="matrix" values="0 0 0 0 1   0 0 0 0 1   0 0 0 0 1  0 0 0 1 0"/></filter></defs><g fill="none" fill-rule="evenodd"><path d="m.5.5h319v319h-319z" fill="#d8d8d8" opacity="0" stroke="#979797"/><path d="m141.535091 139.069228c1.325644-.034377 2.756028 1.334088 2.781962 2.661742.017088.877731-1.08862 1.870054-2.124166 1.906241-1.013432.035383-2.483823-1.600865-2.483622-2.763668.000201-1.112945.669255-1.773958 1.825826-1.804315zm-14.818502-.743558c1.081584.126654 2.845289 1.572317 2.801463 2.296254-.070162 1.159185-1.719678 2.999083-2.633194 2.936963-1.214671-.082627-2.290023-1.266137-2.206793-2.429141.106148-1.484062 1.142096-2.90942 2.038524-2.804076zm7.154838-4.678292c1.61755.090668 3.090957 1.283626 3.075477 2.490055-.014676 1.137271-1.871864 2.586754-3.220627 2.513375-1.078166-.058703-2.218252-1.431791-2.175833-2.620729.054884-1.534322.955734-2.459297 2.320983-2.382701zm16.252746-.394216c.303567.146758.675889.226771.896629.453944.484501.499177 1.197582 1.036149 1.268549 1.623783.150979 1.253672-1.804516 3.304258-2.901379 3.318532-.772789.010052-1.990074-1.276791-1.96615-2.078732.063528-2.15412.928594-3.194893 2.702351-3.317527zm-29.658716.005408c2.029276.05991 2.716424.64111 2.567254 2.489653-.141933 1.759886-.762738 2.609673-1.954289 2.51418-1.605891-.015681-3.015569-1.176474-3.009157-2.477189.006254-1.203412 1.291891-2.559212 2.396192-2.526644zm6.342826-5.338782c.797718.530338 1.595838 1.068115 2.330029 1.680275.225363.187769.393029.63729.345584.927388-.221745 1.349969-.997751 2.33606-2.249212 2.886502-.211894.093281-.564514-.100519-.841344-.193801-1.097465-.369709-1.791649-1.326247-1.712239-2.453265-.0969-1.194366.449319-2.143667 1.590209-2.748791.158016-.083632.426201-.172088.536973-.098308zm14.409751-.090929c1.361831.021511 3.18062 1.452298 3.480167 2.737131.139319.598288-.458769 2.071293-1.023685 2.39416-.739417.422782-1.378919.299747-2.113712-.210688-.867077-.60251-1.656351-1.198387-2.067072-2.200561-.514657-1.255883.421979-2.74095 1.724302-2.720042zm17.804397.794884c.534158.397653 1.146117.947893.885572 1.875281-.211291.752887.083833 1.740586-1.086409 1.94665-.791888.13952-1.545981.487919-2.389737.049857-.152789-.079329-.319514-.142037-.48625-.202786l-.199197-.072897c-.592261-.2215-1.112483-.493625-.910995-1.500487-.257529-1.21065.636687-1.714048 1.536131-2.198952.89884-.484903 1.872868-.475454 2.650885.103334zm-46.241466-.787407c1.267946-.008201 2.896956 1.191995 2.893945 2.13225-.004427 1.374093-1.368469 2.487642-3.038893 2.480639-1.246435-.005461-1.914886-.944509-1.945444-2.733947-.016083-.940254 1.020268-1.872065 2.090392-1.878942zm23.070303-4.338215c.398256.399261 1.021071.931811.976642 1.342732-.101524.944878-.352018 1.96213-1.336299 2.507747-.173898.096498-.331511.221945-.499378.329501-.494955.316835-.997952.839534-1.605489.336336-.660409-.547225-1.603478-.951914-1.589807-2.16357.297134-.718308.478671-1.51864.916532-2.137233.789274-1.115559 2.182065-1.174061 3.137799-.215513zm13.709275-.29826c1.63102-.016686 2.837449 1.069723 2.847334 2.564238.007404 1.147927-1.207669 2.419893-2.332275 2.441605-1.374697.026135-3.071658-1.297498-3.058389-2.386118.018495-1.540754 1.051227-2.604446 2.54333-2.619725zm14.964918-.394799c1.568497.002213 2.95787 1.409076 2.933343 2.970537-.014876.945883-1.22814 2.025255-2.291429 2.037921-1.360222.016686-2.703357-1.418523-2.675412-2.858759.022114-1.1429.975637-2.150904 2.033498-2.149699zm-58.858523-.346729c.882557.229786 1.775567.520889 2.563837.963776.335733.188573.417555.829884.614572 1.265332-.144144 1.428977-.894015 2.602234-1.991079 2.963499-1.196979.394437-2.741352-.064131-3.530627-1.048412-.480481-.598892-.484099-1.928355-.007639-2.761054.509228-.889794 1.573322-1.585385 2.350936-1.383141zm14.87228.342499c1.348361.003628 2.509757 1.075964 2.523025 2.328832.011862 1.148329-.696998 1.893174-1.806928 1.897426-1.573122.006202-2.747585-.951543-2.778947-2.265727-.02533-1.076156.90849-1.963939 2.06285-1.960531zm36.022288-4.629833c1.860003-.028145 2.770503.549839 3.110659 1.85759.285474 1.097466-.849385 2.680237-1.978615 2.760451-1.755261.124242-3.310088-1.774159-2.859763-3.47695.267782-1.012828.973425-1.260105 1.727719-1.141091zm15.188754-.786689c1.3948.00423 3.185847 1.405062 3.471924 2.71603.142535.654579-.413937 2.058829-1.000566 2.400995-.784852.457964-1.423951.239034-2.190911-.26356-.935027-.612764-1.677259-1.289055-2.056014-2.330231-.428211-1.177478.532951-2.527046 1.775567-2.523234zm-27.603586 1.222881c.859034.607738.293917 1.319613.06976 2.042947-.262355.847827-.882393 1.269102-1.538421 1.641666l-.329523.183972c-.109848.061137-.219206.122671-.326586.186349-.541194.321259-2.072499-.737206-2.281177-1.502557-.314021-1.151947.184754-2.674608 1.158582-3.313707.379358-.248885.859437-.34478 1.293678-.510234 1.122194-.197218 1.36545.855818 1.953687 1.271564zm-17.470132-1.205443c1.024892.070966 2.908616 1.656351 2.83564 2.38632-.116401 1.161597-1.750638 2.923291-2.632591 2.83785-1.132447-.109766-2.273739-1.393594-2.199757-2.474575.095493-1.391182 1.125611-2.809906 1.996708-2.749595zm-13.42555.378353c2.029477.13932 2.510963.451531 2.763869 2.14025.059105.393833-.002413.924573-.230591 1.221305-.714287.928594-1.774963 1.323432-2.90158 1.216882-1.03635-.097704-1.746416-.859035-2.086974-1.797882-.532549-1.466772.667647-2.775931 2.455276-2.780555zm52.153909-5.436225c.944878.526519 1.835878 2.309322 1.680878 3.36256-.178924 1.213263-.669657 1.64268-2.094614 1.670223-.140123-.035584-.476259-.074384-.773594-.20325-1.186324-.513651-2.052797-2.648473-1.581364-3.842638.530941-1.345144 1.503764-1.691934 2.768694-.986895zm-28.461495 2.743665c.025733 1.079573-1.294684 2.270924-2.506339 2.283589-1.220903.012866-2.475179-1.195974-2.494478-2.404413-.024326-1.50115.758516-2.178848 2.551372-2.209406 1.398821-.100318 2.412454.781032 2.449445 2.33023zm12.641322-2.329386c1.386759.028145 2.824381 1.153555 2.794829 2.187895-.037796 1.340722-1.383342 2.428538-2.998279 2.424328-1.240404-.00343-2.021034-1.125221-1.972383-2.835048.026738-.939249 1.079774-1.799691 2.175833-1.777175zm-40.878901 1.889032c.028748 1.091636-1.222511 2.286605-2.444822 2.329828-1.208438.04262-2.516994-1.157375-2.554387-2.342895-.046842-1.482453.783043-2.234134 2.503726-2.267305 1.308354-.156408 2.454672.728159 2.495483 2.280372zm14.227591.332678c.023924 1.076558-1.112744 1.927752-2.63058 1.970372-1.052233.029553-2.211417-1.184113-2.239763-2.344906-.039605-1.626195.856019-2.603842 2.41748-2.638823 1.606092-.036187 2.407027.947894 2.452863 3.013357zm57.55049-2.584362c-.060111.432432-.105947.867679-.183347 1.297297-.158619.880144-.322666 1.759484-.507218 2.6342-.109164.518074-.381771.691168-.807771.263962-.567932-.569942-1.133049-1.148127-.981466-2.067875-.076395-.047847-.152789-.095694-.229184-.143541.367699-.539787.643121-1.196779 1.132648-1.581565.216562-.170436.51385-.238181.827091-.285587l.379402-.052396c.126256-.017725.25092-.037467.369845-.064495zm-22.702926-5.329836c.734994.151181 1.683893 1.126013 1.83045 1.865833.258534 1.306746-1.824419 3.449207-2.932741 3.395127-.852802-.041816-1.921118-1.450488-1.875683-2.473972.087049-1.96997 1.184113-3.155892 2.977974-2.786988zm-31.102871-.107073c.986291.088256 2.8475 1.528692 2.847701 2.203979.000402 1.172654-1.694347 3.073467-2.68084 3.006722-1.00539-.068152-2.24298-1.228743-2.21403-2.07652.057497-1.681481 1.063691-3.221833 2.047169-3.134181zm-13.909992-.002895c1.913679.171687 2.725873 1.242213 2.891327 2.965711.079812.830086-1.320216 1.996507-2.296255 2.027467-1.276188.04061-2.67119-1.394801-2.672196-2.749193-.001005-1.334891.882155-2.351138 2.077124-2.243985zm59.306294-.015138c1.678063.029955 3.214998 1.244023 3.154284 2.491865-.052672 1.085805-1.846533 2.514984-3.148052 2.508372-1.067511-.005451-2.300275-1.465187-2.248206-2.662367.068151-1.574328.824657-2.3632 2.241974-2.33787zm-74.2149815.000784c1.6591656.03277 3.2278645 1.282823 3.1492585 2.509556-.069358 1.084599-1.8742763 2.498901-3.1759965 2.48905-1.0976668-.008444-2.260872-1.418121-2.2104115-2.67883.0631259-1.580157.8037495-2.348122 2.2371495-2.319776zm47.0627855 1.868547c.070565.177918.104339.370111.155202.55587.06594 1.384346-1.161195 1.736766-1.914283 2.437584-.096297.089462-.373528.020908-.554865-.02312-1.484865-.361868-2.365411-1.370676-2.843479-2.759043-.203853-.592258.893613-1.871261 1.699976-2.049984 1.306344-.289494 2.960082.586629 3.457449 1.838693zm-8.48613-5.291639c.897835.663425.240843 1.282622-.032367 1.985651-.273211.702427-.693179 1.162803-1.307752 1.520852-.553256.322465-1.024489.940254-1.781597.45133-1.150339-.742232-1.462752-1.33851-1.188335-2.520211.139118-.599696.334728-1.21648.650357-1.737369.405494-.669255.948698-.851597 1.843518-.833503.975235-.326285 1.22613.6974 1.816176 1.13325zm45.360236-.289635c-.185759 1.210047-.282257 2.442007-.58884 3.619888-.088858.341563-.765753.74002-1.175468.742849-.76314.005012-1.738174-1.319225-1.613932-2.089803.113988-.707653.269793-1.443251.590046-2.073504.369105-.726953.989106-1.256688 1.964743-1.037155.737005-.212899.928594.152588.823451.837725zm-59.841597-.278659c1.304534 1.243018 1.196175 2.677222-.284067 3.730459-.270798.192796-.524106.441479-.826266.550844-.433839.15681-1.05384.439268-1.330669.260143-.656389-.424391-1.470592-.857024-1.450288-2.268511.167063-.439067.348198-1.307953.796714-2.005152.73037-1.13506 2.12296-1.193562 3.094576-.267783zm42.336727-.755781c1.728523.212497 2.55499 1.775767 1.91187 3.294206-.34478.814003-.911305 1.242414-1.554023 1.684095-1.017654.699008-2.757636.017289-2.849913-1.215274-.084034-1.124405.103736-2.294647 1.059269-3.083519.39524-.326285.950507-.458769 1.432797-.679508zm-14.374309-.032207.129871.226168c1.027504-.280649 1.304735.695189 1.884931 1.144107.88135.682523.175305 1.299709-.073781 1.998919-.297737.835313-.919547 1.242012-1.574529 1.680074-.986694.659806-2.912637-.225565-2.827598-1.413498.065539-.915325.426603-1.874276.898037-2.670788.276226-.466609 1.026097-.652569 1.563069-.964982zm-43.610402.028668c1.707816.212698 2.580924 1.843719 1.886539 3.297424-.367497.769573-.885572 1.262115-1.556636 1.698167-1.02067.663022-2.85896-.11801-2.88409-1.339315-.021511-1.05384.150578-2.170807 1.048413-2.908214.24113-.198166.532873-.334625.833216-.460619l.451711-.187547c.07461-.032084.148444-.065116.220847-.099896zm65.909765-4.5757825c2.080943.0353827 2.617915.5341576 2.623767 2.4377855.004803 1.527285-.775827 2.587156-1.90184 2.582348-1.55342-.006651-3.040095-1.181918-3.087138-2.440617-.04262-1.1368687 1.296895-2.5976099 2.365211-2.5795165zm-29.576331-.2825587c.581603.0217121 1.957908 1.4110848 1.944639 1.9631348-.031361 1.3204164-1.840702 3.3338114-2.967721 3.3022484-.943269-.026537-1.913277-1.286241-1.872869-2.431955.068956-1.9540886 1.038763-2.9027863 2.895951-2.8334282zm-42.011166 2.372066c-.006434 1.4609422-.8610455 2.5744912-1.9611248 2.5551912-1.5701058-.027341-3.0280325-1.222913-3.0334732-2.4872404-.0046111-1.1308381 1.2482569-2.5234274 2.289231-2.5443354 1.9770065-.0404086 2.713408.6336714 2.705367 2.4763846zm56.510199-2.4869978c1.223315-.0073998 2.583135 1.0621217 2.60726 2.050625.032568 1.323231-1.238796 2.971742-2.298667 2.981191-1.304937.011258-2.703759-1.452097-2.675613-2.7990507.02332-1.1095281 1.207031-2.2256903 2.36702-2.2327653zm-30.471733-.3181641c1.028509.074384 2.89595 1.5739255 2.849913 2.2890172-.07157 1.1149559-1.683291 2.9600819-2.565244 2.9365599-1.057057-.027944-2.346514-1.324437-2.284594-2.2968573.102931-1.6159425 1.046402-2.9974748 1.999925-2.9287198zm-11.261519 1.4927464c.35644.276025.547225.7661554.674683.9543268.016485 1.1274209-.781836 2.0817469-1.735359 2.3754639-1.082187.33332-2.535691-.163243-3.19409-1.091033-.900247-1.269152-.298943-2.5966051 1.260508-2.9172605 1.125611-.2315957 2.123764.0042218 2.994258.6785028zm65.244651-5.8244693c.802141.4052923 1.035345.9265835.997148 1.719879-.012464.26537-.04845.5568749.039002.7953058.376342 1.0273036-.300753 1.4653651-1.012427 1.8784979-.745851.4328346-1.483861.2892936-1.978615-.3455841-.527925-.6774976-.890598-1.4840616-1.325443-2.2341339l.235617-.1367057c.048852-1.8109492 1.412291-2.5015143 3.044718-1.677259zm-46.099211-.6356617c.816817.0201038 2.345911 1.2279394 2.350776 1.8573889.010012 1.2645283-1.894219 3.407592-3.009778 3.3876893-.860844-.0154799-1.96032-1.2703583-1.925943-2.1981481.074987-2.0240494.976039-3.0859314 2.584945-3.0469301zm31.849707.5626849c1.349366 1.22613 1.232362 2.7743227-.288489 3.8066522-.24788.1682687-.477867.4048903-.752083.4824909-.474449.1338912-1.12541.3968488-1.436416.1954088-.623016-.403684-1.420332-.8194304-1.558043-1.8380893.25572-.7689699.380967-1.619159.795708-2.2896203.760526-1.2291456 2.174425-1.3244376 3.239323-.3568423zm-16.808596-.3265056c1.331876.0132685 2.408635.7291644 2.706171 1.7982838.220941.7945017-.23622 1.9132775-1.044995 2.5155869-.701823.5228996-1.4334.4018748-2.157739.0522699-.848581-.4097152-1.420333-1.0303191-1.616948-1.995703-.323269-1.587194.371116-2.3881289 2.113511-2.3704376zm-43.594762-.1416312c.942667.472439 2.28942.6746831 2.315957 2.2908266-.008645.7253447-1.329062 2.192117-2.300678 2.4408009-.810182.207069-1.728725-.3626724-2.290424-1.4203326-.583412-1.0988731-.440876-2.473168.326485-3.1446345.02513-.0221141.051064-.0570947.079008-.0595072.631661-.0552854 1.385352-.3498059 1.869652-.1071532zm14.947669-.2461106c1.341124-.000201 2.437584.7158959 2.739945 1.7894382.422984 1.5027581-1.15255 3.1731818-2.656313 2.7715081-.852602-.2275748-1.571111-.6917713-1.962934-1.5508061-.78827-1.7293278.006232-3.009537 1.879302-3.0101402zm-20.350622-2.9214019c-.029754 1.3560004-1.2251248 2.8820789-2.2725321 2.9011775-1.1453128.0207069-2.6832525-1.3278551-2.7023511-2.3698344-.0245266-1.347758 1.0464021-2.5752952 2.3014816-2.6372149 1.2253258-.0607134 2.6955156 1.0974658 2.6734016 2.1058718zm72.072079-2.1056909c1.252667.0325682 2.579115 1.1350599 2.544134 2.1145164-.049455 1.3881666-1.209042 2.8704188-2.262279 2.8919299-1.270962.0259339-2.72527-1.3809292-2.726276-2.6372149-.001004-1.2198978 1.217687-2.4009953 2.444421-2.3692314zm-13.052787 2.1157226c.416752 1.36364-.863859 2.9832011-2.278563 2.882079-1.144508-.0818224-2.229309-1.0057925-2.496086-2.1255734-.370513-1.5560332.31583-2.45226 1.905437-2.4878437 1.461947-.0325682 2.526443.6097478 2.869212 1.7313381zm-32.912413-2.461749c1.055047.0936837 2.854537 1.5518114 2.816943 2.2823831-.058904 1.146519-1.720482 3.0274293-2.625153 2.9715408-1.22814-.0757913-2.29927-1.3015192-2.210009-2.5288554.102529-1.4096776 1.13506-2.8032722 2.018219-2.7250685zm-13.262891-.0433236c1.203815-.0277432 2.575899 1.0453969 2.612689 2.043349.049053 1.3302676-1.205223 2.9578702-2.284796 2.9649418-1.234372.0080063-2.672396-1.362871-2.691495-2.5660827-.020104-1.2607085 1.095053-2.4130576 2.363602-2.4422081zm28.150791.3940901c1.317401-.0092031 2.752008 1.4207793 2.728486 2.7200871-.015279.8568234-1.068114 1.7872267-2.07652 1.8354758-1.036551.0496564-2.513174-1.5252744-2.53167-2.7001397-.017892-1.1338536.704437-1.846935 1.879704-1.8554232zm-34.860128-5.0882843c.238431.1710832.481485.3413623.74183.4744494 1.490293.7619335 1.686506 2.5300616.343372 3.5394728-.453541.3409603-1.031927.5160642-1.579755.7798259-.477063-.1835475-.904671-.2740146-1.249652-.4943521-1.269956-.8101826-1.864224-2.6052498-1.257492-3.6693433.56753-.9955396 2.060035-1.305741 3.001697-.6300527zm58.321791.0561901c1.498738-.0313619 2.380088.8990414 2.436378 2.3788812.042821 1.1264152-1.251662 2.2339328-2.520613 2.2367524-1.263925.0028095-2.480204-1.1648185-2.487441-2.3877319-.008645-1.470391.82707-2.1945294 2.571676-2.2279017zm-28.104271 2.100504c-.018294 1.5668892-.759923 2.5244326-1.947252 2.5139787-1.579957-.0136706-3.051755-1.2084387-3.041704-2.4691472.008645-1.1095281 1.300514-2.5258399 2.315354-2.5383043 2.034503-.0253307 2.695717.5914535 2.673602 2.4934728zm12.307378-2.1115008c1.509594.0215111 2.729894 1.0078029 2.748188 2.2206644.01749 1.1800923-1.107719 2.4102431-2.198952 2.4036355-1.498939-.0090734-2.771307-1.2874732-2.790406-2.8034999-.016686-1.3300665.61598-1.8439194 2.24117-1.8208zm30.531964.1182103c.343172 1.3131794.585021 2.6528958.91231 4.1874179-.213502.0946888-.477063.3268876-.6779.281453-1.34052-.302763-1.847739-1.4098786-2.30329-2.5348866-.345585-.8536068.185356-1.4886854.649352-2.0761181.45334-.5737621 1.25528-.4865117 1.419528.1421338zm-58.462116-.211512c.091071.0412128.179929.0872505.271804.1260508 1.493309.6322641 1.977207 1.1684321 1.822609 2.0214358-.225766 1.247038-1.290462 2.0821493-2.742559 2.1517084-.832498.0398055-1.667609-.5820046-2.078128-1.6949503-.297335-.8057598-.311006-1.6499179.335331-2.3449058.603717-.6493524 1.372486-.7197156 2.390943-.2593389zm35.94507-5.1756799c1.469989.1077563 2.975562 1.167829 2.885296 2.0312867-.164248 1.5676934-1.342531 2.5409177-2.938571 2.4271303-1.297297-.0926785-2.44442-1.1949691-2.366819-2.2741405.093684-1.305741 1.168633-2.2759498 2.420094-2.1842765zm14.83945-.1424554c1.346753-.0164851 2.73311 1.3397164 2.725901 2.6671695-.005054.9123099-1.038992 1.8535692-2.090822 1.9034266-.955935.0452335-2.50071-1.6255923-2.517598-2.7232591-.017088-1.1133477.716298-1.8330633 1.882519-1.847337zm-45.430439-.7506151c1.063089.063729 2.9054 1.5990552 2.836042 2.3632002-.102329 1.1256111-1.718874 2.9341478-2.590172 2.8977599-1.127622-.0476459-2.326612-1.3340873-2.249413-2.4140628.106751-1.4931083 1.097868-2.9013786 2.003543-2.8468973zm15.725846.3532428c1.305741-.0010044 2.139244.935028 2.108084 2.3672218-.030156 1.3877645-1.006396 2.2847955-2.397377 2.202973-1.745612-.1027303-2.422104-.7478609-2.400191-2.2896203.016083-1.1240028 1.378516-2.2797695 2.689484-2.2805745zm-29.756621.0255929c.132484-.0016083.26537.0176914.397854.0271401 1.110332-.0510636 1.993693.4955584 2.695114 1.2410069.254112.2701949.205461.9113046.152588 1.3666554-.115798.99755-.793296 1.772551-1.687713 1.857791-.718108.068554-1.567493-.3743325-2.221469-.8007338-.444897-.2900977-.748665-.9078871-.948094-1.4416426-.540792-1.4484779.049656-2.2317215 1.61172-2.250217zm23.13757-4.2080645c.641512.6670437.926986 1.6764549 1.417116 2.6414367-.359054.6161811-.539385 1.295086-.978652 1.5972459-.737407.5070175-1.640067.5003833-2.451456-.0066342-.84054-.525111-1.650119-2.3891342-1.397012-3.3370277.189176-.7074523.500986-1.5719152 1.27277-1.6103134.716499-.0357848 1.665398.2249613 2.137234.7152927zm29.912808-.7620541c.711473.1742998 1.166019.5663237 1.321824 1.3083545.085441.4073027.256926.7961099.380765 1.1957732.316434 1.0210714-.70504 2.1959368-2.08436 2.3919487-.163243.0233204-.332316.0032166-.419767.0032166-1.011945.1328458-1.482727-.4508395-1.887582-1.0685179l-.149659-.2318898c-.049474-.076939-.098847-.153076-.149046-.2270781-.42218-.6222122-.197621-2.2383557.379358-2.7286871.733989-.6236195 1.620767-.8851697 2.608467-.6431201zm-16.100843-.0817018c1.703193.1815372 2.21966.2579316 2.583337 1.380326.653172 2.0154047-.133891 2.6920982-2.267908 3.1967033-1.30936.3095983-2.765879-.9231659-2.887909-2.2679083-.115396-1.2743791 1.032329-2.3048992 2.57248-2.309121zm-44.593638-.394959c1.491902.0190985 3.308078 1.4012339 3.307274 2.5167931-.000603.891603-1.949464 2.4850292-3.045523 2.4904767-1.239398.0060117-2.275145-1.3871808-2.307312-3.1038432-.018093-.9734254.99554-1.9168962 2.045561-1.9034266zm16.26899.3912398c.359657.1103698 1.003782.2044555 1.541357.4951562 1.053841.5699424 1.215274 1.3803261.604119 2.4217023-.446907.7613304-1.638861 1.3740939-2.426929 1.2669407-1.18733-.1618355-2.078531-.7860581-2.476385-1.889555-.416349-1.1543595.842952-2.2582585 2.757838-2.2942442zm36.505845-5.3398676c.703029.3837813 1.629814 2.1277849 1.612927 2.9232918-.035785 1.7050022-1.6463 2.5996207-3.121114 1.7335496-.907686-.5329514-1.791448-2.5216181-1.441843-3.4980591.550241-1.5371356 1.292472-2.0630506 2.95003-1.1587823zm-43.306092.3145439c.654579.658399.965585 1.6587635 1.227738 2.1342181-.037192 2.1163257-1.351778 2.9699325-2.857954 2.3326424-1.10993-.4698255-2.072097-2.596002-1.686909-3.7272422.55969-1.6438867 2.022843-2.0411375 3.317125-.7396183zm29.805936.5890209c.162237.1628406.31181.4294169.311609.6483471-.001207 1.3527839-1.858193 3.4224688-2.989836 3.375828-.931609-.0383982-1.898199-1.3656503-1.853569-2.5453405.056492-1.4955208 1.107317-2.759848 2.144471-2.823778 1.145514-.0705643 1.724101.6787038 2.387325 1.3449434zm-17.577325-1.3457677c1.087414.121829 2.866197 1.5839774 2.814732 2.314147-.085039 1.2056241-1.707817 2.9691284-2.676217 2.9080129-1.181298-.0745851-2.243783-1.2438214-2.163167-2.3798864.105143-1.4814481 1.144509-2.940581 2.024652-2.8422735zm7.671606-4.6605704c1.275183.0084936 2.588764 1.0760048 2.557 2.0781786-.046037 1.4502872-1.268549 2.9719429-2.355962 2.9319364-1.26473-.0466408-2.654706-1.496526-2.634401-2.7481878.019501-1.2088408 1.161396-2.2703207 2.433363-2.2619272zm15.886757.2293338c.090668.0414138.171686.1041376.262957.143541 1.622376.700617 2.017415 1.1386785 1.869049 2.0767213-.193398 1.2225113-1.278199 2.0680766-3.281943 2.1782453-.678905-.0088456-1.079171-.9804617-1.51663-1.7970775-.426803-.7967131-.273009-1.6493148.362471-2.3127398.663827-.6931786 1.476423-.6682499 2.304096-.2886903zm12.930756 2.9228293c.863859.381972 1.727719.7637429 2.699134 1.1933609-1.150741.4847023-2.155528.0739819-2.699134-1.1933609zm-42.539534-3.5409002c1.350572-.0428211 2.742156 1.2812144 2.780755 2.6458595.024728.8773293-1.03836 1.8360789-2.119341 1.9114681-.906681.0631259-2.460904-1.5799566-2.513375-2.6571176-.05408-1.1061104.683729-1.863018 1.851961-1.90021zm6.010489-5.4056471c1.007602.058502 2.885296 1.5465844 2.858558 2.2654958-.046641 1.2538732-1.70641 3.0370792-2.739543 2.9433955-1.227739-.111777-2.176838-1.2576929-2.094212-2.5292575.085642-1.3192105 1.124807-2.7288881 1.975197-2.6796338zm-11.837492.8298441c.563509.3574454.566324.8827573.364683 1.4084714-.260545.679508-.466609 1.4422457-.927991 1.9643411-.417757.4732431-1.146519.6720696-1.738173.9917198-.921759-.2088783-1.50497-.6065313-1.791851-1.3527839-.236019-.6141707.232199-1.719678.807569-2.0767212.531946-.3301042 1.1234-.5908503 1.58639-.9983541.635079-.5590863 1.14471-.2882883 1.699373.0633269zm26.770968-.4483355c1.382738.005047 2.752811 1.3616506 2.725269 2.6991556-.017289.8455653-1.189139 1.8451256-2.185081 1.8640232-.952316.0178923-2.445826-1.7291268-2.425119-2.8368455.020304-1.1008834.708055-1.730534 1.884931-1.7263333z" fill="#16b4f2" transform="matrix(-.89879405 .43837115 -.43837115 -.89879405 308.862237 217.43082)"/><g transform="matrix(.99026807 .1391731 -.1391731 .99026807 47.069775 90.404829)"><path d="m100.446366 38.9153997c-.007499-.3376223-.279065-.6055126-.6163858-.6055126h-11.4467497c0 21.1692857-17.0788177 38.3242476-38.1475765 38.3242476-21.0776541 0-38.1576927-17.1549619-38.1576927-38.3242476h-11.45529607c-.3373206 0-.60888636.2678903-.61760717.6030597l-.00505806.0199735c0 .0075339.00505806.0124396.00505806.0224264.3448205 27.5271672 22.74315274 49.811465 50.23059594 49.811465 27.4785479 0 49.864671-22.2893788 50.210712-49.811465 0-.0099868.002442-.0175206.002442-.0224264 0 0-.002442-.0099868-.002442-.0175206" fill="#fb5d2e"/><path d="m50.2286751 0c-21.0652651 0-38.1376148 17.1522901-38.1376148 38.3098871h76.2666877c0-21.157597-17.0713038-38.3098871-38.1290729-38.3098871" fill="#16b4f2"/><path d="m88.357748 38.3098871c0 21.1624509-17.0714026 38.3098872-38.1295086 38.3098872-21.0656022 0-38.1371791-17.1474363-38.1371791-38.3098872z" fill="#2c2c96"/></g><g transform="translate(2 170.187056)"><path d="m24.636391 0h105.006674v115.2h-105.006674z" fill="#edf3fa"/><path d="m128.843065 0h56v115.2h-56z" fill="#dce3eb"/><path d="m24.6363914 0v44.5005997h-24.6363914z" fill="#dce3eb"/><use fill="#000" filter="url(#b)" xlink:href="#a"/><use fill="#fff" fill-rule="evenodd" xlink:href="#a"/><use fill="#000" filter="url(#c)" xlink:href="#a"/></g><g transform="translate(46.8 244.587056)"><rect fill="#edf3fa" height="72" opacity=".668597" rx="36" width="72" x="10.4" y=".4"/><rect fill="#fff" height="71.365248" rx="35.682624" stroke="#dce3eb" stroke-width="1.069208" width="71.365248" y="1"/><path d="m46.8776952 34.9222118c0-.3806203.77988-.5692977 1.1423583-.3969482.3599384.1708982.710443.6614594.710443 1.0682043v13.1283179c0 .1723495-.0395497.4673394-.2815648.4673394h-26.422817c-.5177743 0-1.0261147-.6386004-1.0261147-1.1382327v-13.1286807c0-.3806203.2343954-.5692977.5968737-.3969482.3599384.1708982 1.2562904.6614594 1.2562904 1.0682043v1.6287939c.0228311 5.3044995.0368093 8.5724546.0419347 9.8038653l.0007357.177509c.0001103.0267642.0002145.052118.0003126.0760614l.0007173.1774116c.0000613.0154814.0001165.0295524.0001656.042213l.0002942.0842311h15.8358105c5.0126655-.0628047 7.7116376-.0963978 8.0969163-.1007796l.0476442-.0004929zm-12.0502771-11.9221122c.5044019.0087985.7498828.5709141.7498828 1.001395l-.0003009 12.6575054.6930629-.8451981c.663411-.8104624 1.3268221-1.6209248 1.9903319-2.431486.2960792-.3616989.8020623-.3537929 1.0854919.0189743.2937074.3869981.2842202 1.0202675-.0245086 1.3973831-1.3270197 1.6211224-2.6540394 3.2418495-3.9810592 4.8629719-.2921262.3569553-.8052246.3652566-1.0850965-.0189744-1.290257-1.7729173-2.5801186-3.5458347-3.8703755-5.318752-.2881732-.3960899-.2889638-1.0135474.0245086-1.397383.2937074-.3597224.8064106-.3640707 1.0850966.0189744l1.9350394 2.659376.6125085.8421138.000749-12.4723857c0-.4336433.2929168-.9831094.7846691-.9745147z" fill="#1982e5" stroke="#1982e5" stroke-width=".5" transform="matrix(-1 0 0 1 69.730496 0)"/></g></g></svg>