<svg height="320" viewBox="0 0 361 320" width="361" xmlns="http://www.w3.org/2000/svg" xmlns:xlink="http://www.w3.org/1999/xlink"><defs><path id="a" d="m0 0 37.5076562.00715726 16.6861975 16.15138824.0096646 58.6939321-54.19119481-.0103408z"/><filter id="b" height="272.3%" width="338%" x="-119%" y="-78.2%"><feOffset dx="0" dy="2" in="SourceAlpha" result="shadowOffsetOuter1"/><feGaussianBlur in="shadowOffsetOuter1" result="shadowBlurOuter1" stdDeviation="2"/><feColorMatrix in="shadowBlurOuter1" result="shadowMatrixOuter1" type="matrix" values="0 0 0 0 0   0 0 0 0 0   0 0 0 0 0  0 0 0 0.0896252185 0"/><feOffset dx="0" dy="6" in="SourceAlpha" result="shadowOffsetOuter2"/><feGaussianBlur in="shadowOffsetOuter2" result="shadowBlurOuter2" stdDeviation="20.5"/><feColorMatrix in="shadowBlurOuter2" result="shadowMatrixOuter2" type="matrix" values="0 0 0 0 0   0 0 0 0 0   0 0 0 0 0  0 0 0 0.0570367133 0"/><feMerge><feMergeNode in="shadowMatrixOuter1"/><feMergeNode in="shadowMatrixOuter2"/></feMerge></filter><filter id="c" height="222.9%" width="269.7%" x="-84.9%" y="-53.4%"><feGaussianBlur in="SourceAlpha" result="shadowBlurInner1" stdDeviation="3"/><feOffset dx="0" dy="4" in="shadowBlurInner1" result="shadowOffsetInner1"/><feComposite in="shadowOffsetInner1" in2="SourceAlpha" k2="-1" k3="1" operator="arithmetic" result="shadowInnerInner1"/><feColorMatrix in="shadowInnerInner1" type="matrix" values="0 0 0 0 1   0 0 0 0 1   0 0 0 0 1  0 0 0 1 0"/></filter><path id="d" d="m37.4262388 0 16.7772794 16.1319995h-16.7772794z"/><filter id="e" height="186.8%" width="183.4%" x="-41.7%" y="-31%"><feOffset dx="0" dy="2" in="SourceAlpha" result="shadowOffsetOuter1"/><feGaussianBlur in="shadowOffsetOuter1" result="shadowBlurOuter1" stdDeviation="2"/><feColorMatrix in="shadowBlurOuter1" type="matrix" values="0 0 0 0 0   0 0 0 0 0   0 0 0 0 0  0 0 0 0.0896252185 0"/></filter><filter id="f" height="211.6%" width="207.3%" x="-53.6%" y="-43.4%"><feGaussianBlur in="SourceAlpha" result="shadowBlurInner1" stdDeviation="3"/><feOffset dx="0" dy="4" in="shadowBlurInner1" result="shadowOffsetInner1"/><feComposite in="shadowOffsetInner1" in2="SourceAlpha" k2="-1" k3="1" operator="arithmetic" result="shadowInnerInner1"/><feColorMatrix in="shadowInnerInner1" type="matrix" values="0 0 0 0 1   0 0 0 0 1   0 0 0 0 1  0 0 0 1 0"/></filter><path id="g" d="m0 0 52.0590029.00993396 23.1597198 22.41742764.0134139 81.4646364-75.21503213-.014352z"/><filter id="h" height="273.3%" width="339.3%" x="-119.6%" y="-60.6%"><feOffset dx="0" dy="27" in="SourceAlpha" result="shadowOffsetOuter1"/><feGaussianBlur in="shadowOffsetOuter1" result="shadowBlurOuter1" stdDeviation="25.5"/><feColorMatrix in="shadowBlurOuter1" type="matrix" values="0 0 0 0 0   0 0 0 0 0   0 0 0 0 0  0 0 0 0.0509997815 0"/></filter><path id="i" d="m51.9459991 0 23.2861375 22.3905169h-23.2861375z"/><filter id="j" height="475.2%" width="460.7%" x="-180.4%" y="-187.6%"><feOffset dx="0" dy="1" in="SourceAlpha" result="shadowOffsetOuter1"/><feGaussianBlur in="shadowOffsetOuter1" result="shadowBlurOuter1" stdDeviation="1.5"/><feColorMatrix in="shadowBlurOuter1" result="shadowMatrixOuter1" type="matrix" values="0 0 0 0 0.421891749   0 0 0 0 0.459703869   0 0 0 0 0.511265851  0 0 0 0.145541958 0"/><feOffset dx="0" dy="0" in="SourceAlpha" result="shadowOffsetOuter2"/><feGaussianBlur in="shadowOffsetOuter2" result="shadowBlurOuter2" stdDeviation="14"/><feColorMatrix in="shadowBlurOuter2" result="shadowMatrixOuter2" type="matrix" values="0 0 0 0 0   0 0 0 0 0   0 0 0 0 0  0 0 0 0.0570367133 0"/><feMerge><feMergeNode in="shadowMatrixOuter1"/><feMergeNode in="shadowMatrixOuter2"/></feMerge></filter><filter id="k" height="399.2%" width="387.7%" x="-143.9%" y="-149.6%"><feGaussianBlur in="SourceAlpha" result="shadowBlurInner1" stdDeviation="4"/><feOffset dx="0" dy="3" in="shadowBlurInner1" result="shadowOffsetInner1"/><feComposite in="shadowOffsetInner1" in2="SourceAlpha" k2="-1" k3="1" operator="arithmetic" result="shadowInnerInner1"/><feColorMatrix in="shadowInnerInner1" type="matrix" values="0 0 0 0 1   0 0 0 0 1   0 0 0 0 1  0 0 0 1 0"/></filter></defs><g fill="none" fill-rule="evenodd"><path d="m41.5.5h319v319h-319z" fill="#d8d8d8" opacity="0" stroke="#979797"/><g transform="translate(51 96)"><path d="m40.9940318 35.6816506h144.0068032v166.7820004h-144.0068032z" stroke="#dce3eb" stroke-dasharray="2.97825 2.97825" stroke-linecap="round" stroke-linejoin="round" stroke-width=".99275" transform="matrix(-1 0 0 1 225.994866 0)"/><g transform="translate(85.7375 81.225)"><use fill="#000" filter="url(#b)" xlink:href="#a"/><use fill="#fff" fill-rule="evenodd" xlink:href="#a"/><use fill="#000" filter="url(#c)" xlink:href="#a"/><use fill="#000" filter="url(#e)" xlink:href="#d"/><use fill="#f9fbfe" fill-rule="evenodd" xlink:href="#d"/><use fill="#000" filter="url(#f)" xlink:href="#d"/><g fill="#1982e5"><path d="m12.4668092 50.5120145 6.8066585-9.7150216 5.1130223 6.6823934 7.4293805-9.518152 9.4190192 12.5507802z"/><path d="m25.6681298 36.9922454c.9236815 0 1.5347675-.4268564 2.1889306-1.004368.6541632-.5775116.9057644-1.2055613.9057644-2.0338452 0-.9667041-.3799436-1.6028879-1.0189849-2.1593911-.5481833-.4773803-1.1322055-.878822-2.0757101-.878822-1.5725076 0-3.0443748 1.3558968-3.0443748 3.0382131 0 1.6823164 1.220266 3.0382132 3.0443748 3.0382132z" transform="matrix(.9998477 .01745241 -.01745241 .9998477 .596493 -.443238)"/></g></g><path d="m-6.60475486 124.323679c-6.71164114 7.45057-8.73774514 17.444568-8.73774514 27.499383h86.36925c0-14.367559-6.7213424-27.836799-17.5557319-35.037131-7.7251017-5.133958-16.0301148-8.4895-25.623253-8.4895-16.8089961-1.349663-25.71703365 6.330015-34.45251996 16.027248z" fill="#2c2c96" transform="matrix(0 -1 1 0 -102.140437 157.824687)"/><rect fill="#fff" height="61.206347" rx="30.285792" stroke="#dce3eb" stroke-width=".656318" transform="matrix(-1 0 0 1 146.943846 0)" width="61.206347"/><path d="m102.702896 16.965396h27.275556v27.275556h-27.275556z"/><g fill-rule="nonzero" transform="translate(104.407618 19.238359)"><path d="m4.22651908 0h15.41436372c2.3370164 0 4.2265191 1.89068433 4.2265191 4.22916231v14.82694549c0 2.338478-1.8895027 4.2291623-4.2265191 4.2291623h-15.41436372c-2.33701643 0-4.22651908-1.8906843-4.22651908-4.2291623v-14.82694549c0-2.33847798 1.88950265-4.22916231 4.22651908-4.22916231z" fill="#470137"/><g fill="#ff61f6"><path d="m12.5581243 6.11984663-2.98529103 4.92573017 3.18431043 5.2242594c.019902.0398039.0298529.0796077.019902.1194116-.009951.0398039-.0497549.009951-.1094607.019902h-2.2787722c-.1592155 0-.2686762-.009951-.338333-.1094607-.20897034-.4179408-.42789168-.8259305-.63686205-1.2438713-.20897038-.4079898-.43784269-.8259305-.67666597-1.2538222s-.47764657-.8557835-.71646985-1.2936261h-.01990194c-.20897037.4278917-.43784269.8557834-.666715 1.2836751s-.45774463.8557834-.67666597 1.2737242c-.22887231.4179407-.45774463.8458324-.68661694 1.2538222-.03980388.0995097-.11941164.1094607-.22887231.1094607h-2.18921343c-.03980388 0-.06965679.0199019-.06965679-.0298529-.00995097-.0398039 0-.0796078.01990194-.1094607l3.09475171-5.0749948-3.01514395-5.10484764c-.02985291-.03980388-.03980388-.07960776-.01990194-.0995097.01990194-.02985291.05970582-.03980388.0995097-.03980388h2.25887022c.04975485 0 .0995097.00995097.13931358.01990194.03980388.01990194.06965679.04975485.0995097.08955873.18906844.42789172.40798978.85578343.63686209 1.28367515.23882329.42789172.4676956.84583246.71646985 1.26377321.23882329.41794074.45774463.83588149.666715 1.2637732h.01990194c.20897037-.43784268.42789172-.8657344.64681306-1.28367514.21892134-.41794075.44779366-.83588149.67666597-1.25382224s.44779366-.84583246.66671498-1.25382224c.009951-.03980388.0298529-.07960776.0597058-.0995097.0398039-.01990194.0796078-.02985291.1293627-.01990194h2.0996546c.0497549-.00995097.0995098.01990194.1094607.06965679.009951.00995097-.0099509.04975485-.0298529.06965679z"/><path d="m17.1554725 16.6181201c-.7363718.009951-1.4727436-.1393136-2.1394586-.4477936-.6269111-.2885782-1.1443615-.7662247-1.5025965-1.353332-.3681859-.6070091-.5473033-1.3632829-.5473033-2.2688212-.009951-.7363717.1791174-1.4627926.5473033-2.0996547.3781369-.64681302.9254403-1.1841654 1.5822043-1.54240033.6965679-.38808783 1.5324494-.57715627 2.5175954-.57715627.0497549 0 .1194117 0 .2089704.00995097s.1890684.00995097.3084801.01990194v-3.14450656c0-.06965679.0298529-.10946067.0995097-.10946067h2.0200469c.0497549-.00995097.0895588.02985291.0995097.06965679v.01990194 9.47332359c0 .1791174.009951.3781368.019902.5970582.0199019.2089704.0298529.4079898.0398038.5771563 0 .0696567-.0298529.1293626-.0995097.1592155-.5174504.2189213-1.0647538.3781368-1.6220081.4776465-.5074995.0895588-1.0149989.1393136-1.5324494.1393136zm.9751951-1.990194v-4.3784269c-.0895587-.0199019-.1791175-.0398038-.2686762-.0497548-.1094607-.009951-.2189214-.019902-.328382-.019902-.3880879 0-.7761757.0796078-1.1244596.2587253-.338333.1691665-.6269112.4179407-.8458325.7363718-.2189214.318431-.328382.7463227-.328382 1.2637732-.009951.3482839.0497548.6965679.1691665 1.0249499.0995097.2686762.2487742.5074995.4477936.7065189.1890685.1791174.4179408.318431.676666.3980388.2686762.0895587.5473034.1293626.8259305.1293626.1492646 0 .2885781-.009951.4179408-.019902.1293626.009951.2388232-.0099509.3582349-.0497548z"/></g></g><rect fill="#fff" height="61.206347" rx="30.285792" stroke="#dce3eb" stroke-width=".656318" transform="matrix(-1 0 0 1 215.522181 160.19375)" width="61.206347"/><path d="m171.012085 176.89h27.9775v27.9775h-27.9775z"/><g fill-rule="nonzero"><path d="m4.33505534 0h15.81020186c2.3970306 0 4.3350553 1.93802474 4.3350553 4.33505534v15.19819396c0 2.3970306-1.9380247 4.3350554-4.3350553 4.3350554h-15.81020186c-2.3970306 0-4.33505534-1.9380248-4.33505534-4.3350554v-15.19819396c0-2.3970306 1.93802474-4.33505534 4.33505534-4.33505534z" fill="#001e36" transform="translate(172.760679 178.638594)"/><g fill="#31a8ff" transform="translate(178.268749 184.656671)"><path d="m0 10.7203368v-10.49593393c0-.07140092.03060039-.11220144.1020013-.11220144.17340222 0 .3366043 0 .57120729-.01020013.24480313-.01020013.49980638-.01020013.7752099-.02040026s.57120729-.01020013.88741133-.02040026c.31620403-.01020013.62220794-.01020013.92821185-.01020013.83641067 0 1.53001953.1020013 2.10122682.31620404.51000651.17340221.9792125.45900586 1.36681745.83641067.32640416.32640417.58140742.72420925.7446095 1.16281485.15300196.42840547.234603.86701107.234603 1.32601693 0 .87721119-.20400261 1.60142044-.61200782 2.17262773-.4080052.57120729-.9792125.99961276-1.64222096 1.24441589-.69360885.25500325-1.45861862.34680442-2.2950293.34680442-.24480312 0-.4080052 0-.51000651-.01020013-.1020013-.01020013-.24480312-.01020013-.43860559-.01020013v3.27424178c.01020013.0714009-.04080053.1326017-.11220144.1428018-.01020013 0-.02040026 0-.04080052 0h-1.93802474c-.08160104 0-.12240156-.0408005-.12240156-.1326017zm2.22362839-8.63951024v3.42724375c.14280182.01020013.27540351.02040026.39780507.02040026h.5406069c.39780508 0 .79561016-.06120078 1.17301498-.18360234.32640417-.09180117.61200781-.28560365.83641068-.5406069.21420273-.25500326.31620403-.60180768.31620403-1.05061341.01020013-.31620404-.07140091-.63240808-.23460299-.90781159-.17340222-.26520339-.41820534-.46920599-.71400912-.58140742-.37740482-.15300196-.78541002-.21420274-1.20361536-.20400261-.26520339 0-.49980638 0-.69360886.01020013-.2040026-.01020013-.34680442 0-.41820533.01020013z"/><path d="m14.0761797 4.88586237c-.3060039-.16320208-.6324081-.27540352-.9792125-.34680443-.3774048-.08160104-.7548096-.13260169-1.1424146-.13260169-.2040026-.01020013-.4182053.02040026-.6120078.07140091-.1326017.03060039-.2448031.1020013-.316204.20400261-.0510007.08160104-.0816011.18360234-.0816011.27540351s.0408005.18360235.1020013.26520339c.0918012.11220143.2142027.2040026.3468044.27540351.234603.12240156.4794062.234603.7242093.3366043.550807.18360234 1.0812138.4386056 1.57082.7446095.3366043.21420274.6120079.49980638.8058103.84661081.1632021.32640417.2448032.68340873.234603 1.05061341.0102002.47940612-.1326017.95881224-.3978051 1.35661732-.2856036.40800518-.6834087.72420928-1.1424145.90781158-.4998064.2142027-1.1118142.3264042-1.8462236.3264042-.469206 0-.9282119-.0408005-1.38721772-.1326017-.35700455-.0612008-.71400911-.1734022-1.04041328-.3264042-.07140091-.0408005-.12240156-.1122014-.11220143-.1938025v-1.77482261c0-.03060039.01020013-.07140091.04080052-.09180118.03060039-.02040026.06120078-.01020013.09180117.01020013.39780508.234603.81601042.39780508 1.26481614.49980639.387605.1020013.7956102.15300195 1.2036154.15300195.3876049 0 .6630084-.05100065.8466108-.14280182.1632021-.07140092.2754035-.24480313.2754035-.42840547 0-.14280183-.081601-.27540352-.2448031-.40800521s-.4998064-.28560365-.9996128-.47940612c-.5202066-.18360235-.9996127-.42840547-1.44841848-.73440938-.31620404-.22440286-.58140742-.52020664-.77520989-.86701106-.16320209-.32640417-.24480313-.68340873-.234603-1.04041329 0-.43860559.12240156-.85681093.34680443-1.23421575.25500325-.40800521.63240807-.73440938 1.07101364-.93841198.4794061-.24480312 1.0812138-.35700456 1.8054231-.35700456.4182053 0 .8466108.03060039 1.2648161.09180117.3060039.04080053.6018077.12240157.8772112.234603.0408005.01020013.0816011.05100065.1020013.09180117.0102002.04080052.0204003.08160104.0204003.12240156v1.66262123c0 .04080052-.0204003.08160104-.0510007.1020013-.0918011.02040026-.1428018.02040026-.1836023 0z"/></g></g><rect fill="#fff" height="61.206347" rx="30.603173" stroke="#dce3eb" stroke-width=".656318" transform="matrix(-1 0 0 1 215.522181 13.5375)" width="61.206347"/><g fill-rule="nonzero" transform="translate(177.755766 34.164639)"><path d="m3.55301999 20.3024466c1.84075516 0 3.33470137-1.515916 3.33470137-3.3837411v-3.3837411h-3.33470137c-1.84075516 0-3.33470137 1.515916-3.33470137 3.3837411s1.49394621 3.3837411 3.33470137 3.3837411z" fill="#0acf83"/><path d="m.21831862 10.1512233c0-1.86782509 1.49394621-3.3837411 3.33470137-3.3837411h3.33470137v6.7674822h-3.33470137c-1.84075516 0-3.33470137-1.515916-3.33470137-3.3837411z" fill="#a259ff"/><path d="m.21831862 3.3837411c0-1.86782509 1.49394621-3.3837411 3.33470137-3.3837411h3.33470137v6.7674822h-3.33470137c-1.84075516 0-3.33470137-1.51591602-3.33470137-3.3837411z" fill="#f24e1e"/><path d="m6.88772136 0h3.33470134c1.8407552 0 3.3347014 1.51591601 3.3347014 3.3837411 0 1.86782508-1.4939462 3.3837411-3.3347014 3.3837411h-3.33470134z" fill="#ff7262"/><path d="m13.5571241 10.1512233c0 1.8678251-1.4939462 3.3837411-3.3347014 3.3837411-1.84075512 0-3.33470134-1.515916-3.33470134-3.3837411 0-1.86782509 1.49394622-3.3837411 3.33470134-3.3837411 1.8407552 0 3.3347014 1.51591601 3.3347014 3.3837411z" fill="#1abcfe"/></g><rect fill="#fff" height="60.873536" rx="30.436768" stroke="#dce3eb" stroke-width=".656318" transform="matrix(-1 0 0 1 215.925481 86.64)" width="60.873536" x=".368054"/><g fill-rule="nonzero" transform="matrix(-1 0 0 1 197.217765 106.769438)"><path d="m5.73935633.67286153 6.36453117-.67286153 6.3645311.67286153 4.9273789 6.61457094-11.29191 13.14931083-11.29191014-13.14931083z" fill="#fdb300"/><g transform="translate(0 7.287432)"><path d="m5.38576707 0 6.71813053 13.1493152-11.29192024-13.1493152z" fill="#ea6c00"/><path d="m16.6776568 0 6.7181306 13.1493152-11.2919203-13.1493152z" fill="#ea6c00" transform="matrix(-1 0 0 1 35.499654 0)"/><path d="m5.38576707 0h13.43626113l-6.7181306 13.1493152z" fill="#fdad00"/></g><path d="m12.1038976 0-6.36455982.67285263-.35357071 6.61457501z" fill="#fdd231"/><path d="m18.8219935 0-6.3645599.67285263-.3535707 6.61457501z" fill="#fdd231" transform="matrix(-1 0 0 1 30.925856 0)"/><path d="m18.4683982 7.28742764 4.9274179-6.61457501-.3536282 6.61457501z" fill="#fdad00" transform="matrix(-1 0 0 1 41.864214 0)"/><path d="m.81197736 7.28742764 4.92736042-6.61457501-.35357071 6.61457501z" fill="#fdad00"/><path d="m12.1038976 0-6.71813053 7.28742764h13.43626113z" fill="#feeeb7"/></g><g transform="translate(0 25.382812)"><use fill="#000" filter="url(#h)" xlink:href="#g"/><use fill="#fff" fill-rule="evenodd" xlink:href="#g"/><use fill="#000" filter="url(#j)" xlink:href="#i"/><use fill="#fff" fill-rule="evenodd" xlink:href="#i"/><use fill="#000" filter="url(#k)" xlink:href="#i"/><g fill="#1982e5"><path d="m14.512648 66.4111858 10.7679525-15.3689054 8.088665 10.5713684 11.7530821-15.057463 14.9006375 19.855z"/><path d="m36.9862104 46.1583166c1.28203 0 2.1301908-.5924582 3.0381409-1.3940193.9079502-.8015611 1.2571618-1.6732669 1.2571618-2.822889 0-1.3417436-.5273453-2.2247391-1.414307-2.9971414-.7608546-.6625832-1.5714522-1.2197669-2.8809957-1.2197669-2.1825725 0-4.2254604 1.881926-4.2254604 4.2169083 0 2.3349822 1.6936763 4.2169083 4.2254604 4.2169083z" transform="matrix(.9998477 .01745241 -.01745241 .9998477 .737617 -.63972)"/></g></g><path d="m51.5244436 100.854285 7.6067249 14.126775-4.9184472-1.68665-.5188428 5.257133-3.8717869.774365-.4032971-5.721811-5.0640742 1.398246z" fill="#161637" stroke="#fff" stroke-width="1.9855" transform="matrix(-.68199836 .7313537 .7313537 .68199836 5.847146 -2.542412)"/></g></g></svg>